<svg width="32" height="32" viewBox="0 0 32 32" fill="none" xmlns="http://www.w3.org/2000/svg">
<path d="M26.9976 25.7637C27.3379 26.104 27.3379 26.6563 26.9976 26.9975C26.6564 27.3378 26.1041 27.3378 25.7638 26.9975L13.7378 14.9705C13.3975 14.6302 13.3975 14.0779 13.7378 13.7376C14.0781 13.3973 14.6295 13.3973 14.9707 13.7376L26.9976 25.7637Z" fill="#55ACEE"/>
<path d="M31.6085 29.7182C32.1305 30.2402 32.1305 31.0865 31.6085 31.6076C31.0874 32.1297 30.2411 32.1297 29.7191 31.6076L24.6806 26.5692C24.1586 26.0471 24.1586 25.2009 24.6806 24.6797C25.2017 24.1577 26.048 24.1577 26.57 24.6797L31.6085 29.7182Z" fill="#292F33"/>
<path d="M2.1098 4.56221L2.73961 3.9324L13.4508 14.6374L12.821 15.2672L2.1098 4.56221ZM3.37209 2.04119L4.0019 1.41138L15.3403 12.7497L14.7096 13.3795L3.37209 2.04119Z" fill="#99AAB5"/>
<path d="M0.85199 8.34023L8.4106 0.781616L9.04041 1.41143L1.4818 8.97004L0.85199 8.34023ZM1.4818 11.4893L10.9316 2.04124L11.5614 2.67105L2.11161 12.12L1.4818 11.4893ZM3.37212 13.3796L13.45 3.30175L14.0798 3.93156L4.00193 14.0094L3.37212 13.3796ZM5.89136 14.6401L14.7096 5.82099L15.3394 6.4508L6.52028 15.2699L5.89136 14.6401ZM8.4106 15.8988L15.9692 8.34023L16.599 8.97004L9.04041 16.5295L8.4106 15.8988Z" fill="#99AAB5"/>
<path d="M0.85199 7.08061L1.4818 6.4508L10.9316 15.8988L10.3018 16.5286L0.85199 7.08061ZM6.52206 1.41143L7.15098 0.781616L16.5999 10.2297L15.9701 10.8604L6.52206 1.41143Z" fill="#99AAB5"/>
<path d="M2.12857 2.12848C-0.963472 5.22141 -0.649903 10.5485 2.82875 14.0272C6.30829 17.5067 11.6345 17.8194 14.7265 14.7274C17.8195 11.6344 17.5068 6.3091 14.0264 2.82955C10.5477 -0.64999 5.22149 -0.963559 2.12857 2.12848ZM13.572 13.572C11.1374 16.0066 6.85971 15.6779 4.018 12.837C1.17717 9.9962 0.849348 5.71938 3.28396 3.28387C5.71946 0.84837 9.99629 1.17797 12.8371 4.0188C15.6779 6.85962 16.0075 11.1373 13.572 13.572Z" fill="#55ACEE"/>
<path d="M15.3394 12.7496C15.6877 13.0979 15.6868 13.6618 15.3394 14.0093L14.0789 15.2698C13.7315 15.6172 13.1676 15.6181 12.8193 15.2698C12.471 14.9215 12.471 14.3576 12.8193 14.0093L14.0789 12.7496C14.4272 12.4013 14.9911 12.4013 15.3394 12.7496Z" fill="#226699"/>
<path d="M15.9692 14.6392C16.3175 14.9875 16.3175 15.5514 15.9692 15.8997C15.6209 16.248 15.057 16.248 14.7096 15.8997L14.0798 15.2699C13.7315 14.9216 13.7324 14.3577 14.0798 14.0094C14.4281 13.6611 14.9911 13.6611 15.3403 14.0094L15.9692 14.6392Z" fill="#226699"/>
<path d="M26.2627 24.3741C26.7847 24.8952 26.154 25.1117 25.6329 25.6337C25.1109 26.1548 24.8944 26.7846 24.3733 26.2635C23.8512 25.7415 23.8512 24.8952 24.3733 24.3741C24.8944 23.852 25.7416 23.852 26.2627 24.3741Z" fill="#226699"/>
<path d="M19.3588 2.76447C18.663 3.4602 18.663 4.58798 19.3588 5.28371L19.9886 5.91352L20.6184 5.28371L21.878 4.02409L22.5096 3.39428L21.878 2.76447C21.1841 2.06874 20.0554 2.06874 19.3588 2.76447Z" fill="#BE1931"/>
<path d="M19.9913 5.91267L22.5124 3.39343L23.1422 4.02324L20.6211 6.54337L19.9913 5.91267Z" fill="#99AAB5"/>
<path d="M20.6193 6.54329L23.1403 4.02405C24.4525 4.45877 31.2691 8.53962 31.0339 8.77568C30.3587 9.45182 29.3307 8.95474 29.3307 8.95474C29.3307 8.95474 30.0825 9.67274 29.4349 10.3195C28.7873 10.9662 28.071 10.2144 28.071 10.2144C28.071 10.2144 28.9342 10.8745 28.2038 11.6076C27.468 12.3434 26.8123 11.4749 26.8123 11.4749C26.8123 11.4749 27.4617 12.3488 26.8996 12.9118C26.3357 13.4739 25.5509 12.7345 25.5509 12.7345C25.5509 12.7345 25.9233 13.6235 25.2462 14.2988C24.9238 14.623 21.1405 7.76906 20.6193 6.54329Z" fill="#E1E8ED"/>
<path d="M23.4602 6.89868C23.9751 6.29025 28.2991 10.2188 27.5401 10.9777C26.7803 11.7358 22.8411 7.62915 23.4602 6.89868ZM24.979 13.5335C25.5848 13.1389 22.2424 8.3525 21.83 8.69902C21.8024 8.72219 21.7899 8.76316 21.7828 8.81127C22.5694 10.2597 23.5698 12.0129 24.2985 13.1469C24.5978 13.4516 24.8472 13.619 24.979 13.5335ZM25.2213 5.30856C24.873 5.72012 29.6612 9.06248 30.0558 8.45761C30.1583 8.29905 29.9044 7.97568 29.4714 7.59352C28.3891 6.89689 26.9273 6.01944 25.6543 5.30322C25.4405 5.24531 25.2819 5.2373 25.2213 5.30856ZM22.5587 7.85542C22.9382 7.47326 26.693 11.9434 26.1237 12.3924C25.5554 12.8378 22.1017 8.31597 22.5587 7.85542ZM24.3768 6.03725C23.9956 6.41674 28.4657 10.1707 28.9129 9.60232C29.3601 9.03308 24.8383 5.57937 24.3768 6.03725Z" fill="#CCD6DD"/>
</svg>
