<svg width="35" height="33" viewBox="0 0 35 33" fill="none" xmlns="http://www.w3.org/2000/svg">
<path d="M30.1785 9.1836C29.9978 8.39582 29.9581 7.55746 29.6148 6.80763C29.4007 6.32937 29.0781 5.90759 28.6726 5.57576C28.267 5.24393 27.7897 5.01119 27.2786 4.89602C25.9054 4.60693 24.5177 5.28087 23.7444 6.42278C22.7778 7.85197 22.6911 9.70396 22.6874 11.3771C22.6874 12.1396 22.7182 12.9309 23.0669 13.6103C23.4384 14.2822 24.0336 14.8026 24.749 15.0811C25.4609 15.3555 26.2158 15.5017 26.9786 15.5129C28.6554 15.587 30.4568 15.2762 31.6764 14.1289C31.9799 13.8434 32.2545 13.4766 32.2437 13.061C32.221 12.8114 32.1413 12.5703 32.0106 12.3564C31.7869 11.9328 31.5276 11.5291 31.2355 11.1494C30.9524 10.8197 30.7002 10.4647 30.4821 10.0888C30.3451 9.80027 30.2432 9.49637 30.1785 9.1836Z" fill="#725858"/>
<path d="M27.4431 15.7115C27.2823 15.7115 27.1251 15.7115 26.9751 15.7007C26.1909 15.6902 25.4149 15.539 24.6841 15.2544C23.9278 14.9604 23.2991 14.4097 22.908 13.6987C22.5376 12.976 22.5087 12.1232 22.5105 11.3842C22.5105 9.71109 22.6026 7.80309 23.5946 6.32511C24.4384 5.07479 25.9434 4.43157 27.3148 4.72246C27.8535 4.84287 28.3566 5.08715 28.7844 5.4359C29.2122 5.78466 29.5528 6.22831 29.7793 6.73165C29.9963 7.26115 30.1421 7.81707 30.2129 8.38489C30.2545 8.63603 30.2979 8.89622 30.3557 9.14375C30.419 9.44261 30.5185 9.73263 30.652 10.0074C30.8083 10.2925 30.9936 10.5607 31.2049 10.8078C31.2663 10.8837 31.3278 10.9614 31.3856 11.0391C31.6828 11.4274 31.9475 11.8395 32.177 12.2714C32.3204 12.5105 32.407 12.7794 32.4299 13.0573C32.4389 13.4584 32.2294 13.8632 31.8066 14.2607C30.5653 15.4243 28.8271 15.7115 27.4431 15.7115ZM26.6499 5.01698C26.1029 5.02786 25.5668 5.17133 25.0875 5.43505C24.6082 5.69878 24.2 6.07489 23.8981 6.53109C22.9586 7.92053 22.8755 9.7653 22.8718 11.3842C22.8718 12.1069 22.8971 12.8803 23.2332 13.5343C23.5846 14.1693 24.1481 14.6605 24.825 14.922C25.517 15.1895 26.2513 15.3308 26.9932 15.3393C28.3628 15.4026 30.2671 15.2183 31.5626 14.0041C31.9077 13.6789 32.0794 13.3663 32.0722 13.0736C32.0494 12.852 31.9772 12.6383 31.8608 12.4484C31.6405 12.0345 31.3867 11.6393 31.1019 11.2668C31.0441 11.1909 30.9826 11.115 30.9212 11.0391C30.6946 10.7729 30.496 10.4841 30.3286 10.1773C30.1814 9.87633 30.0722 9.55831 30.0034 9.23048C29.9437 8.97391 29.8986 8.70831 29.8552 8.45174C29.7893 7.91315 29.652 7.38574 29.4469 6.88342C29.245 6.43176 28.9407 6.03334 28.558 5.71972C28.1754 5.4061 27.725 5.18591 27.2425 5.0766C27.0478 5.03395 26.8492 5.01154 26.6499 5.00975V5.01698Z" fill="#093F68"/>
<path d="M19.8708 8.13737C19.8708 8.13737 20.0261 6.89247 19.7623 6.8997C19.4985 6.90693 19.289 7.55377 19.289 7.55377C19.289 7.55377 19.1083 6.65036 18.8138 6.48775C18.5193 6.32513 18.0242 6.98101 17.9718 7.12917C17.9194 7.27733 18.0441 7.85189 18.709 8.7553L23.9993 16.2211L24.3462 13.2489L19.8708 8.13737Z" fill="#FFC9B0"/>
<path d="M23.9975 16.4055C23.9685 16.4056 23.94 16.3988 23.9142 16.3856C23.8884 16.3724 23.8662 16.3532 23.8493 16.3296L18.559 8.8638C17.9103 7.97665 17.7098 7.32258 17.7983 7.06963C17.9565 6.74626 18.2143 6.48218 18.5337 6.31619C18.5909 6.29104 18.6531 6.27897 18.7156 6.28084C18.7781 6.28272 18.8394 6.29849 18.8951 6.32703C19.092 6.43544 19.2347 6.74079 19.3287 7.02446C19.3702 6.94391 19.4301 6.87428 19.5036 6.82123C19.577 6.76817 19.662 6.73319 19.7515 6.71911C19.7897 6.71654 19.8279 6.72306 19.8631 6.73814C19.8983 6.75321 19.9294 6.77641 19.9538 6.80583C20.1345 7.01 20.102 7.65684 20.0532 8.07061L24.4763 13.1297C24.493 13.1488 24.5056 13.1713 24.513 13.1955C24.5205 13.2198 24.5228 13.2454 24.5197 13.2706L24.1764 16.2537C24.1721 16.2898 24.1571 16.3237 24.1332 16.3511C24.1094 16.3785 24.0778 16.3981 24.0427 16.4073L23.9975 16.4055ZM18.7126 6.64864C18.6964 6.64953 18.6805 6.6532 18.6656 6.65948C18.4446 6.7894 18.2629 6.97671 18.1398 7.20153C18.1235 7.27199 18.1976 7.76887 18.8517 8.66324L23.8728 15.7478L24.1547 13.323L19.7334 8.26394C19.7167 8.24481 19.7042 8.22238 19.6967 8.1981C19.6892 8.17381 19.687 8.14822 19.6901 8.123C19.7375 7.79386 19.7448 7.46016 19.7117 7.12925C19.5987 7.27597 19.513 7.44183 19.4588 7.6189C19.4464 7.65678 19.4218 7.68949 19.3889 7.71195C19.356 7.73442 19.3166 7.74537 19.2768 7.7431C19.237 7.74083 19.1991 7.72547 19.1689 7.69942C19.1388 7.67336 19.1181 7.63806 19.1101 7.59903C19.0288 7.19972 18.8553 6.72633 18.7252 6.65587L18.7126 6.64864Z" fill="#093F68"/>
<path d="M32.7173 9.7637C32.7173 9.7637 32.898 8.5206 33.1437 8.5983C33.3895 8.67599 33.431 9.35174 33.431 9.35174C33.431 9.35174 33.8466 8.52422 34.1682 8.44833C34.4898 8.37245 34.8024 9.13131 34.8132 9.2885C34.8241 9.44569 34.5549 9.96606 33.6768 10.6689L26.6211 16.4959L27.062 13.5436L32.7173 9.7637Z" fill="#FFC9B0"/>
<path d="M26.621 16.6747C26.59 16.6743 26.5596 16.6662 26.5325 16.6512C26.5011 16.6335 26.4758 16.6069 26.4597 16.5747C26.4436 16.5425 26.4375 16.5062 26.4421 16.4706L26.883 13.511C26.8865 13.4859 26.8952 13.4619 26.9086 13.4404C26.922 13.4189 26.9397 13.4005 26.9607 13.3863L32.5492 9.66066C32.6124 9.24329 32.7461 8.60729 32.9774 8.46094C33.0096 8.43987 33.046 8.42606 33.084 8.42044C33.1221 8.41483 33.1609 8.41755 33.1978 8.42841C33.2804 8.46554 33.3529 8.52177 33.4095 8.59245C33.466 8.66314 33.505 8.74626 33.5231 8.83495C33.6893 8.58561 33.9079 8.32723 34.1247 8.27483C34.1874 8.26029 34.2527 8.26039 34.3153 8.27511C34.378 8.28984 34.4364 8.3188 34.4861 8.35975C34.7505 8.60253 34.9303 8.92353 34.9992 9.27581C35.0191 9.54322 34.6559 10.1232 33.7941 10.8116L26.7366 16.6332C26.7041 16.6601 26.6632 16.6748 26.621 16.6747ZM27.2281 13.6393L26.8667 16.055L33.552 10.5279C34.4192 9.83412 34.6216 9.37338 34.6234 9.29569C34.563 9.05057 34.4382 8.82603 34.262 8.64523C34.246 8.63214 34.2266 8.62398 34.206 8.62174C34.0633 8.65607 33.7724 9.06983 33.5899 9.433C33.5724 9.46927 33.5434 9.49867 33.5073 9.51653C33.4712 9.53439 33.4302 9.53969 33.3908 9.5316C33.3514 9.52351 33.3158 9.50248 33.2896 9.47185C33.2635 9.44122 33.2484 9.40275 33.2466 9.36254C33.2403 9.17627 33.2005 8.99266 33.1292 8.82049C33.0112 9.13061 32.9317 9.45404 32.8925 9.78353C32.889 9.80906 32.8801 9.83355 32.8664 9.85537C32.8527 9.87718 32.8345 9.89581 32.813 9.91L27.2281 13.6393Z" fill="#093F68"/>
<path d="M24.2088 13.321H27.1503L28.1278 14.8803V18.6855H23.2313V14.8803L24.2088 13.321Z" fill="#68E1FD"/>
<path d="M28.128 18.8665H23.2315C23.1836 18.8665 23.1376 18.8474 23.1037 18.8136C23.0698 18.7797 23.0508 18.7337 23.0508 18.6858V14.8806C23.0514 14.8469 23.0607 14.8139 23.0779 14.7849L24.0554 13.2256C24.0717 13.1995 24.0943 13.1781 24.1212 13.1632C24.1481 13.1484 24.1783 13.1406 24.209 13.1407H27.1505C27.1812 13.1406 27.2114 13.1484 27.2383 13.1632C27.2651 13.1781 27.2878 13.1995 27.3041 13.2256L28.2815 14.7849C28.2994 14.8136 28.3088 14.8468 28.3087 14.8806V18.6858C28.3087 18.7337 28.2896 18.7797 28.2557 18.8136C28.2218 18.8474 28.1759 18.8665 28.128 18.8665ZM23.4122 18.5051H27.9473V14.933L27.0439 13.502H24.3084L23.4049 14.933L23.4122 18.5051Z" fill="#093F68"/>
<path d="M6.90864 18.9443H8.86362V31.2957H6.90864V18.9443Z" fill="#093F68"/>
<path d="M8.86367 31.4764H6.90869C6.86077 31.4764 6.81482 31.4574 6.78093 31.4235C6.74705 31.3896 6.72801 31.3437 6.72801 31.2958V18.9444C6.72801 18.8964 6.74705 18.8505 6.78093 18.8166C6.81482 18.7827 6.86077 18.7637 6.90869 18.7637H8.86367C8.91159 18.7637 8.95755 18.7827 8.99143 18.8166C9.02532 18.8505 9.04435 18.8964 9.04435 18.9444V31.2958C9.04435 31.3437 9.02532 31.3896 8.99143 31.4235C8.95755 31.4574 8.91159 31.4764 8.86367 31.4764ZM7.08937 31.1151H8.68299V19.125H7.08937V31.1151Z" fill="#093F68"/>
<path d="M14.1558 30.4373L12.5026 31.1492L10.1935 18.9442L11.9786 18.5503L14.1558 30.4373Z" fill="#093F68"/>
<path d="M12.5027 31.3298C12.473 31.3301 12.4437 31.3226 12.4178 31.3081C12.3938 31.2956 12.3729 31.278 12.3566 31.2564C12.3404 31.2348 12.3291 31.2099 12.3238 31.1834L10.0165 18.9783C10.0074 18.9319 10.0169 18.8837 10.0429 18.8442C10.0689 18.8047 10.1094 18.7769 10.1556 18.7669L11.9408 18.3731C11.9642 18.368 11.9884 18.3676 12.012 18.3719C12.0355 18.3762 12.058 18.3852 12.0781 18.3984C12.0988 18.4118 12.1165 18.4293 12.1302 18.4498C12.1438 18.4703 12.1532 18.4934 12.1576 18.5176L14.3258 30.4047C14.3332 30.445 14.3266 30.4866 14.3073 30.5227C14.2879 30.5588 14.2568 30.5873 14.2192 30.6034L12.5659 31.3153C12.5459 31.3239 12.5245 31.3288 12.5027 31.3298ZM10.4032 19.0831L12.6436 30.8889L13.9572 30.3234L11.8396 18.7597L10.4032 19.0831Z" fill="#093F68"/>
<path d="M8.86364 31.2955V32.544H5.60775L6.90866 31.2955H8.86364Z" fill="#68E1FD"/>
<path d="M8.86357 32.7244H5.6113C5.57562 32.7243 5.5408 32.7135 5.51122 32.6936C5.48164 32.6737 5.45862 32.6454 5.44507 32.6124C5.43129 32.5789 5.42788 32.5421 5.43529 32.5067C5.4427 32.4712 5.46058 32.4388 5.48662 32.4137L6.78753 31.1652C6.82103 31.1329 6.86568 31.1148 6.9122 31.1146H8.86718C8.9151 31.1146 8.96106 31.1336 8.99495 31.1675C9.02883 31.2014 9.04787 31.2473 9.04787 31.2953V32.5438C9.04787 32.5678 9.04308 32.5916 9.03377 32.6138C9.02447 32.6359 9.01083 32.656 8.99367 32.6728C8.97651 32.6896 8.95616 32.7029 8.93382 32.7117C8.91148 32.7206 8.8876 32.7249 8.86357 32.7244ZM6.05758 32.3631H8.68289V31.4759H6.98086L6.05758 32.3631Z" fill="#093F68"/>
<path d="M12.432 31.0008L12.788 32.4137L15.9355 31.2953L13.8865 30.5527L12.432 31.0008Z" fill="#68E1FD"/>
<path d="M12.7879 32.5944C12.7582 32.5948 12.7289 32.5873 12.7029 32.5728C12.6806 32.5609 12.6611 32.5444 12.6455 32.5245C12.6299 32.5046 12.6187 32.4816 12.6126 32.4571L12.2512 31.046C12.2399 31.0012 12.2461 30.9538 12.2686 30.9135C12.2911 30.8732 12.3282 30.843 12.3723 30.8292L13.8286 30.3793C13.8655 30.367 13.9055 30.367 13.9424 30.3793L15.9914 31.1219C16.0266 31.1346 16.057 31.158 16.0783 31.1887C16.0997 31.2195 16.111 31.2561 16.1106 31.2935C16.1106 31.3307 16.0991 31.3669 16.0778 31.3973C16.0565 31.4277 16.0263 31.4508 15.9914 31.4634L12.8421 32.58C12.8249 32.5876 12.8066 32.5925 12.7879 32.5944ZM12.6433 31.1237L12.9089 32.1771L15.3951 31.2935L13.8756 30.7425L12.6433 31.1237Z" fill="#093F68"/>
<path d="M11.8882 21.9144H7.00256V18.9277L11.9785 18.5321L11.8882 21.9144Z" fill="#093F68"/>
<path d="M11.8882 22.0951H7.0098C6.96188 22.0951 6.91593 22.076 6.88204 22.0422C6.84816 22.0083 6.82912 21.9623 6.82912 21.9144V18.9277C6.82901 18.8819 6.8463 18.8378 6.87749 18.8042C6.90869 18.7707 6.95146 18.7503 6.99715 18.747L11.9713 18.3532C11.9966 18.3511 12.0221 18.3543 12.0461 18.3627C12.0701 18.3711 12.092 18.3845 12.1105 18.4019C12.1287 18.4194 12.1432 18.4404 12.1528 18.4638C12.1625 18.4871 12.1671 18.5122 12.1665 18.5375L12.0761 21.9198C12.0754 21.9437 12.07 21.9672 12.0601 21.989C12.0503 22.0108 12.0362 22.0304 12.0188 22.0467C12.0013 22.063 11.9807 22.0757 11.9583 22.084C11.9359 22.0923 11.9121 22.096 11.8882 22.0951ZM7.19048 21.7337H11.7184L11.7997 18.729L7.19048 19.0903V21.7337Z" fill="#093F68"/>
<path d="M14.3924 7.19069L14.714 6.51675C14.714 6.51675 14.5117 5.77415 14.6309 5.62779C14.6668 5.59227 14.7113 5.56671 14.7601 5.55361C14.8089 5.54051 14.8602 5.54034 14.9091 5.5531C14.9579 5.56586 15.0026 5.59112 15.0388 5.62639C15.0749 5.66166 15.1012 5.70574 15.1152 5.75427C15.1531 5.98374 15.2163 6.2114 15.2163 6.2114C15.2163 6.2114 15.9156 4.8599 16.1197 4.90507C16.3239 4.95024 16.8822 5.16886 16.8425 5.56275C16.8027 5.95664 15.8758 7.60807 15.8758 7.60807C15.8758 7.60807 14.6815 7.62433 14.3924 7.19069Z" fill="#FFC9B0"/>
<path d="M15.8523 7.78867C15.6175 7.78867 14.555 7.76157 14.2425 7.2918C14.2246 7.26546 14.2141 7.23488 14.2119 7.20316C14.2096 7.17143 14.2158 7.13968 14.2298 7.11112L14.5225 6.4968C14.387 5.97282 14.3816 5.63856 14.5045 5.50305C14.5669 5.44079 14.6452 5.39678 14.7309 5.37577C14.8165 5.35475 14.9063 5.35753 14.9905 5.3838C15.0649 5.40307 15.1325 5.44242 15.1861 5.49755C15.2396 5.55268 15.2769 5.62146 15.294 5.69638C15.874 4.66107 16.0619 4.70443 16.1667 4.72792C16.4865 4.802 17.081 5.07483 17.0304 5.57893C16.9906 5.99089 16.2011 7.41285 16.0421 7.69472C16.0265 7.72236 16.004 7.74543 15.9767 7.76161C15.9494 7.77778 15.9184 7.78649 15.8867 7.78687L15.8523 7.78867ZM14.6074 7.1599C14.8279 7.34058 15.3717 7.41828 15.7783 7.4255C16.1396 6.79131 16.6473 5.79937 16.6708 5.54641C16.6943 5.29346 16.3239 5.15252 16.1288 5.09471C15.986 5.22118 15.6373 5.79575 15.379 6.29443C15.3623 6.32658 15.3363 6.35297 15.3044 6.37017C15.2725 6.38737 15.2362 6.39458 15.2002 6.39088C15.1641 6.38718 15.13 6.37273 15.1023 6.34941C15.0746 6.32609 15.0545 6.29498 15.0447 6.26011C15.0012 6.103 14.9656 5.9438 14.9381 5.78311C14.9381 5.78311 14.9381 5.74697 14.8839 5.73251C14.8671 5.7252 14.8489 5.72143 14.8306 5.72143C14.8122 5.72143 14.7941 5.7252 14.7773 5.73251C14.7747 5.97752 14.8107 6.22141 14.8839 6.45524C14.8952 6.49676 14.8914 6.54097 14.873 6.57991L14.6074 7.1599Z" fill="#093F68"/>
<path d="M3.118 8.35034L2.35553 7.52463C2.35553 7.52463 2.05017 6.49474 1.81348 6.63386C1.57679 6.77299 1.57317 7.03317 1.67436 7.31684C1.77554 7.60051 0.872128 6.35381 0.619173 6.62122C0.366219 6.88863 0.162048 7.11629 0.187344 7.40899C0.212639 7.70169 1.97609 9.39649 1.97609 9.39649L3.118 8.35034Z" fill="#FFC9B0"/>
<path d="M1.97057 9.5848C1.92317 9.5846 1.87774 9.56578 1.84409 9.5324C1.01837 8.7356 0.0372694 7.72558 0.00293983 7.42385C-0.0313897 7.03719 0.24144 6.7499 0.481747 6.49695C0.510334 6.46684 0.544826 6.44296 0.583066 6.42679C0.621306 6.41062 0.662471 6.40252 0.703985 6.40299C0.91719 6.40299 1.16292 6.60716 1.42671 6.8818C1.44008 6.79767 1.4724 6.71768 1.52123 6.64787C1.57006 6.57807 1.63413 6.52028 1.70858 6.47888C1.74512 6.45736 1.78613 6.44453 1.82843 6.4414C1.87073 6.43827 1.91318 6.44491 1.9525 6.46081C2.20545 6.56199 2.4042 7.09681 2.50719 7.43288L3.24257 8.22788C3.25878 8.24563 3.27128 8.26645 3.27935 8.28909C3.28742 8.31174 3.29088 8.33577 3.28954 8.35978C3.28744 8.40733 3.26667 8.45213 3.23173 8.48445L2.08259 9.53602C2.05205 9.56479 2.01244 9.58204 1.97057 9.5848ZM0.71844 6.76797C0.487167 7.01189 0.339008 7.18896 0.357076 7.39313C0.409474 7.56116 1.2117 8.41579 1.96876 9.15478L2.85771 8.3399L2.2181 7.64789C2.19916 7.62711 2.18497 7.60245 2.17654 7.57562C2.10667 7.30894 1.99573 7.05475 1.8477 6.82218C1.78988 6.87277 1.73387 6.98117 1.83325 7.25581C1.85529 7.29972 1.86029 7.35025 1.84728 7.39763C1.83427 7.44501 1.80416 7.48589 1.76278 7.51238C1.62185 7.60091 1.52789 7.50154 1.32192 7.28833C1.20989 7.16547 0.864792 6.80591 0.71844 6.76797Z" fill="#093F68"/>
<path d="M15.986 7.53024L14.396 6.9105L11.086 12.1394C10.9053 12.069 7.86079 12.3617 7.63493 12.4665L3.04019 8.13011L1.77542 9.40572L6.60143 14.9364L6.70081 19.9846L12.4826 19.4552L12.1014 14.6762L15.986 7.53024Z" fill="#68E1FD"/>
<path d="M6.70091 20.1636C6.65637 20.164 6.61326 20.1479 6.57986 20.1185C6.54349 20.084 6.52209 20.0366 6.52023 19.9866L6.42266 15.0034L1.64001 9.52147C1.60903 9.48806 1.59181 9.44417 1.59181 9.39861C1.59181 9.35304 1.60903 9.30915 1.64001 9.27574L2.90479 8.01097C2.93856 7.97786 2.98397 7.95932 3.03127 7.95932C3.07856 7.95932 3.12397 7.97786 3.15774 8.01097L7.67479 12.2823C8.7679 12.1116 9.8702 12.006 10.9758 11.9661L14.2281 6.8275C14.2505 6.79191 14.2845 6.76522 14.3244 6.75203C14.3643 6.73884 14.4076 6.73997 14.4467 6.75523L16.0367 7.37497C16.0605 7.38445 16.0819 7.39885 16.0997 7.41722C16.1174 7.4356 16.1311 7.45753 16.1397 7.48157C16.1485 7.50562 16.1521 7.53127 16.1502 7.55682C16.1484 7.58236 16.1411 7.60721 16.1289 7.62973L12.2822 14.7161L12.667 19.4391C12.671 19.4868 12.656 19.5341 12.6252 19.5707C12.5943 19.6072 12.5503 19.6301 12.5026 19.6342L6.72079 20.1636H6.70091ZM2.02306 9.41125L6.73886 14.8082C6.76645 14.8405 6.7818 14.8814 6.78222 14.9239L6.87798 19.7788L12.2822 19.2909L11.9208 14.6908C11.9175 14.6558 11.9244 14.6207 11.9407 14.5896L15.735 7.62431L14.4702 7.13466L11.2378 12.2371C11.2156 12.2719 11.1822 12.2981 11.1431 12.3112C11.104 12.3243 11.0615 12.3237 11.0228 12.3094C10.7699 12.266 7.9693 12.5352 7.70912 12.6328C7.67618 12.645 7.64061 12.6482 7.60601 12.6422C7.57142 12.6362 7.53904 12.6211 7.51218 12.5985L3.04391 8.38137L2.02306 9.41125Z" fill="#093F68"/>
<path d="M9.38569 16.3133L8.91953 13.0484H9.92954L9.38569 16.3133Z" fill="white"/>
<path d="M9.39122 16.494C9.34738 16.4945 9.30488 16.4789 9.27163 16.4504C9.23839 16.4218 9.21668 16.3821 9.21054 16.3387L8.74438 13.0755C8.74052 13.0499 8.74223 13.0237 8.7494 12.9987C8.75658 12.9738 8.76904 12.9507 8.78594 12.931C8.8029 12.9112 8.82396 12.8952 8.84767 12.8843C8.87137 12.8734 8.89716 12.8677 8.92326 12.8678H9.93327C9.95982 12.8674 9.98612 12.8728 10.0103 12.8838C10.0345 12.8947 10.056 12.9108 10.0733 12.931C10.0905 12.9512 10.1031 12.9749 10.1101 13.0005C10.1172 13.0261 10.1185 13.053 10.1139 13.0791L9.5719 16.3423C9.56498 16.385 9.54293 16.4239 9.50976 16.4517C9.4766 16.4796 9.43453 16.4946 9.39122 16.494ZM9.13285 13.2291L9.40568 15.1317L9.72187 13.2291H9.13285Z" fill="#093F68"/>
<path d="M8.91953 12.4591H9.93315V13.0409C9.93315 13.1549 9.88785 13.2643 9.8072 13.3449C9.72656 13.4256 9.61718 13.4709 9.50313 13.4709H9.35136C9.23731 13.4709 9.12793 13.4256 9.04729 13.3449C8.96664 13.2643 8.92133 13.1549 8.92133 13.0409V12.4591H8.91953Z" fill="#FFC9B0"/>
<path d="M9.50138 13.6591H9.3478C9.26768 13.6591 9.18836 13.6433 9.11436 13.6126C9.04037 13.5819 8.97317 13.5369 8.9166 13.4801C8.86004 13.4234 8.81522 13.3561 8.78473 13.282C8.75424 13.2079 8.73866 13.1285 8.7389 13.0484V12.4594C8.7389 12.4115 8.75794 12.3655 8.79182 12.3316C8.8257 12.2977 8.87166 12.2787 8.91958 12.2787H9.93321C9.98113 12.2787 10.0271 12.2977 10.061 12.3316C10.0949 12.3655 10.1139 12.4115 10.1139 12.4594V13.0412C10.1151 13.1222 10.1001 13.2026 10.0698 13.2778C10.0395 13.353 9.99455 13.4213 9.9375 13.4789C9.88046 13.5364 9.8125 13.582 9.73761 13.613C9.66272 13.6439 9.58241 13.6596 9.50138 13.6591ZM9.10026 12.6473V13.0484C9.10002 13.0811 9.10625 13.1134 9.11858 13.1437C9.13092 13.1739 9.14911 13.2014 9.17212 13.2246C9.19513 13.2478 9.2225 13.2662 9.25265 13.2787C9.2828 13.2913 9.31514 13.2977 9.3478 13.2977H9.50138C9.53404 13.2977 9.56637 13.2913 9.59652 13.2787C9.62667 13.2662 9.65404 13.2478 9.67705 13.2246C9.70006 13.2014 9.71826 13.1739 9.73059 13.1437C9.74292 13.1134 9.74915 13.0811 9.74891 13.0484V12.6401L9.10026 12.6473Z" fill="#093F68"/>
<path d="M7.91316 4.74635C8.03096 4.70427 8.15176 4.67105 8.27452 4.64698C8.84547 4.54037 9.42546 4.4139 9.99461 4.56928C10.5709 4.72895 11.0913 5.04595 11.4976 5.48475C11.9038 5.92355 12.1798 6.46681 12.2947 7.05366L12.6199 9.41517L5.77749 10.7197C5.73663 10.5758 5.71835 10.4265 5.72329 10.277C5.68978 10.1251 5.63823 9.97767 5.56971 9.83796C5.41492 9.47217 5.29396 9.09296 5.20835 8.70509C5.0947 8.09109 5.10699 7.4604 5.24448 6.85129C5.31856 6.48993 5.41613 6.10508 5.6745 5.83767C5.93288 5.57026 6.39723 5.47631 6.67368 5.72926C6.96513 5.27209 7.4016 4.92596 7.91316 4.74635Z" fill="#725858"/>
<path d="M5.77755 10.9001C5.74418 10.9 5.7115 10.8906 5.68311 10.8731C5.65473 10.8555 5.63176 10.8305 5.61674 10.8007C5.56797 10.6867 5.54573 10.5632 5.5517 10.4393C5.5517 10.3942 5.5517 10.349 5.5517 10.3092C5.53135 10.2058 5.49733 10.1055 5.45051 10.0111C5.43606 9.97859 5.42161 9.94426 5.40896 9.91173C5.25198 9.53555 5.13099 9.14534 5.04759 8.74633C4.9269 8.10875 4.93859 7.45315 5.08192 6.82027C5.15781 6.44626 5.2626 6.02165 5.55892 5.7163C5.69381 5.57083 5.87012 5.47028 6.06401 5.42827C6.2579 5.38627 6.46001 5.40481 6.64301 5.48141C6.95119 5.06623 7.37564 4.75182 7.86261 4.578C7.99034 4.53235 8.12144 4.49671 8.2547 4.4714L8.35407 4.45334C8.90696 4.34673 9.47791 4.23832 10.0543 4.39552C10.6634 4.56391 11.2135 4.89879 11.6427 5.36255C12.072 5.8263 12.3635 6.40056 12.4845 7.02082C12.4845 7.02082 12.4845 7.02082 12.8115 9.39137C12.8179 9.43719 12.8065 9.48373 12.7796 9.52138C12.7527 9.55903 12.7124 9.58492 12.6669 9.59373L5.82633 10.8983L5.77755 10.9001ZM6.27623 5.75786C6.09916 5.76277 5.93085 5.83592 5.80646 5.96203C5.5788 6.19691 5.49207 6.54744 5.42341 6.88712C5.28957 7.47223 5.27727 8.07859 5.38727 8.66864C5.47033 9.04571 5.58704 9.41458 5.73599 9.7708C5.74864 9.80152 5.76129 9.83223 5.77574 9.86114C5.83452 9.98525 5.87703 10.1164 5.90222 10.2514C5.90894 10.3114 5.91256 10.3717 5.91306 10.4321V10.5152L12.4176 9.27573L12.1159 7.08406C12.0068 6.53184 11.7462 6.02085 11.3633 5.60827C10.9804 5.19568 10.4902 4.89776 9.94768 4.74785C9.45081 4.61233 8.9449 4.7099 8.41008 4.81108L8.3089 4.83096C8.19427 4.853 8.08136 4.88319 7.97103 4.9213C7.50095 5.08701 7.09969 5.40496 6.83092 5.82471C6.81672 5.84731 6.7977 5.86649 6.7752 5.88086C6.75271 5.89523 6.72731 5.90444 6.70083 5.90782C6.67406 5.91128 6.64685 5.90869 6.62122 5.90024C6.59558 5.8918 6.57215 5.87772 6.55267 5.85904C6.47817 5.7914 6.38043 5.75515 6.27984 5.75786H6.27623Z" fill="#093F68"/>
<path d="M6.63949 11.1275C7.14137 11.0318 7.4772 10.5816 7.38959 10.1219C7.30197 9.66216 6.82409 9.36701 6.32221 9.46266C5.82033 9.55831 5.4845 10.0085 5.57211 10.4683C5.65973 10.928 6.13761 11.2231 6.63949 11.1275Z" fill="#FFC9B0"/>
<path d="M6.45327 11.3229C6.20901 11.33 5.9699 11.2518 5.77701 11.1018C5.58412 10.9518 5.4495 10.7393 5.39628 10.5008C5.37009 10.365 5.37264 10.2252 5.40376 10.0905C5.43488 9.95571 5.49388 9.82898 5.57696 9.71842C5.75128 9.49136 6.00306 9.33639 6.28431 9.28307C6.56556 9.22976 6.8566 9.28182 7.10192 9.42933C7.22071 9.49988 7.32319 9.59482 7.4026 9.70787C7.48202 9.82092 7.53657 9.94953 7.56266 10.0852C7.60472 10.3647 7.53445 10.6495 7.36721 10.8773C7.19996 11.1052 6.94934 11.2576 6.67009 11.3012C6.59863 11.3151 6.52606 11.3223 6.45327 11.3229ZM6.5147 9.62446C6.46195 9.6239 6.40928 9.62874 6.35751 9.63892C6.16469 9.67358 5.9919 9.77932 5.87328 9.93524C5.81881 10.0046 5.77982 10.0849 5.75894 10.1706C5.73806 10.2563 5.73577 10.3455 5.75223 10.4321C5.80548 10.6092 5.92246 10.7603 6.08058 10.8563C6.23871 10.9522 6.42676 10.9861 6.60844 10.9515C6.79013 10.917 6.95256 10.8163 7.06438 10.669C7.1762 10.5217 7.22948 10.3382 7.21394 10.1539C7.1968 10.0673 7.16153 9.98539 7.11046 9.91346C7.05939 9.84152 6.99367 9.78121 6.91762 9.73649C6.79642 9.66224 6.65684 9.62343 6.5147 9.62446Z" fill="#093F68"/>
<path d="M11.938 10.1175C12.4398 10.0219 12.7757 9.57165 12.6881 9.11192C12.6004 8.65219 12.1226 8.35704 11.6207 8.45269C11.1188 8.54834 10.783 8.99856 10.8706 9.45829C10.9582 9.91802 11.4361 10.2132 11.938 10.1175Z" fill="#FFC9B0"/>
<path d="M11.74 10.3129C11.5308 10.314 11.3255 10.2564 11.1474 10.1467C11.0288 10.0759 10.9265 9.98088 10.8471 9.86787C10.7677 9.75486 10.713 9.62639 10.6866 9.49084C10.6446 9.21087 10.715 8.92563 10.8826 8.69745C11.0502 8.46927 11.3013 8.31669 11.581 8.27304C11.8619 8.21806 12.1533 8.27027 12.3977 8.41939C12.5162 8.49021 12.6185 8.58522 12.6979 8.69823C12.7773 8.81124 12.832 8.93971 12.8584 9.07527C12.8847 9.21077 12.8822 9.35028 12.851 9.48475C12.8199 9.61921 12.7609 9.74564 12.6777 9.85581C12.5049 10.0849 12.2519 10.2404 11.9695 10.2913C11.8939 10.306 11.817 10.3132 11.74 10.3129ZM11.805 8.61453C11.7523 8.61396 11.6996 8.6188 11.6478 8.62898C11.4626 8.65461 11.2949 8.75228 11.1813 8.90079C11.0676 9.0493 11.0171 9.23666 11.0408 9.42218C11.0582 9.5086 11.0936 9.59039 11.1447 9.66228C11.1957 9.73417 11.2612 9.79456 11.3371 9.83955C11.5048 9.9415 11.7049 9.97635 11.8972 9.93712C12.0905 9.90238 12.2638 9.7967 12.3832 9.6408C12.437 9.57103 12.4755 9.49077 12.4964 9.40519C12.5172 9.31961 12.5199 9.23061 12.5043 9.14393C12.4868 9.05751 12.4514 8.97571 12.4004 8.90382C12.3493 8.83193 12.2838 8.77154 12.208 8.72655C12.0888 8.65359 11.9519 8.61483 11.8123 8.61453H11.805Z" fill="#093F68"/>
<path d="M9.67307 12.4937C8.90218 12.6405 8.10454 12.4757 7.45495 12.0354C6.80536 11.5951 6.35681 10.9153 6.20759 10.1449L5.90946 8.57836C5.90946 8.57836 6.56173 8.02005 6.65388 7.31359C6.65388 7.31359 8.01622 8.37238 9.07682 8.07968C9.95981 7.83247 10.8289 7.53814 11.6804 7.19795L12.0292 9.02645C12.1023 9.40883 12.0993 9.80187 12.0204 10.1831C11.9416 10.5643 11.7884 10.9263 11.5696 11.2483C11.3508 11.5703 11.0707 11.846 10.7452 12.0597C10.4198 12.2734 10.0555 12.4209 9.67307 12.4937Z" fill="#FFC9B0"/>
<path d="M9.11832 12.7269C8.38706 12.7257 7.67897 12.4702 7.11555 12.004C6.55213 11.5378 6.1685 10.8901 6.03047 10.172L5.73234 8.60551C5.72449 8.57283 5.72591 8.5386 5.73645 8.50668C5.74698 8.47476 5.76621 8.44642 5.79197 8.42483C5.79197 8.42483 6.39364 7.90085 6.47495 7.28111C6.47898 7.2494 6.49135 7.21933 6.5108 7.19397C6.53025 7.1686 6.55608 7.14885 6.58565 7.13673C6.61522 7.12461 6.64749 7.12054 6.67914 7.12496C6.7108 7.12937 6.74072 7.14211 6.76584 7.16186C6.77849 7.16186 8.06856 8.15922 9.02979 7.89724C9.90515 7.65748 10.767 7.37099 11.6117 7.039C11.6365 7.02889 11.6632 7.02442 11.69 7.02591C11.7167 7.0274 11.7428 7.03481 11.7663 7.0476C11.7898 7.0604 11.8102 7.07826 11.8259 7.09989C11.8417 7.12153 11.8525 7.1464 11.8575 7.1727L12.2062 9.00301C12.2925 9.45752 12.2776 9.92548 12.1624 10.3736C12.0472 10.8216 11.8345 11.2388 11.5397 11.5953C11.2448 11.9517 10.8749 12.2388 10.4564 12.4359C10.0378 12.6331 9.58097 12.7355 9.11832 12.7359V12.7269ZM6.10636 8.63622L6.38641 10.1034C6.44818 10.4684 6.58217 10.8174 6.78053 11.13C6.97889 11.4426 7.23763 11.7124 7.5416 11.9238C7.84558 12.1351 8.18866 12.2836 8.55076 12.3607C8.91287 12.4377 9.28671 12.4418 9.65039 12.3725C10.0141 12.3033 10.3603 12.1621 10.6687 11.9574C10.9772 11.7527 11.2416 11.4884 11.4467 11.1802C11.6517 10.8719 11.7932 10.5259 11.8628 10.1623C11.9324 9.79865 11.9287 9.42481 11.852 9.06263L11.5431 7.4365C11.1347 7.5973 10.1663 7.95867 9.12555 8.24595C8.24743 8.48626 7.21935 7.90446 6.77668 7.60634C6.63664 7.99722 6.40708 8.34992 6.10636 8.63622Z" fill="#093F68"/>
<path d="M8.94489 10.2749C8.89697 10.2749 8.85101 10.2559 8.81713 10.222C8.78324 10.1881 8.7642 10.1422 8.7642 10.0942C8.7642 10.0463 8.78324 10.0004 8.81713 9.96648C8.85101 9.93259 8.89697 9.91356 8.94489 9.91356C9.04057 9.91168 9.13574 9.89895 9.22856 9.87561C9.14399 9.70736 9.04162 9.54865 8.92321 9.40223C8.8935 9.36461 8.87994 9.31673 8.88553 9.26912C8.89113 9.22151 8.9154 9.17808 8.95302 9.14837C8.99063 9.11866 9.03851 9.10511 9.08612 9.1107C9.13373 9.11629 9.17716 9.14056 9.20687 9.17818C9.41466 9.44197 9.65316 9.79973 9.60437 10.0075C9.59607 10.0438 9.57953 10.0776 9.55603 10.1064C9.53253 10.1353 9.5027 10.1583 9.46886 10.1737C9.30292 10.2385 9.12664 10.2728 8.9485 10.2749H8.94489Z" fill="#093F68"/>
<path d="M9.02987 11.5562C8.63924 11.5543 8.25943 11.4277 7.94577 11.1948C7.92762 11.1795 7.91266 11.1608 7.90175 11.1397C7.89084 11.1186 7.88418 11.0956 7.88217 11.0719C7.88016 11.0483 7.88282 11.0245 7.89002 11.0018C7.89721 10.9792 7.90879 10.9582 7.92409 10.9401C7.9394 10.9219 7.95813 10.907 7.97921 10.896C8.0003 10.8851 8.02333 10.8785 8.04698 10.8765C8.07064 10.8745 8.09446 10.8771 8.11709 10.8843C8.13971 10.8915 8.1607 10.9031 8.17885 10.9184C8.22402 10.9563 9.225 11.7531 10.4464 10.454C10.462 10.4348 10.4814 10.419 10.5034 10.4075C10.5254 10.3961 10.5494 10.3893 10.5742 10.3876C10.5989 10.3859 10.6237 10.3892 10.647 10.3975C10.6704 10.4058 10.6918 10.4187 10.7099 10.4356C10.728 10.4525 10.7425 10.4729 10.7524 10.4957C10.7623 10.5184 10.7674 10.5429 10.7674 10.5676C10.7675 10.5924 10.7624 10.6169 10.7526 10.6396C10.7427 10.6624 10.7283 10.6828 10.7102 10.6998C10.085 11.3755 9.49602 11.5562 9.02987 11.5562Z" fill="#093F68"/>
<path d="M7.33136 9.56843C7.28883 9.5692 7.2474 9.55495 7.21435 9.52818C7.1813 9.50141 7.15875 9.46383 7.15068 9.42208C7.11953 9.25963 7.15419 9.09146 7.24703 8.95457C7.33988 8.81767 7.4833 8.72327 7.64574 8.69212C7.80819 8.66097 7.97636 8.69563 8.11326 8.78848C8.25015 8.88132 8.34455 9.02474 8.3757 9.18719C8.38015 9.21057 8.37993 9.23459 8.37506 9.25788C8.3702 9.28117 8.36078 9.30328 8.34735 9.32292C8.33392 9.34256 8.31674 9.35936 8.2968 9.37234C8.27686 9.38533 8.25455 9.39425 8.23115 9.39859C8.1842 9.4076 8.13559 9.39765 8.09597 9.37089C8.05634 9.34414 8.02894 9.30277 8.01976 9.25585C8.01374 9.22183 8.00086 9.18939 7.98192 9.16051C7.96297 9.13162 7.93835 9.10689 7.90954 9.08781C7.88139 9.0683 7.84965 9.05458 7.81615 9.04744C7.78265 9.04031 7.74806 9.0399 7.7144 9.04626C7.64599 9.0594 7.58555 9.09908 7.54629 9.15663C7.50702 9.21417 7.49211 9.28492 7.50481 9.35342C7.51383 9.40037 7.50387 9.44898 7.47712 9.4886C7.45036 9.52823 7.409 9.55563 7.36208 9.56481L7.33136 9.56843Z" fill="#093F68"/>
<path d="M9.80685 9.10407C9.76432 9.10485 9.72289 9.09059 9.68984 9.06382C9.65679 9.03705 9.63424 8.99948 9.62617 8.95772C9.59502 8.79527 9.62968 8.6271 9.72252 8.49021C9.81536 8.35332 9.95879 8.25891 10.1212 8.22777C10.2837 8.19662 10.4519 8.23128 10.5887 8.32412C10.7256 8.41696 10.82 8.56038 10.8512 8.72283C10.8603 8.77075 10.85 8.82033 10.8225 8.86065C10.7951 8.90097 10.7528 8.92874 10.7048 8.93784C10.6569 8.94695 10.6073 8.93664 10.567 8.9092C10.5267 8.88175 10.4989 8.83941 10.4898 8.79149C10.4834 8.75768 10.4704 8.72546 10.4516 8.69668C10.4327 8.66789 10.4084 8.6431 10.3799 8.62372C10.3515 8.60434 10.3195 8.59076 10.2858 8.58373C10.2521 8.57671 10.2174 8.5764 10.1836 8.5828C10.1498 8.58921 10.1175 8.60221 10.0888 8.62107C10.06 8.63993 10.0352 8.66427 10.0158 8.69271C9.99642 8.72115 9.98283 8.75313 9.97581 8.78682C9.96879 8.82051 9.96848 8.85525 9.97488 8.88906C9.9839 8.93601 9.97394 8.98463 9.94719 9.02425C9.92043 9.06387 9.87906 9.09128 9.83214 9.10046L9.80685 9.10407Z" fill="#093F68"/>
<path d="M23.0091 31.1852L21.2637 30.6938L22.9061 23.9417L24.6497 24.4331L23.0091 31.1852Z" fill="#FFC9B0"/>
<path d="M23.0092 31.3659C22.9924 31.3678 22.9754 31.3678 22.9586 31.3659L21.215 30.8745C21.1699 30.8618 21.1315 30.8321 21.108 30.7916C21.0844 30.7512 21.0774 30.7031 21.0885 30.6577L22.7309 23.9074C22.7364 23.8838 22.7466 23.8616 22.7609 23.842C22.7752 23.8225 22.7933 23.806 22.814 23.7936C22.8351 23.7812 22.8584 23.7732 22.8826 23.7701C22.9069 23.767 22.9315 23.7688 22.955 23.7755L24.6985 24.2669C24.7432 24.2797 24.7813 24.3091 24.8048 24.3491C24.8284 24.3892 24.8356 24.4367 24.825 24.4819L23.1844 31.234C23.1787 31.2578 23.1682 31.2801 23.1536 31.2996C23.139 31.3192 23.1206 31.3356 23.0995 31.3479C23.0715 31.3616 23.0403 31.3678 23.0092 31.3659ZM21.4806 30.5673L22.8773 30.9594L24.4329 24.5651L23.0381 24.173L21.4806 30.5673Z" fill="#093F68"/>
<path d="M27.7521 31.1906L25.9416 31.1563L26.0537 24.1801L27.8659 24.2145L27.7521 31.1906Z" fill="#FFC9B0"/>
<path d="M27.7521 31.3715L25.9453 31.3372C25.8974 31.3372 25.8514 31.3181 25.8175 31.2842C25.7837 31.2504 25.7646 31.2044 25.7646 31.1565L25.8766 24.1785C25.8772 24.1548 25.8825 24.1314 25.8921 24.1097C25.9017 24.088 25.9155 24.0684 25.9327 24.0521C25.9681 24.0206 26.0135 24.0026 26.0609 24.0015L27.8678 24.0358C27.9157 24.0358 27.9616 24.0548 27.9955 24.0887C28.0294 24.1226 28.0484 24.1686 28.0484 24.2165L27.9346 31.1944C27.934 31.2181 27.9288 31.2415 27.9192 31.2632C27.9096 31.2849 27.8958 31.3045 27.8786 31.3209C27.8447 31.3536 27.7993 31.3718 27.7521 31.3715ZM26.126 30.9794L27.5714 31.0065L27.678 24.3917L26.2326 24.3646L26.126 30.9794Z" fill="#093F68"/>
<path d="M28.1296 18.9282L28.3248 28.0797L21.2637 26.7571L23.2711 18.9282H28.1296Z" fill="#093F68"/>
<path d="M28.3248 28.2597H28.2923L21.2312 26.9371C21.1824 26.9266 21.1396 26.8974 21.112 26.8558C21.0987 26.8348 21.09 26.8113 21.0863 26.7867C21.0825 26.7622 21.0839 26.7371 21.0903 26.7131L23.0959 18.8841C23.1061 18.8444 23.1296 18.8093 23.1624 18.7847C23.1953 18.76 23.2355 18.7473 23.2765 18.7486H28.1351C28.183 18.7486 28.229 18.7677 28.2628 18.8015C28.2967 18.8354 28.3158 18.8814 28.3158 18.9293L28.5109 28.0808C28.5109 28.1288 28.4919 28.1747 28.458 28.2086C28.4241 28.2425 28.3781 28.2615 28.3302 28.2615L28.3248 28.2597ZM21.4968 26.6155L28.1495 27.8604L27.9689 19.1082H23.4103L21.4968 26.6155Z" fill="#093F68"/>
<path d="M23.0092 31.1855L22.6985 32.3725L19.6305 31.5721L21.2638 30.694L23.0092 31.1855Z" fill="#68E1FD"/>
<path d="M22.6984 32.5531C22.6834 32.5548 22.6682 32.5548 22.6532 32.5531L19.5816 31.7508C19.5465 31.7417 19.5149 31.7221 19.4911 31.6947C19.4672 31.6673 19.4522 31.6333 19.4479 31.5973C19.4436 31.5612 19.4502 31.5247 19.467 31.4924C19.4838 31.4602 19.5098 31.4338 19.5419 31.4166L21.168 30.5403C21.1904 30.5278 21.2152 30.5202 21.2407 30.518C21.2663 30.5158 21.292 30.5191 21.3162 30.5276L23.0615 31.0173C23.1071 31.0303 23.1456 31.0608 23.169 31.102C23.1923 31.1432 23.1985 31.192 23.1862 31.2377L22.8772 32.4248C22.8657 32.4629 22.8419 32.4961 22.8096 32.5193C22.7773 32.5425 22.7382 32.5544 22.6984 32.5531ZM20.1218 31.5123L22.5683 32.1538L22.7887 31.3118L21.2854 30.889L20.1218 31.5123Z" fill="#093F68"/>
<path d="M25.9416 31.1905V32.4191H29.1108L27.7521 31.1561L25.9416 31.1905Z" fill="#68E1FD"/>
<path d="M29.1107 32.6001H25.9416C25.8937 32.6001 25.8477 32.581 25.8138 32.5472C25.7799 32.5133 25.7609 32.4673 25.7609 32.4194V31.1908C25.7609 31.1428 25.7799 31.0969 25.8138 31.063C25.8477 31.0291 25.8937 31.0101 25.9416 31.0101L27.7484 30.9757C27.7951 30.976 27.8401 30.9934 27.8749 31.0245L29.2336 32.2893C29.2607 32.3139 29.2796 32.3462 29.288 32.3818C29.2963 32.4174 29.2937 32.4547 29.2804 32.4888C29.267 32.5229 29.2437 32.5521 29.2134 32.5726C29.1831 32.5931 29.1473 32.604 29.1107 32.6037V32.6001ZM26.1223 32.2387H28.6518L27.6833 31.3353L26.1223 31.3642V32.2387Z" fill="#093F68"/>
<path d="M24.8069 13.321L25.8024 16.0024L26.8522 13.321H24.8069Z" fill="#FFC9B0"/>
<path d="M25.8025 16.1831C25.7659 16.1829 25.7302 16.1715 25.7002 16.1505C25.6702 16.1295 25.6473 16.0999 25.6345 16.0657L24.6389 13.3843C24.6287 13.357 24.6252 13.3275 24.6289 13.2985C24.6326 13.2695 24.6432 13.2418 24.6599 13.2179C24.6766 13.1939 24.6989 13.1743 24.7248 13.1608C24.7507 13.1473 24.7795 13.1403 24.8088 13.1404H26.8541C26.8834 13.1405 26.9122 13.1477 26.9381 13.1614C26.964 13.1751 26.9861 13.1949 27.0027 13.2191C27.0192 13.2433 27.0296 13.2711 27.033 13.3002C27.0364 13.3293 27.0327 13.3588 27.0221 13.3861L25.9705 16.0729C25.9566 16.1058 25.9332 16.1339 25.9033 16.1535C25.8733 16.1731 25.8383 16.1834 25.8025 16.1831ZM25.0653 13.5018L25.8079 15.4893L26.5867 13.5018H25.0653Z" fill="#093F68"/>
<path d="M26.3301 13.5435V12.7612H25.3273V13.5435" fill="#FFC9B0"/>
<path d="M26.3301 13.7241C26.2822 13.7241 26.2363 13.7051 26.2024 13.6712C26.1685 13.6373 26.1495 13.5914 26.1495 13.5434V12.9418H25.508V13.5434C25.508 13.5914 25.489 13.6373 25.4551 13.6712C25.4212 13.7051 25.3753 13.7241 25.3274 13.7241C25.2794 13.7241 25.2335 13.7051 25.1996 13.6712C25.1657 13.6373 25.1467 13.5914 25.1467 13.5434V12.7611C25.1467 12.7132 25.1657 12.6672 25.1996 12.6333C25.2335 12.5994 25.2794 12.5804 25.3274 12.5804H26.3301C26.3781 12.5804 26.424 12.5994 26.4579 12.6333C26.4918 12.6672 26.5108 12.7132 26.5108 12.7611V13.5434C26.5108 13.5914 26.4918 13.6373 26.4579 13.6712C26.424 13.7051 26.3781 13.7241 26.3301 13.7241Z" fill="#093F68"/>
<path d="M29.8173 11.0898C29.9107 10.6464 29.5692 10.1992 29.0546 10.0909C28.54 9.98254 28.0472 10.2541 27.9538 10.6974C27.8605 11.1407 28.202 11.5879 28.7166 11.6963C29.2312 11.8046 29.724 11.5331 29.8173 11.0898Z" fill="#FFC9B0"/>
<path d="M28.9426 11.901C28.7544 11.9006 28.5687 11.8582 28.399 11.777C28.2293 11.6957 28.0798 11.5776 27.9615 11.4312C27.8769 11.3236 27.8169 11.1988 27.7857 11.0655C27.7545 10.9322 27.7528 10.7937 27.7808 10.6597C27.8102 10.5255 27.8686 10.3993 27.952 10.29C28.0353 10.1808 28.1416 10.0911 28.2633 10.0273C28.5184 9.89124 28.8136 9.85025 29.0962 9.91168C29.3828 9.96686 29.6396 10.1242 29.8189 10.3543C29.9057 10.461 29.9675 10.5856 29.9999 10.7192C30.0323 10.8528 30.0345 10.992 30.0063 11.1265C29.978 11.261 29.9201 11.3875 29.8368 11.4968C29.7534 11.6061 29.6467 11.6955 29.5244 11.7582C29.346 11.855 29.1456 11.9042 28.9426 11.901ZM28.8252 10.2459C28.6877 10.2446 28.5522 10.2781 28.4313 10.3435C28.3556 10.3827 28.2894 10.4379 28.2373 10.5053C28.1852 10.5727 28.1484 10.6507 28.1296 10.7338C28.1133 10.8175 28.1155 10.9037 28.1361 10.9864C28.1567 11.0691 28.1952 11.1463 28.2488 11.2126C28.3762 11.3687 28.5532 11.4767 28.7504 11.5184C28.9476 11.5601 29.1531 11.5332 29.3329 11.4421C29.4096 11.4041 29.4766 11.3493 29.5289 11.2816C29.5812 11.2139 29.6175 11.1352 29.6349 11.0515C29.6523 10.9678 29.6504 10.8812 29.6294 10.7983C29.6084 10.7153 29.5688 10.6383 29.5136 10.573C29.3881 10.414 29.21 10.305 29.0113 10.2658C28.95 10.2534 28.8877 10.2467 28.8252 10.2459Z" fill="#093F68"/>
<path d="M24.3817 9.94631C24.475 9.50299 24.1335 9.05578 23.6189 8.94743C23.1043 8.83908 22.6115 9.11062 22.5181 9.55394C22.4248 9.99726 22.7663 10.4445 23.2809 10.5528C23.7955 10.6612 24.2883 10.3896 24.3817 9.94631Z" fill="#FFC9B0"/>
<path d="M23.5042 10.7555C23.4162 10.7553 23.3284 10.7462 23.2422 10.7284C22.6297 10.6001 22.2249 10.0563 22.3388 9.51423C22.4526 8.97219 23.0434 8.63973 23.6541 8.76802C24.2648 8.8963 24.6714 9.44196 24.5575 9.9822C24.4973 10.2124 24.3598 10.4148 24.168 10.5556C23.9762 10.6964 23.7418 10.767 23.5042 10.7555ZM22.6929 9.59012C22.6206 9.93522 22.9007 10.2876 23.3163 10.3743C23.7318 10.461 24.1311 10.2532 24.2034 9.90812C24.2757 9.56302 23.9974 9.20888 23.5801 9.12215C23.1627 9.03543 22.7652 9.24321 22.6929 9.59012Z" fill="#093F68"/>
<path d="M24.9298 7.58096C25.2758 7.64271 25.6305 7.63657 25.9742 7.56289C26.5072 7.41727 27.0135 7.18731 27.4738 6.88172C27.5822 7.64239 28.2092 8.20793 28.7964 8.70299C28.9229 8.8096 29.0909 8.92162 29.2373 8.84935C29.2249 9.48048 29.1425 10.1083 28.9916 10.7212C28.8201 11.4524 28.3693 12.0874 27.7357 12.4905C27.102 12.8935 26.3358 13.0326 25.6009 12.878C24.866 12.7234 24.2208 12.2873 23.8033 11.6631C23.3858 11.0388 23.2292 10.276 23.3669 9.53775L23.8277 7.34969C24.1963 7.41835 24.5685 7.51953 24.9298 7.58096Z" fill="#FFC9B0"/>
<path d="M26.1838 13.1822C25.9719 13.1819 25.7607 13.1601 25.5532 13.1172C24.7621 12.9492 24.0696 12.4747 23.6274 11.7975C23.1852 11.1203 23.0292 10.2955 23.1935 9.50356L23.6542 7.31731C23.659 7.29406 23.6683 7.27196 23.6815 7.25229C23.6948 7.23262 23.7119 7.21576 23.7317 7.20268C23.7515 7.18959 23.7736 7.18053 23.7969 7.17602C23.8202 7.17151 23.8442 7.17163 23.8675 7.17638L24.2469 7.2613C24.4818 7.3155 24.7239 7.37152 24.9588 7.40584C25.2825 7.46345 25.6143 7.45854 25.9363 7.39139C26.4499 7.2485 26.9378 7.02532 27.3817 6.73009C27.4081 6.71586 27.4376 6.70841 27.4675 6.70841C27.4975 6.70841 27.527 6.71586 27.5534 6.73009C27.5806 6.74265 27.6042 6.76177 27.6222 6.78574C27.6402 6.80971 27.6519 6.83778 27.6563 6.86741C27.7521 7.54497 28.3068 8.06353 28.9211 8.57847C29.0892 8.7194 29.1488 8.70675 29.165 8.69953C29.1923 8.68614 29.2226 8.67987 29.253 8.68128C29.2833 8.68269 29.3128 8.69174 29.3388 8.70759C29.3647 8.72345 29.3863 8.74559 29.4014 8.77197C29.4165 8.79836 29.4247 8.82813 29.4252 8.85853C29.4135 9.50362 29.3299 10.1454 29.1759 10.7719C29.0273 11.455 28.6495 12.0666 28.1051 12.5051C27.5608 12.9436 26.8828 13.1825 26.1838 13.1822ZM23.9704 7.56304L23.5476 9.56861C23.4005 10.2675 23.5371 10.9962 23.9273 11.5945C24.3174 12.1927 24.9293 12.6114 25.6282 12.7585C26.3271 12.9057 27.0558 12.7691 27.6541 12.3789C28.2523 11.9887 28.671 11.3769 28.8181 10.678C28.9459 10.1403 29.0269 9.59264 29.0602 9.04102C28.9199 9.00526 28.7908 8.93508 28.6844 8.83684C28.0936 8.33636 27.5479 7.83045 27.3546 7.16012C26.9403 7.41724 26.4895 7.61034 26.0176 7.73288C25.6521 7.81255 25.2746 7.81992 24.9064 7.75456C24.657 7.71662 24.4077 7.66061 24.1656 7.60459L23.9704 7.56304Z" fill="#093F68"/>
<path d="M26.341 10.8027C26.1677 10.7967 25.9969 10.7594 25.8369 10.6924C25.8037 10.6768 25.7747 10.6536 25.7521 10.6248C25.7295 10.5959 25.714 10.5621 25.7068 10.5262C25.6616 10.322 25.9001 9.98416 26.1079 9.72398C26.123 9.70559 26.1415 9.69035 26.1625 9.67913C26.1834 9.6679 26.2064 9.66092 26.23 9.65857C26.2537 9.65622 26.2776 9.65855 26.3003 9.66544C26.3231 9.67232 26.3443 9.68362 26.3627 9.69868C26.381 9.71375 26.3963 9.73229 26.4075 9.75325C26.4187 9.77421 26.4257 9.79717 26.4281 9.82083C26.4304 9.84448 26.4281 9.86837 26.4212 9.89113C26.4143 9.91388 26.403 9.93506 26.388 9.95345C26.2711 10.0916 26.1694 10.2418 26.0844 10.4015C26.1727 10.4232 26.2628 10.4365 26.3536 10.4413C26.4015 10.4413 26.4475 10.4603 26.4814 10.4942C26.5153 10.5281 26.5343 10.574 26.5343 10.622C26.5343 10.6699 26.5153 10.7158 26.4814 10.7497C26.4475 10.7836 26.4015 10.8027 26.3536 10.8027H26.341Z" fill="#093F68"/>
<path d="M26.1043 11.856C25.6797 11.856 25.2135 11.762 24.9533 11.4097C24.937 11.3909 24.9247 11.369 24.9172 11.3452C24.9097 11.3215 24.9072 11.2964 24.9099 11.2716C24.9126 11.2469 24.9203 11.2229 24.9327 11.2013C24.945 11.1797 24.9617 11.1609 24.9817 11.146C25.0017 11.1311 25.0245 11.1206 25.0488 11.115C25.0731 11.1093 25.0982 11.1088 25.1227 11.1134C25.1472 11.1179 25.1705 11.1275 25.1911 11.1415C25.2117 11.1555 25.2291 11.1736 25.2424 11.1947C25.5731 11.641 26.565 11.4838 26.9191 11.3862C26.9654 11.3733 27.0149 11.3792 27.0567 11.4028C27.0986 11.4263 27.1293 11.4655 27.1423 11.5118C27.1552 11.558 27.1493 11.6075 27.1257 11.6494C27.1022 11.6912 27.063 11.722 27.0167 11.7349C26.7186 11.8124 26.4122 11.853 26.1043 11.856Z" fill="#093F68"/>
<path d="M25.3291 9.33905H25.3111C25.2637 9.33403 25.2203 9.31052 25.1902 9.27365C25.16 9.23677 25.1457 9.18949 25.1503 9.1421C25.1539 9.10782 25.1508 9.07314 25.1411 9.04006C25.1314 9.00697 25.1152 8.97613 25.0936 8.94928C25.0499 8.89507 24.9864 8.86044 24.9172 8.85301C24.8479 8.84558 24.7786 8.86597 24.7244 8.90968C24.6701 8.95339 24.6355 9.01685 24.6281 9.08609C24.6231 9.13401 24.5992 9.17797 24.5617 9.2083C24.5243 9.23862 24.4764 9.25283 24.4284 9.2478C24.3805 9.24277 24.3366 9.21891 24.3062 9.18147C24.2759 9.14402 24.2617 9.09607 24.2667 9.04815C24.2879 8.88701 24.3711 8.74049 24.4987 8.63984C24.6263 8.53919 24.7882 8.49235 24.9498 8.50932C25.1115 8.52628 25.2601 8.60571 25.364 8.73066C25.4679 8.85562 25.519 9.01622 25.5062 9.17824C25.5014 9.22202 25.4807 9.26253 25.4481 9.29214C25.4155 9.32175 25.3732 9.33843 25.3291 9.33905Z" fill="#093F68"/>
<path d="M27.8912 9.82903H27.8731C27.8258 9.82401 27.7823 9.80051 27.7522 9.76363C27.7221 9.72675 27.7078 9.67948 27.7123 9.63209C27.7194 9.56262 27.6987 9.49319 27.6546 9.439C27.6106 9.38481 27.5469 9.35029 27.4775 9.343C27.4434 9.33927 27.409 9.3423 27.3761 9.35191C27.3432 9.36152 27.3126 9.37753 27.2859 9.39901C27.2313 9.44417 27.1969 9.50915 27.1902 9.57969C27.1851 9.62761 27.1613 9.67157 27.1238 9.70189C27.0864 9.73222 27.0384 9.74643 26.9905 9.7414C26.9426 9.73637 26.8986 9.71251 26.8683 9.67506C26.838 9.63762 26.8238 9.58967 26.8288 9.54175C26.8461 9.3774 26.928 9.22666 27.0564 9.12264C27.1848 9.01863 27.3492 8.96986 27.5136 8.98705C27.6779 9.00436 27.8287 9.08621 27.9327 9.21462C28.0367 9.34303 28.0855 9.50748 28.0683 9.67184C28.0626 9.71496 28.0416 9.7546 28.0091 9.78348C27.9766 9.81236 27.9347 9.82853 27.8912 9.82903Z" fill="#093F68"/>
<path d="M9.83929 4.49661C9.83929 4.49661 7.6946 6.46243 5.48667 6.10829L5.72698 0.183733L9.83929 4.49661Z" fill="#FFBC0E"/>
<path d="M6.03601 6.33244C5.84239 6.3326 5.64907 6.31749 5.45782 6.28727C5.41507 6.28034 5.37623 6.25829 5.34837 6.22513C5.32051 6.19196 5.3055 6.14989 5.30605 6.10659L5.54636 0.172995C5.54803 0.137633 5.56005 0.103541 5.58093 0.0749525C5.60181 0.0463641 5.63063 0.0245393 5.6638 0.0121883C5.69699 -0.000587104 5.7332 -0.00328693 5.76791 0.00442673C5.80263 0.0121404 5.83429 0.0299242 5.85894 0.0555516L9.96945 4.37204C9.98609 4.38929 9.99913 4.40967 10.0078 4.432C10.0165 4.45434 10.0207 4.47818 10.02 4.50213C10.019 4.52612 10.0132 4.54966 10.003 4.57137C9.99272 4.59309 9.97826 4.61255 9.96042 4.62861C9.87911 4.7045 8.07771 6.33244 6.03601 6.33244ZM5.67464 5.9512C7.40377 6.13188 9.08953 4.88337 9.57737 4.48226L5.89146 0.617472L5.67464 5.9512Z" fill="#093F68"/>
<path d="M4.83797 2.21278C4.80613 2.21291 4.77482 2.20462 4.74722 2.18876C4.71962 2.17289 4.69669 2.15002 4.68077 2.12244C4.65722 2.08096 4.65103 2.03183 4.66355 1.9858C4.67607 1.93976 4.7063 1.90055 4.74763 1.87672C5.06201 1.69603 5.26799 1.26962 5.39266 0.873931C4.99344 1.22895 4.50815 1.47315 3.98515 1.5822C3.93843 1.59243 3.88957 1.58372 3.84927 1.55798C3.80896 1.53224 3.78051 1.49157 3.77014 1.44489C3.75991 1.39817 3.76863 1.34931 3.79437 1.309C3.82011 1.2687 3.86077 1.24025 3.90746 1.22987C5.10718 0.964272 5.54805 0.145783 5.56612 0.10242C5.58496 0.064187 5.61671 0.0338469 5.65576 0.0167622C5.69481 -0.000322414 5.73864 -0.00305183 5.77951 0.00905714C5.82038 0.0211661 5.85565 0.0473338 5.87909 0.082934C5.90253 0.118534 5.91263 0.161275 5.9076 0.203601C5.9076 0.265033 5.73596 1.72494 4.9265 2.1911C4.89933 2.20578 4.86885 2.21324 4.83797 2.21278Z" fill="#093F68"/>
<path d="M25.4431 5.21757C25.4431 5.21757 27.5877 7.1852 29.7957 6.83106L29.5554 0.906505L25.4431 5.21757Z" fill="#F56132"/>
<path d="M29.2463 7.05536C27.2028 7.05536 25.4032 5.42922 25.3201 5.35153C25.3023 5.3351 25.2881 5.31528 25.2781 5.29325C25.2682 5.27121 25.2628 5.24741 25.2622 5.22324C25.2616 5.19929 25.2658 5.17545 25.2745 5.15312C25.2831 5.13078 25.2962 5.1104 25.3128 5.09316L29.4233 0.782085C29.4479 0.756581 29.4793 0.738835 29.5138 0.731049C29.5483 0.723263 29.5844 0.725778 29.6175 0.738285C29.6506 0.750791 29.6793 0.772737 29.7 0.8014C29.7207 0.830064 29.7326 0.864184 29.7341 0.899529L29.9762 6.82409C29.9768 6.86739 29.9618 6.90946 29.9339 6.94263C29.906 6.97579 29.8672 6.99784 29.8244 7.00477C29.6333 7.03667 29.44 7.05358 29.2463 7.05536ZM25.7049 5.20518C26.1946 5.60448 27.8731 6.86384 29.6076 6.67412L29.3908 1.34039L25.7049 5.20518Z" fill="#093F68"/>
<path d="M30.4442 2.93563C30.4125 2.93584 30.3814 2.92775 30.3538 2.91214C29.5462 2.44779 29.3818 0.987876 29.3745 0.924637C29.3695 0.88231 29.3796 0.839569 29.403 0.803969C29.4265 0.768369 29.4618 0.742202 29.5026 0.730093C29.5435 0.717984 29.5873 0.720713 29.6264 0.737797C29.6654 0.754882 29.6972 0.785222 29.716 0.823455C29.7341 0.857784 30.175 1.68531 31.3747 1.9491C31.3984 1.95432 31.4209 1.96417 31.4408 1.97807C31.4607 1.99197 31.4777 2.00966 31.4908 2.03013C31.5039 2.0506 31.5128 2.07345 31.5171 2.09737C31.5213 2.12128 31.5208 2.14581 31.5156 2.16954C31.5104 2.19326 31.5005 2.21573 31.4866 2.23565C31.4727 2.25558 31.4551 2.27257 31.4346 2.28565C31.4141 2.29874 31.3913 2.30767 31.3673 2.31192C31.3434 2.31618 31.3189 2.31569 31.2952 2.31047C30.7721 2.20174 30.2867 1.9575 29.8877 1.60219C30.0051 1.98524 30.2057 2.41707 30.5345 2.60498C30.5693 2.6247 30.5966 2.65542 30.6121 2.69232C30.6275 2.72921 30.6303 2.7702 30.62 2.80885C30.6096 2.8475 30.5868 2.88162 30.555 2.90588C30.5231 2.93013 30.4842 2.94313 30.4442 2.94285V2.93563Z" fill="#093F68"/>
<path d="M31.335 32.7245H2.62466C2.57674 32.7245 2.53078 32.7054 2.4969 32.6716C2.46301 32.6377 2.44398 32.5917 2.44398 32.5438C2.44398 32.4959 2.46301 32.4499 2.4969 32.416C2.53078 32.3821 2.57674 32.3631 2.62466 32.3631H31.335C31.3829 32.3631 31.4289 32.3821 31.4628 32.416C31.4966 32.4499 31.5157 32.4959 31.5157 32.5438C31.5157 32.5917 31.4966 32.6377 31.4628 32.6716C31.4289 32.7054 31.3829 32.7245 31.335 32.7245Z" fill="#093F68"/>
<path d="M23.7193 14.3383C23.7193 14.3383 22.9694 14.7358 22.9694 15.5724C22.971 15.8165 23.0336 16.0563 23.1517 16.27C23.2697 16.4837 23.4394 16.6644 23.6452 16.7956" fill="#68E1FD"/>
<path d="M23.6434 16.9763C23.6124 16.9763 23.5819 16.9682 23.5549 16.9529C23.3205 16.8068 23.1271 16.6034 22.9931 16.3619C22.859 16.1203 22.7887 15.8487 22.7888 15.5724C22.7888 14.6383 23.6001 14.1975 23.6344 14.1794C23.6554 14.1663 23.6789 14.1576 23.7034 14.1539C23.7279 14.1502 23.7528 14.1516 23.7768 14.158C23.8007 14.1644 23.8231 14.1756 23.8425 14.191C23.8619 14.2064 23.8779 14.2256 23.8896 14.2474C23.9013 14.2693 23.9083 14.2933 23.9103 14.318C23.9123 14.3427 23.9092 14.3675 23.9012 14.391C23.8932 14.4144 23.8805 14.4359 23.8638 14.4543C23.8471 14.4726 23.8268 14.4872 23.8042 14.4974C23.6128 14.6062 23.4523 14.7621 23.3379 14.9502C23.2234 15.1383 23.1588 15.3524 23.1502 15.5724C23.1517 15.7845 23.2059 15.9929 23.3077 16.179C23.4096 16.365 23.5559 16.5229 23.7338 16.6385C23.7686 16.6582 23.7958 16.6889 23.8113 16.7258C23.8268 16.7627 23.8296 16.8037 23.8192 16.8423C23.8089 16.881 23.786 16.9151 23.7542 16.9394C23.7224 16.9636 23.6834 16.9766 23.6434 16.9763Z" fill="#093F68"/>
<path d="M27.64 14.3383C27.64 14.3383 28.3899 14.7358 28.3899 15.5724C28.3883 15.8165 28.3257 16.0563 28.2076 16.27C28.0896 16.4837 27.9199 16.6644 27.7141 16.7956" fill="#68E1FD"/>
<path d="M27.716 16.9764C27.676 16.9767 27.6371 16.9637 27.6052 16.9394C27.5734 16.9152 27.5506 16.8811 27.5402 16.8424C27.5299 16.8038 27.5327 16.7628 27.5481 16.7259C27.5636 16.689 27.5909 16.6583 27.6257 16.6385C27.804 16.5234 27.9507 16.3656 28.0526 16.1795C28.1545 15.9934 28.2084 15.7847 28.2093 15.5725C28.2003 15.3528 28.1356 15.139 28.0211 14.9513C27.9067 14.7635 27.7464 14.608 27.5552 14.4993C27.5336 14.4886 27.5144 14.4737 27.4987 14.4554C27.483 14.4372 27.471 14.416 27.4636 14.3931C27.4562 14.3702 27.4534 14.346 27.4555 14.322C27.4575 14.298 27.4643 14.2747 27.4755 14.2534C27.4867 14.232 27.5021 14.2132 27.5207 14.1979C27.5393 14.1826 27.5608 14.1711 27.5838 14.1643C27.6069 14.1574 27.6311 14.1552 27.6551 14.1578C27.679 14.1604 27.7022 14.1678 27.7233 14.1795C27.7594 14.1975 28.5707 14.6384 28.5707 15.5725C28.5707 15.8487 28.5004 16.1204 28.3664 16.3619C28.2323 16.6034 28.039 16.8068 27.8046 16.9529C27.7776 16.9682 27.7471 16.9763 27.716 16.9764Z" fill="#093F68"/>
</svg>
