<svg width="34" height="34" viewBox="0 0 34 34" fill="none" xmlns="http://www.w3.org/2000/svg">
<path d="M30.2003 3.77652C26.6873 0.263528 18.5848 -2.96616 10.8788 4.6831C5.77932 9.72595 3.96616 16.1287 10.8788 23.0413C17.7915 29.8973 24.1942 28.0842 29.2937 23.0413C36.9997 15.3354 33.7133 7.28952 30.2003 3.77652Z" fill="#ED4C5C"/>
<path d="M16.3184 26.7807L7.13927 17.6016C7.13927 17.6016 9.06576 22.0779 5.7794 25.4209C5.7794 25.4209 3.003 28.1973 0.056621 30.747C0.396588 31.427 0.283266 31.4836 1.47315 32.7302C2.49305 33.7501 2.54971 33.6367 3.11633 33.9767C5.66608 30.9737 8.49914 28.1406 8.49914 28.1406C11.8422 24.8543 16.3184 26.7807 16.3184 26.7807Z" fill="#FED0AC"/>
<path opacity="0.5" d="M3.17303 33.8637C5.04285 31.7106 7.08265 29.6141 7.98923 28.7076L12.9188 23.3814L10.539 21.0016L5.21283 25.9312C4.24959 26.8377 2.15313 28.8775 0 30.7474C0.339967 31.4273 0.226645 31.484 1.41653 32.7305C2.43643 33.7504 2.49309 33.6371 3.05971 33.977L3.17303 33.8637Z" fill="#D3976E"/>
<path d="M2.20981 33.467C2.54978 33.7504 2.71976 33.807 3.05973 33.977C3.11639 33.9203 3.11639 33.9203 3.17305 33.9203C5.04287 31.7672 7.08267 29.6707 7.98925 28.7642L12.9188 23.438L11.5589 24.2313L2.20981 33.467Z" fill="#D3976E"/>
<path d="M16.3184 26.7807L12.9187 23.3811L8.32913 28.3106C9.23571 27.404 12.0121 25.3075 16.3184 26.7807ZM7.13925 17.6016L10.5389 21.0013L5.60939 25.5908C6.51597 24.6276 8.61244 21.9079 7.13925 17.6016Z" fill="#3E4347"/>
<path d="M29.5203 33.9771C31.9925 33.9771 33.9966 31.973 33.9966 29.5008C33.9966 27.0287 31.9925 25.0246 29.5203 25.0246C27.0482 25.0246 25.0441 27.0287 25.0441 29.5008C25.0441 31.973 27.0482 33.9771 29.5203 33.9771Z" fill="#FF8736"/>
<path d="M32.6368 27.8012C32.4101 28.2545 31.5035 28.2545 30.6536 27.8012C29.8037 27.3479 29.2371 26.6113 29.4637 26.2147C29.6904 25.7614 30.597 25.7614 31.4469 26.2147C32.3535 26.668 32.8634 27.3479 32.6368 27.8012Z" fill="#FF8736"/>
</svg>
