<svg width="33" height="33" viewBox="0 0 33 33" fill="none" xmlns="http://www.w3.org/2000/svg">
<path d="M30.7188 16.4696C30.8286 16.3598 30.8835 16.25 30.9933 16.1402C33.1343 13.0659 33.5735 10.2661 32.2559 8.17991C31.0481 6.25846 28.413 5.16048 24.8995 5.16048C24.2956 5.16048 23.6368 5.21538 22.978 5.27028C21.386 2.03125 19.0802 0 16.5 0C13.9197 0 11.614 2.03125 10.0219 5.27028C9.36315 5.21538 8.70437 5.16048 8.10048 5.16048C4.58696 5.16048 1.95183 6.20356 0.744054 8.17991C-0.573516 10.2661 -0.134326 13.1208 2.00672 16.1402C2.11652 16.25 2.22632 16.3598 2.28122 16.4696C2.17142 16.5794 2.11652 16.6892 2.00672 16.799C-0.0794272 19.8733 -0.518617 22.7281 0.798952 24.8142C2.00672 26.7357 4.64186 27.8337 8.15538 27.8337C8.75927 27.8337 9.41805 27.7788 10.0768 27.7239C11.614 30.908 13.9197 32.9392 16.5 32.9392C19.0802 32.9392 21.386 30.908 22.978 27.669C23.6368 27.7239 24.2956 27.7788 24.8995 27.7788C28.413 27.7788 31.0481 26.7357 32.2559 24.7593C33.5735 22.6732 33.1343 19.8184 30.9933 16.799C30.8835 16.6892 30.7737 16.5794 30.7188 16.4696ZM24.8446 6.09376C27.9738 6.09376 30.2796 6.97214 31.3226 8.6191C32.4206 10.3759 31.9814 12.8463 30.06 15.5912L30.0051 15.6461C28.6326 13.9992 26.8209 12.3522 24.6799 10.9248C24.3505 9.16809 23.9113 7.57603 23.3074 6.14866C23.8564 6.09376 24.4054 6.09376 24.8446 6.09376ZM20.7821 23.2771C19.3547 24.0456 17.9274 24.6495 16.5 25.1985C15.0726 24.6495 13.5904 24.0456 12.2179 23.2771C11.1748 22.7281 10.1866 22.1242 9.19846 21.4654C8.92396 19.8733 8.75927 18.1715 8.75927 16.4147C8.75927 14.658 8.92396 12.9561 9.19846 11.364C10.1317 10.7053 11.1199 10.1563 12.2179 9.55238C13.6453 8.7838 15.0726 8.17991 16.5 7.63092C17.9274 8.17991 19.4096 8.7838 20.7821 9.55238C21.8252 10.1014 22.8133 10.7053 23.8015 11.364C24.076 12.9561 24.2407 14.658 24.2407 16.4147C24.2407 18.1715 24.076 19.8733 23.8015 21.4654C22.8682 22.1242 21.8252 22.7281 20.7821 23.2771ZM23.527 22.8379C23.1976 24.2103 22.8133 25.5279 22.2644 26.6808C20.837 26.5161 19.4096 26.1867 17.9274 25.6926C19.0802 25.2534 20.1782 24.7044 21.2762 24.1554C22.0997 23.7163 22.8133 23.2771 23.527 22.8379ZM15.0726 25.6926C13.5904 26.1318 12.1081 26.4612 10.7356 26.6808C10.2415 25.5279 9.80234 24.2652 9.47295 22.8379C10.1866 23.2771 10.9003 23.7163 11.6689 24.1005C12.8218 24.7044 13.9197 25.1985 15.0726 25.6926ZM8.04558 20.6968C6.28883 19.3793 4.75166 17.9519 3.59879 16.4696C4.75166 14.9874 6.28883 13.56 8.04558 12.2424C7.88089 13.56 7.77109 14.9874 7.77109 16.4696C7.77109 17.9519 7.82599 19.3244 8.04558 20.6968ZM9.47295 10.1014C9.80234 8.7289 10.1866 7.41133 10.7356 6.25846C12.163 6.42315 13.5904 6.75254 15.0726 7.24663C13.9197 7.68582 12.8218 8.23481 11.7238 8.8387C10.9003 9.22299 10.1866 9.66218 9.47295 10.1014ZM17.9274 7.24663C19.4096 6.80744 20.8919 6.47805 22.2644 6.25846C22.7584 7.41133 23.1976 8.674 23.527 10.1014C22.8133 9.66218 22.0997 9.22299 21.3311 8.8387C20.1782 8.23481 19.0802 7.74072 17.9274 7.24663ZM24.9544 12.2424C26.7112 13.56 28.2483 14.9874 29.4012 16.4696C28.2483 17.9519 26.7112 19.3793 24.9544 20.6968C25.1191 19.3793 25.2289 17.9519 25.2289 16.4696C25.2289 14.9874 25.174 13.6149 24.9544 12.2424ZM16.5 1.04308C18.5861 1.04308 20.4527 2.69004 21.8801 5.38008C20.1782 5.65457 18.3665 6.09376 16.5 6.75254C14.6883 6.09376 12.8767 5.65457 11.1199 5.38008C12.5473 2.69004 14.4138 1.04308 16.5 1.04308ZM2.8851 15.5912C0.963648 12.8463 0.524459 10.3759 1.62243 8.6191C2.66551 6.97214 4.97126 6.09376 8.10048 6.09376C8.59457 6.09376 9.08866 6.09376 9.58275 6.14866C8.97886 7.57603 8.53967 9.16809 8.21028 10.9248C6.12413 12.3522 4.31247 13.9992 2.8851 15.5912ZM8.15538 26.8455C5.02615 26.8455 2.72041 25.9671 1.67733 24.3201C0.579357 22.5634 1.01855 20.0929 2.94 17.348C2.94 17.348 2.94 17.2931 2.9949 17.2931C4.36737 18.9401 6.17903 20.587 8.32008 22.0144C8.64947 23.7712 9.08866 25.3632 9.69255 26.7906C9.14356 26.8455 8.64947 26.8455 8.15538 26.8455ZM16.5 31.8962C14.4138 31.8962 12.5473 30.2492 11.1199 27.5592C12.8218 27.2847 14.6334 26.8455 16.5 26.1867C18.3116 26.8455 20.1233 27.2847 21.8801 27.5592C20.4527 30.2492 18.5861 31.8962 16.5 31.8962ZM31.3226 24.3201C30.2796 25.9671 27.9738 26.8455 24.8446 26.8455C24.3505 26.8455 23.8564 26.8455 23.3623 26.7906C23.9662 25.3632 24.4054 23.7712 24.7348 22.0144C26.8209 20.587 28.6326 18.9401 30.06 17.2931C30.06 17.2931 30.06 17.348 30.1149 17.348C32.0363 20.0929 32.4755 22.5634 31.3226 24.3201Z" fill="#0071BC"/>
<path d="M16.5001 19.5439C18.198 19.5439 19.5745 18.1674 19.5745 16.4695C19.5745 14.7716 18.198 13.3952 16.5001 13.3952C14.8022 13.3952 13.4258 14.7716 13.4258 16.4695C13.4258 18.1674 14.8022 19.5439 16.5001 19.5439Z" fill="#ED4C5C"/>
</svg>
