<svg width="34" height="37" viewBox="0 0 34 37" fill="none" xmlns="http://www.w3.org/2000/svg">
<path d="M11.3334 20.2807H8.94745C7.95915 20.2807 7.15797 21.0819 7.15797 22.0702V32.2106C7.15797 33.1989 7.95915 34 8.94745 34H11.3334C12.3217 34 13.1229 33.1989 13.1229 32.2106V22.0702C13.1229 21.0819 12.3217 20.2807 11.3334 20.2807Z" fill="#4796E7"/>
<path d="M19.0877 16.1051H16.7017C15.7134 16.1051 14.9122 16.9063 14.9122 17.8946V32.2104C14.9122 33.1987 15.7134 33.9999 16.7017 33.9999H19.0877C20.076 33.9999 20.8772 33.1987 20.8772 32.2104V17.8946C20.8772 16.9063 20.076 16.1051 19.0877 16.1051Z" fill="#22BA8E"/>
<path d="M26.842 11.9298H24.456C23.4677 11.9298 22.6665 12.731 22.6665 13.7193V32.2105C22.6665 33.1988 23.4677 34 24.456 34H26.842C27.8303 34 28.6314 33.1988 28.6314 32.2105V13.7193C28.6314 12.731 27.8303 11.9298 26.842 11.9298Z" fill="#FFAF40"/>
<path d="M4.4656 17.4499C4.4656 17.4499 16.0839 14.2375 22.4029 6.41774" stroke="#E43535" stroke-width="1.19083" stroke-linecap="round"/>
<path fill-rule="evenodd" clip-rule="evenodd" d="M26.2582 2.53079L24.1493 9.70112L19.0879 4.63971L26.2582 2.53079Z" fill="#E43535"/>
<path fill-rule="evenodd" clip-rule="evenodd" d="M0 35.1926H34.0001V36.9821H0V35.1926Z" fill="#D8D8D8"/>
</svg>
