<svg width="34" height="49" viewBox="0 0 34 49" fill="none" xmlns="http://www.w3.org/2000/svg">
<path d="M12 15.35C13.74 15.35 15.15 16.76 15.15 18.5C15.15 20.24 13.74 21.65 12 21.65C10.26 21.65 8.85 20.24 8.85 18.5C8.85 16.76 10.26 15.35 12 15.35ZM12 28.85C16.455 28.85 21.15 31.04 21.15 32V33.65H2.85V32C2.85 31.04 7.545 28.85 12 28.85ZM12 12.5C8.685 12.5 6 15.185 6 18.5C6 21.815 8.685 24.5 12 24.5C15.315 24.5 18 21.815 18 18.5C18 15.185 15.315 12.5 12 12.5ZM12 26C7.995 26 0 28.01 0 32V36.5H24V32C24 28.01 16.005 26 12 26Z" fill="#434343"/>
<line x1="33.5" x2="33.5" y2="49" stroke="#9B9B9B"/>
</svg>
