<svg width="34" height="34" viewBox="0 0 34 34" fill="none" xmlns="http://www.w3.org/2000/svg">
<path d="M7.28573 20.0359V27.3216H2.42858V20.0359H0V33.3931H9.71431V20.0359H7.28573Z" fill="#FAB400"/>
<path d="M4.85704 15.1789L2.42847 21.2503H7.28562L4.85704 15.1789Z" fill="#C80A50"/>
<path d="M4.85702 16.3932C5.19234 16.3932 5.46417 16.1213 5.46417 15.786C5.46417 15.4507 5.19234 15.1789 4.85702 15.1789C4.52171 15.1789 4.24988 15.4507 4.24988 15.786C4.24988 16.1213 4.52171 16.3932 4.85702 16.3932Z" fill="#00A0C8"/>
<path d="M29.1429 15.1789L26.7144 21.2503H31.5715L29.1429 15.1789Z" fill="#0A5078"/>
<path d="M29.1429 16.3932C29.4782 16.3932 29.7501 16.1213 29.7501 15.786C29.7501 15.4507 29.4782 15.1789 29.1429 15.1789C28.8076 15.1789 28.5358 15.4507 28.5358 15.786C28.5358 16.1213 28.8076 16.3932 29.1429 16.3932Z" fill="#00A0C8"/>
<path d="M17.0001 15.1789L14.5715 21.2503H19.4287L17.0001 15.1789Z" fill="#00A0C8"/>
<path d="M17.6072 18.8214H16.3929C14.7166 18.8214 13.3572 20.1808 13.3572 21.8572V27.9286C13.3572 28.2637 13.6292 28.5357 13.9643 28.5357H20.0358C20.3709 28.5357 20.6429 28.2637 20.6429 27.9286V21.8572C20.6429 20.1808 19.2835 18.8214 17.6072 18.8214Z" fill="#0A5078"/>
<path d="M19.4286 20.0359V27.3216H14.5714C13.2302 27.3216 12.1428 28.409 12.1428 29.7502V33.3931H21.8571V20.0359H19.4286Z" fill="#C80A50"/>
<path d="M15.7856 27.3215H18.2142V33.393H15.7856V27.3215Z" fill="#00A0C8"/>
<path d="M16.9999 28.5358C16.329 28.5358 15.7856 27.9924 15.7856 27.3216V25.5001H18.2142V27.3216C18.2142 27.9924 17.6708 28.5358 16.9999 28.5358Z" fill="#D2AA82"/>
<path d="M17.6073 26.1075H16.393C15.3869 26.1075 14.5715 25.2921 14.5715 24.2861V22.4646C14.5715 21.7937 15.1149 21.2503 15.7858 21.2503H16.393C16.393 21.9212 16.9364 22.4646 17.6073 22.4646H19.4287V24.2861C19.4287 25.2921 18.6133 26.1075 17.6073 26.1075Z" fill="#F0C8A0"/>
<path d="M4.24988 27.3215H5.46417V33.393H4.24988V27.3215Z" fill="#00A0C8"/>
<path d="M4.85711 28.5358C4.18622 28.5358 3.64282 27.9924 3.64282 27.3216V25.5001H6.0714V27.3216C6.0714 27.9924 5.528 28.5358 4.85711 28.5358Z" fill="#D2AA82"/>
<path d="M5.46419 26.1075H4.2499C3.24386 26.1075 2.42847 25.2921 2.42847 24.2861V22.4646C2.42847 21.7937 2.97186 21.2503 3.64275 21.2503H6.07133C6.74223 21.2503 7.28562 21.7937 7.28562 22.4646V24.2861C7.28562 25.2921 6.47023 26.1075 5.46419 26.1075Z" fill="#F0C8A0"/>
<path d="M6.07133 21.2502H3.64275C2.97186 21.2502 2.42847 21.7936 2.42847 22.4645V21.2502C2.42847 20.5793 2.97186 20.0359 3.64275 20.0359H6.07133C6.74223 20.0359 7.28562 20.5793 7.28562 21.2502V22.4645C7.28562 21.7936 6.74223 21.2502 6.07133 21.2502Z" fill="#0A5078"/>
<path d="M2.42858 18.2145V17.6074C2.42858 16.9365 1.88518 16.3931 1.21429 16.3931C0.543394 16.3931 0 16.9365 0 17.6074V20.0359H2.42858V19.4288C2.76372 19.4288 3.03572 19.1568 3.03572 18.8216C3.03572 18.4865 2.76372 18.2145 2.42858 18.2145Z" fill="#F0C8A0"/>
<path d="M8.50002 16.3932C7.82913 16.3932 7.28573 16.9366 7.28573 17.6075V18.2146C6.95059 18.2146 6.67859 18.4866 6.67859 18.8218C6.67859 19.1569 6.95059 19.4289 7.28573 19.4289V20.0361H9.71431V17.6075C9.71431 16.9366 9.17092 16.3932 8.50002 16.3932Z" fill="#F0C8A0"/>
<path d="M20.6428 16.3932C19.9719 16.3932 19.4286 16.9366 19.4286 17.6075V18.2146C19.0934 18.2146 18.8214 18.4866 18.8214 18.8218C18.8214 19.1569 19.0934 19.4289 19.4286 19.4289V20.0361H21.8571V17.6075C21.8571 16.9366 21.3137 16.3932 20.6428 16.3932Z" fill="#F0C8A0"/>
<path d="M32.1785 27.3216H26.7142V20.0359H24.2856V33.3931H34V29.1431C34 28.137 33.1846 27.3216 32.1785 27.3216Z" fill="#00A0C8"/>
<path d="M28.5358 27.3215H29.7501V33.393H28.5358V27.3215Z" fill="#0A5078"/>
<path d="M29.143 28.5358C28.4721 28.5358 27.9287 27.9924 27.9287 27.3216V25.5001H30.3573V27.3216C30.3573 27.9924 29.8139 28.5358 29.143 28.5358Z" fill="#D2AA82"/>
<path d="M29.7501 26.1075H28.5358C27.5298 26.1075 26.7144 25.2921 26.7144 24.2861V22.4646C26.7144 21.7937 27.2577 21.2503 27.9286 21.2503H30.3572C31.0281 21.2503 31.5715 21.7937 31.5715 22.4646V24.2861C31.5715 25.2921 30.7561 26.1075 29.7501 26.1075Z" fill="#F0C8A0"/>
<path d="M30.3572 21.2502H27.9286C27.2577 21.2502 26.7144 21.7936 26.7144 22.4645V21.2502C26.7144 20.5793 27.2577 20.0359 27.9286 20.0359H30.3572C31.0281 20.0359 31.5715 20.5793 31.5715 21.2502V22.4645C31.5715 21.7936 31.0281 21.2502 30.3572 21.2502Z" fill="#DC9600"/>
<path d="M26.7142 18.2145V17.6074C26.7142 16.9365 26.1708 16.3931 25.4999 16.3931C24.829 16.3931 24.2856 16.9365 24.2856 17.6074V20.0359H26.7142V19.4288C27.0494 19.4288 27.3214 19.1568 27.3214 18.8216C27.3214 18.4865 27.0494 18.2145 26.7142 18.2145Z" fill="#F0C8A0"/>
<path d="M5.08976 12.5048L1.21436 11.5358L4.85722 7.89294L5.82622 11.7683C5.93733 12.2128 5.53419 12.6159 5.08976 12.5048Z" fill="#C80A50"/>
<path d="M8.73258 8.86223L4.85718 7.89323L8.50004 4.25037L9.46905 8.12577C9.58015 8.5702 9.17701 8.97334 8.73258 8.86223Z" fill="#FAB400"/>
<path d="M12.3754 5.21917L8.5 4.25016L12.1429 0.6073L13.1119 4.4827C13.223 4.92713 12.8198 5.33027 12.3754 5.21917Z" fill="#C80A50"/>
<path d="M1.21435 12.1431C1.05892 12.1431 0.903494 12.0836 0.785101 11.9652C0.547707 11.7278 0.547707 11.3441 0.785101 11.1067L11.7137 0.178106C11.9511 -0.0592872 12.3348 -0.0592872 12.5722 0.178106C12.8096 0.4155 12.8096 0.799214 12.5722 1.03661L1.6436 11.9652C1.52521 12.0836 1.36978 12.1431 1.21435 12.1431Z" fill="#00A0C8"/>
<path d="M28.9103 12.5048L32.7857 11.5358L29.1428 7.89294L28.1738 11.7683C28.0627 12.2128 28.4659 12.6159 28.9103 12.5048Z" fill="#FAB400"/>
<path d="M25.2675 8.86223L29.1429 7.89323L25.5 4.25037L24.531 8.12577C24.4199 8.5702 24.8231 8.97334 25.2675 8.86223Z" fill="#C80A50"/>
<path d="M21.6247 5.21917L25.5001 4.25016L21.8572 0.6073L20.8882 4.4827C20.7771 4.92713 21.1802 5.33027 21.6247 5.21917Z" fill="#FAB400"/>
<path d="M32.7858 12.1431C32.6303 12.1431 32.4749 12.0836 32.3565 11.9652L21.4279 1.03661C21.1905 0.799214 21.1905 0.4155 21.4279 0.178106C21.6653 -0.0592872 22.049 -0.0592872 22.2864 0.178106L33.215 11.1067C33.4524 11.3441 33.4524 11.7278 33.215 11.9652C33.0966 12.0836 32.9412 12.1431 32.7858 12.1431Z" fill="#00A0C8"/>
<path d="M17.0001 16.3932C17.3354 16.3932 17.6072 16.1213 17.6072 15.786C17.6072 15.4507 17.3354 15.1789 17.0001 15.1789C16.6648 15.1789 16.3929 15.4507 16.3929 15.786C16.3929 16.1213 16.6648 16.3932 17.0001 16.3932Z" fill="#C80A50"/>
<path d="M15.7858 9.1071C16.4565 9.1071 17.0001 8.56345 17.0001 7.89282C17.0001 7.22218 16.4565 6.67853 15.7858 6.67853C15.1152 6.67853 14.5715 7.22218 14.5715 7.89282C14.5715 8.56345 15.1152 9.1071 15.7858 9.1071Z" fill="#C80A50"/>
<path d="M22.4643 11.5354C22.7996 11.5354 23.0715 11.2636 23.0715 10.9282C23.0715 10.5929 22.7996 10.3211 22.4643 10.3211C22.129 10.3211 21.8572 10.5929 21.8572 10.9282C21.8572 11.2636 22.129 11.5354 22.4643 11.5354Z" fill="#FAB400"/>
<path d="M12.75 16.3932C13.0853 16.3932 13.3571 16.1213 13.3571 15.786C13.3571 15.4507 13.0853 15.1789 12.75 15.1789C12.4146 15.1789 12.1428 15.4507 12.1428 15.786C12.1428 16.1213 12.4146 16.3932 12.75 16.3932Z" fill="#00A0C8"/>
</svg>
