<svg width="33" height="34" viewBox="0 0 33 34" fill="none" xmlns="http://www.w3.org/2000/svg">
<path d="M6.28867 25.0411C2.83273 24.7578 0 20.3954 0 20.3954C0 25.7776 4.75899 27.7605 6.91187 27.024C8.83812 26.4008 6.28867 25.0411 6.28867 25.0411Z" fill="#947151"/>
<path d="M21.699 30.5937C22.6621 31.7268 27.0812 30.5937 27.8177 29.2907C30.7071 23.9085 27.8177 20.4526 27.8177 20.4526L21.699 22.3222C21.699 22.3788 20.4526 29.1774 21.699 30.5937Z" fill="#EABC92"/>
<path d="M17.5627 33.086C18.6392 34.3324 22.5483 34.2758 23.6814 33.086C25.3811 31.3864 25.2678 23.6247 25.3811 19.8855L18.1859 19.2623C18.1859 19.2623 16.203 31.443 17.5627 33.086Z" fill="#F5D1AC"/>
<path d="M13.4271 30.5937C12.4639 31.7268 8.04487 30.5937 7.30836 29.2907C4.41897 23.9085 7.30836 20.4526 7.30836 20.4526L13.4271 22.3222C13.4271 22.3788 14.7301 29.1774 13.4271 30.5937Z" fill="#EABC92"/>
<path d="M17.6194 33.086C16.5429 34.3324 12.6338 34.2758 11.5007 33.086C9.80102 31.3864 9.91433 23.6247 9.80102 19.8855L16.9962 19.2623C16.9962 19.2623 18.9791 31.443 17.6194 33.086Z" fill="#F5D1AC"/>
<path d="M17.5629 33.143C17.3929 31.9533 17.3362 30.7635 17.3362 29.5738C17.3362 28.384 17.3929 27.1943 17.5629 26.0045C17.7328 27.1943 17.7895 28.384 17.7895 29.5738C17.7895 30.7635 17.7328 31.9533 17.5629 33.143Z" fill="#423223"/>
<path d="M17.563 25.2111C11.7843 25.2111 8.83823 22.9449 8.83823 22.9449C8.83823 22.9449 10.7645 28.1005 17.563 28.1005C24.3616 28.1005 26.2879 22.9449 26.2879 22.9449C26.2879 22.9449 23.3418 25.2111 17.563 25.2111Z" fill="#3E4347"/>
<path d="M15.9198 26.6277C15.9198 25.8345 16.2598 25.2113 16.6563 25.1547C16.543 25.0414 16.3731 24.9847 16.2598 24.9847C15.7499 24.9847 15.3533 25.7212 15.3533 26.6277C15.3533 27.5342 15.7499 28.2707 16.2598 28.2707C16.4297 28.2707 16.543 28.1574 16.6563 28.0441C16.2598 28.0441 15.9198 27.4209 15.9198 26.6277Z" fill="white"/>
<path d="M9.34802 23.2285C5.89209 21.0756 4.53238 12.6341 5.66547 8.83822C6.51529 6.00549 9.6313 1.81304 12.464 0.679949C14.8435 -0.226525 20.339 -0.226525 22.7185 0.679949C25.5512 1.75639 28.7239 5.94883 29.5171 8.83822C30.6502 12.6907 29.8003 21.0756 26.3444 23.2285C19.0926 27.7609 16.5998 27.7609 9.34802 23.2285Z" fill="#F5D1AC"/>
<path d="M3.90914 9.68828C5.72209 13.5974 6.17533 13.7674 7.93162 9.12173C8.8381 6.62893 8.2149 5.15591 9.29133 3.56958C9.91454 2.6631 11.2742 1.24673 11.2742 1.24673C11.2742 1.24673 0.396555 2.32317 3.90914 9.68828Z" fill="#423223"/>
<path d="M8.4981 1.07644C5.77868 2.77608 -0.0567495 2.09623 3.39918 9.46133C5.21213 13.3705 5.66537 13.5405 7.42166 8.89479C8.32814 6.40198 7.70494 4.92896 8.78138 3.34263C9.40458 2.43616 11.2742 1.24641 11.2742 1.24641C11.2742 1.24641 10.4244 -0.113303 8.4981 1.07644Z" fill="#947151"/>
<path d="M31.2733 9.68828C29.4603 13.5974 29.0071 13.7674 27.2508 9.12173C26.3443 6.62893 26.9675 5.15591 25.8911 3.56958C25.2679 2.6631 23.9082 1.24673 23.9082 1.24673C23.9082 1.24673 34.7859 2.32317 31.2733 9.68828Z" fill="#423223"/>
<path d="M26.6845 1.07644C29.4039 2.77608 35.296 2.09623 31.84 9.46133C30.0271 13.3705 29.5739 13.5405 27.8176 8.89479C26.9111 6.40198 27.5343 4.92896 26.4578 3.34263C25.8346 2.43616 23.965 1.24641 23.965 1.24641C23.965 1.24641 24.7582 -0.113303 26.6845 1.07644Z" fill="#947151"/>
<path d="M10.3112 9.74475C12.0109 9.74475 13.3706 11.0478 13.3706 12.6908C13.3706 14.3338 12.0109 15.6368 10.3112 15.6368C8.61158 15.6368 7.25187 14.3338 7.25187 12.6908C7.25187 11.0478 8.66824 9.74475 10.3112 9.74475Z" fill="white"/>
<path d="M9.57493 14.9003C10.8265 14.9003 11.8411 13.9111 11.8411 12.6908C11.8411 11.4705 10.8265 10.4813 9.57493 10.4813C8.32335 10.4813 7.30874 11.4705 7.30874 12.6908C7.30874 13.9111 8.32335 14.9003 9.57493 14.9003Z" fill="#3E4347"/>
<path d="M27.8738 12.6908C27.8738 14.3338 26.5141 15.6368 24.8145 15.6368C23.1148 15.6368 21.7551 14.3338 21.7551 12.6908C21.7551 11.0478 23.1148 9.74475 24.8145 9.74475C26.5141 9.74475 27.8738 11.0478 27.8738 12.6908Z" fill="white"/>
<path d="M25.6077 14.9003C26.8592 14.9003 27.8738 13.9111 27.8738 12.6908C27.8738 11.4705 26.8592 10.4813 25.6077 10.4813C24.3561 10.4813 23.3415 11.4705 23.3415 12.6908C23.3415 13.9111 24.3561 14.9003 25.6077 14.9003Z" fill="#3E4347"/>
<path d="M12.3507 21.5856L14.7302 23.9651C16.1465 25.3815 19.0926 25.3815 20.5089 23.9651L22.8884 21.5856L20.3956 19.1495H14.7868L12.3507 21.5856Z" fill="#7D644B"/>
<path d="M17.563 17.053C17.563 17.053 15.0702 20.509 15.4101 22.1519C15.8067 24.5314 19.3759 24.5314 19.7725 22.1519C20.0558 20.509 17.563 17.053 17.563 17.053Z" fill="#F15A61"/>
<path d="M17.5628 23.0587L18.1293 19.716H17.0529L17.5628 23.0587Z" fill="#BA454B"/>
<path d="M15.0136 18.0164H20.1125V20.2826H15.0136V18.0164Z" fill="#423223"/>
<path d="M25.6646 18.5258L22.0387 14.8433C19.8291 12.6337 15.3534 12.6337 13.2005 14.8433L9.57464 18.5258C8.55485 19.5456 8.55485 21.2452 9.57464 22.3217C10.5944 23.3415 12.2941 23.3415 13.3138 22.3217L16.9397 18.6391C17.2797 18.2992 17.9595 18.2992 18.2995 18.6391L21.9253 22.3217C22.9451 23.3415 24.6448 23.3415 25.6646 22.3217C26.6843 21.3019 26.6843 19.6022 25.6646 18.5258Z" fill="#947151"/>
<path d="M14.5602 15.1265C14.5602 13.8234 15.9199 13.5968 17.5629 13.5968C19.2059 13.5968 20.5656 13.8234 20.5656 15.1265C20.5656 16.1462 18.1861 17.0527 17.5629 17.0527C16.9964 17.0527 14.5602 16.1462 14.5602 15.1265ZM13.6537 16.2596L13.1438 16.7694L13.6537 17.2793L14.1636 16.7694L13.6537 16.2596ZM12.464 17.6193L11.9541 18.1292L12.464 18.6391L12.9739 18.1292L12.464 17.6193ZM14.0503 18.1292L13.5404 18.6391L14.0503 19.1489L14.5602 18.6391L14.0503 18.1292ZM21.5287 16.2596L22.0386 16.7694L21.5287 17.2793L21.0188 16.7694L21.5287 16.2596ZM22.7185 17.6193L23.2284 18.1292L22.7185 18.6391L22.2086 18.1292L22.7185 17.6193ZM21.1321 18.1292L21.642 18.6391L21.1321 19.1489L20.6222 18.6391L21.1321 18.1292Z" fill="#3E4347"/>
</svg>
