<svg width="21" height="36" viewBox="0 0 21 36" fill="none" xmlns="http://www.w3.org/2000/svg">
<path d="M20.2817 2.30986C20.2817 1.1831 19.0986 0 17.8592 0H2.42253C1.1831 0 0 1.1831 0 2.30986V33.6901C0 34.8732 1.1831 36 2.42253 36H17.9155C19.0986 36 20.338 34.8169 20.338 33.6901V2.30986H20.2817Z" fill="#5C6D6D"/>
<path d="M19.7184 33.2394C19.7184 34.3662 18.5916 35.4929 17.4649 35.4929H2.817C1.69024 35.4929 0.563477 34.3662 0.563477 33.2394V2.81688C0.563477 1.69012 1.69024 0.563354 2.817 0.563354H17.4649C18.5916 0.563354 19.7184 1.69012 19.7184 2.81688V33.2394Z" fill="#212528"/>
<path d="M16.6198 3.09844C16.9309 3.09844 17.1832 2.84621 17.1832 2.53506C17.1832 2.22391 16.9309 1.97168 16.6198 1.97168C16.3086 1.97168 16.0564 2.22391 16.0564 2.53506C16.0564 2.84621 16.3086 3.09844 16.6198 3.09844Z" fill="#94989B"/>
<path d="M11.831 2.53529C11.831 2.70431 11.7746 2.81698 11.662 2.81698H8.6197C8.50702 2.81698 8.45068 2.70431 8.45068 2.53529C8.45068 2.42262 8.50702 2.2536 8.6197 2.2536H11.662C11.7746 2.2536 11.831 2.42262 11.831 2.53529Z" fill="#94989B"/>
<path d="M1.69019 4.50696H18.5916V31.5492H1.69019V4.50696Z" fill="#3E4347"/>
<path d="M12.2817 33.9153C12.2817 34.1407 12.1127 34.366 11.831 34.366H8.4507C8.22535 34.366 8 34.197 8 33.9153V33.0703C8 32.8449 8.16901 32.6196 8.4507 32.6196H11.831C12.0563 32.6196 12.2817 32.7886 12.2817 33.0703V33.9153Z" fill="#94989B"/>
<path d="M5.63385 8.28181C5.63385 8.5635 5.4085 8.73252 5.18315 8.73252H3.32399C3.0423 8.73252 2.87329 8.50717 2.87329 8.28181V6.42266C2.87329 6.14097 3.09864 5.97195 3.32399 5.97195H5.18315C5.46484 5.97195 5.63385 6.19731 5.63385 6.42266V8.28181Z" fill="#42ADE2"/>
<path d="M9.57746 8.28181C9.57746 8.5635 9.35211 8.73252 9.12675 8.73252H7.2676C6.98591 8.73252 6.81689 8.50717 6.81689 8.28181V6.42266C6.81689 6.14097 7.04225 5.97195 7.2676 5.97195H9.12675C9.40844 5.97195 9.57746 6.19731 9.57746 6.42266V8.28181Z" fill="#C7E755"/>
<path d="M13.5211 8.28181C13.5211 8.5635 13.2957 8.73252 13.0704 8.73252H11.2112C10.9295 8.73252 10.7605 8.50717 10.7605 8.28181V6.42266C10.7605 6.14097 10.9859 5.97195 11.2112 5.97195H13.0704C13.352 5.97195 13.5211 6.19731 13.5211 6.42266V8.28181Z" fill="#F2B200"/>
<path d="M17.4647 8.28181C17.4647 8.5635 17.2393 8.73252 17.014 8.73252H15.1548C14.8731 8.73252 14.7041 8.50717 14.7041 8.28181V6.42266C14.7041 6.14097 14.9295 5.97195 15.1548 5.97195H17.014C17.2957 5.97195 17.4647 6.19731 17.4647 6.42266V8.28181Z" fill="#42ADE2"/>
<path d="M5.63385 29.9718C5.63385 30.2534 5.4085 30.4225 5.18315 30.4225H3.32399C3.0423 30.4225 2.87329 30.1971 2.87329 29.9718V28.1126C2.87329 27.8309 3.09864 27.6619 3.32399 27.6619H5.18315C5.46484 27.6619 5.63385 27.8872 5.63385 28.1126V29.9718Z" fill="#C7E755"/>
<path d="M9.57746 29.9718C9.57746 30.2534 9.35211 30.4225 9.12675 30.4225H7.2676C6.98591 30.4225 6.81689 30.1971 6.81689 29.9718V28.1126C6.81689 27.8309 7.04225 27.6619 7.2676 27.6619H9.12675C9.40844 27.6619 9.57746 27.8872 9.57746 28.1126V29.9718Z" fill="#FF435E"/>
<path d="M13.5211 29.9718C13.5211 30.2534 13.2957 30.4225 13.0704 30.4225H11.2112C10.9295 30.4225 10.7605 30.1971 10.7605 29.9718V28.1126C10.7605 27.8309 10.9859 27.6619 11.2112 27.6619H13.0704C13.352 27.6619 13.5211 27.8872 13.5211 28.1126V29.9718Z" fill="#42ADE2"/>
<path d="M17.4647 29.9718C17.4647 30.2534 17.2393 30.4225 17.014 30.4225H15.1548C14.8731 30.4225 14.7041 30.1971 14.7041 29.9718V28.1126C14.7041 27.8309 14.9295 27.6619 15.1548 27.6619H17.014C17.2957 27.6619 17.4647 27.8872 17.4647 28.1126V29.9718Z" fill="#C28FEF"/>
<path d="M5.63385 19.0986C5.63385 19.3803 5.4085 19.5493 5.18315 19.5493H3.32399C3.0423 19.5493 2.87329 19.3239 2.87329 19.0986V17.2394C2.87329 16.9577 3.09864 16.7887 3.32399 16.7887H5.18315C5.46484 16.7887 5.63385 17.0141 5.63385 17.2394V19.0986Z" fill="#C7E755"/>
<path d="M9.57746 19.0986C9.57746 19.3803 9.35211 19.5493 9.12675 19.5493H7.2676C6.98591 19.5493 6.81689 19.3239 6.81689 19.0986V17.2394C6.81689 16.9577 7.04225 16.7887 7.2676 16.7887H9.12675C9.40844 16.7887 9.57746 17.0141 9.57746 17.2394V19.0986Z" fill="#C28FEF"/>
<path d="M13.5211 19.0986C13.5211 19.3803 13.2957 19.5493 13.0704 19.5493H11.2112C10.9295 19.5493 10.7605 19.3239 10.7605 19.0986V17.2394C10.7605 16.9577 10.9859 16.7887 11.2112 16.7887H13.0704C13.352 16.7887 13.5211 17.0141 13.5211 17.2394V19.0986Z" fill="#42ADE2"/>
<path d="M5.63385 15.4928C5.63385 15.7745 5.4085 15.9435 5.18315 15.9435H3.32399C3.0423 15.9435 2.87329 15.7182 2.87329 15.4928V13.6337C2.87329 13.352 3.09864 13.183 3.32399 13.183H5.18315C5.46484 13.183 5.63385 13.4083 5.63385 13.6337V15.4928Z" fill="#FF435E"/>
<path d="M9.57746 15.4928C9.57746 15.7745 9.35211 15.9435 9.12675 15.9435H7.2676C6.98591 15.9435 6.81689 15.7182 6.81689 15.4928V13.6337C6.81689 13.352 7.04225 13.183 7.2676 13.183H9.12675C9.40844 13.183 9.57746 13.4083 9.57746 13.6337V15.4928Z" fill="#F2B200"/>
<path d="M13.5211 15.4928C13.5211 15.7745 13.2957 15.9435 13.0704 15.9435H11.2112C10.9295 15.9435 10.7605 15.7182 10.7605 15.4928V13.6337C10.7605 13.352 10.9859 13.183 11.2112 13.183H13.0704C13.352 13.183 13.5211 13.4083 13.5211 13.6337V15.4928Z" fill="#C7E755"/>
<path d="M17.4647 15.4928C17.4647 15.7745 17.2393 15.9435 17.014 15.9435H15.1548C14.8731 15.9435 14.7041 15.7182 14.7041 15.4928V13.6337C14.7041 13.352 14.9295 13.183 15.1548 13.183H17.014C17.2957 13.183 17.4647 13.4083 17.4647 13.6337V15.4928Z" fill="#F2B200"/>
<path d="M5.63385 11.8871C5.63385 12.1688 5.4085 12.3378 5.18315 12.3378H3.32399C3.0423 12.3378 2.87329 12.1125 2.87329 11.8871V10.0279C2.87329 9.74625 3.09864 9.57724 3.32399 9.57724H5.18315C5.46484 9.57724 5.63385 9.80259 5.63385 10.0279V11.8871Z" fill="#C28FEF"/>
<path d="M9.57746 11.8871C9.57746 12.1688 9.35211 12.3378 9.12675 12.3378H7.2676C6.98591 12.3378 6.81689 12.1125 6.81689 11.8871V10.0279C6.81689 9.74625 7.04225 9.57724 7.2676 9.57724H9.12675C9.40844 9.57724 9.57746 9.80259 9.57746 10.0279V11.8871Z" fill="#42ADE2"/>
<path d="M13.5211 11.8871C13.5211 12.1688 13.2957 12.3378 13.0704 12.3378H11.2112C10.9295 12.3378 10.7605 12.1125 10.7605 11.8871V10.0279C10.7605 9.74625 10.9859 9.57724 11.2112 9.57724H13.0704C13.352 9.57724 13.5211 9.80259 13.5211 10.0279V11.8871Z" fill="#FF435E"/>
<path d="M17.4647 11.8871C17.4647 12.1688 17.2393 12.3378 17.014 12.3378H15.1548C14.8731 12.3378 14.7041 12.1125 14.7041 11.8871V10.0279C14.7041 9.74625 14.9295 9.57724 15.1548 9.57724H17.014C17.2957 9.57724 17.4647 9.80259 17.4647 10.0279V11.8871Z" fill="#C28FEF"/>
</svg>
