<svg width="38" height="38" viewBox="0 0 38 38" fill="none" xmlns="http://www.w3.org/2000/svg">
<path fill-rule="evenodd" clip-rule="evenodd" d="M17.9653 10.1804C22.9208 10.1804 26.938 14.1976 26.938 19.1531C26.938 24.1086 22.9208 28.1259 17.9653 28.1259C13.0098 28.1259 8.9925 24.1086 8.9925 19.1531C8.9925 14.1976 13.0098 10.1804 17.9653 10.1804ZM17.9653 14.2589C20.6683 14.2589 22.8595 16.4501 22.8595 19.1531C22.8595 21.8561 20.6683 24.0474 17.9653 24.0474C15.2623 24.0474 13.071 21.8562 13.071 19.1531C13.071 16.4501 15.2622 14.2589 17.9653 14.2589Z" fill="#424242"/>
<path d="M17.9652 23.3406C20.2778 23.3406 22.1525 21.4659 22.1525 19.1533C22.1525 16.8408 20.2778 14.9661 17.9652 14.9661C15.6527 14.9661 13.7779 16.8408 13.7779 19.1533C13.7779 21.4659 15.6527 23.3406 17.9652 23.3406Z" fill="#424242"/>
<path fill-rule="evenodd" clip-rule="evenodd" d="M30.2279 8.38523C31.8969 8.38523 33.25 10.9262 33.25 13.259C33.25 17.2461 27.2058 17.2461 27.2058 13.259C27.2058 10.9262 28.5588 8.38523 30.2279 8.38523Z" fill="#424242"/>
<path fill-rule="evenodd" clip-rule="evenodd" d="M31.2966 28.725C31.2966 29.2148 30.8157 29.6156 30.2279 29.6156C29.6402 29.6156 29.1593 29.2148 29.1593 28.725C29.1593 23.2119 29.8004 19.7168 29.8004 14.3682H30.6555C30.6555 19.7168 31.2966 23.2119 31.2966 28.725Z" fill="#424242"/>
<path fill-rule="evenodd" clip-rule="evenodd" d="M7.36929 28.725C7.36929 29.2148 6.88838 29.6156 6.3006 29.6156C5.71284 29.6156 5.23194 29.2148 5.23194 28.725C5.23194 23.2119 5.87306 19.7168 5.87306 14.3682H6.72816C6.72816 19.7168 7.36929 23.2119 7.36929 28.725Z" fill="#424242"/>
<path fill-rule="evenodd" clip-rule="evenodd" d="M5.28769 8.38511C4.05083 13.6418 5.18454 16.3848 6.31091 16.3689C7.43041 16.3531 8.543 13.61 7.31363 8.38511L7.20147 13.6528H6.90057L6.60054 8.46608L6.42112 13.6528H6.1802L6.00077 8.46608L5.70732 13.6528H5.39986L5.28769 8.38511Z" fill="#424242"/>
</svg>
