<svg width="33" height="33" viewBox="0 0 33 33" fill="none" xmlns="http://www.w3.org/2000/svg">
<path d="M16.5035 32.5606C25.3888 32.5606 32.5917 25.3577 32.5917 16.4724C32.5917 7.58718 25.3888 0.384257 16.5035 0.384257C7.61827 0.384257 0.415345 7.58718 0.415345 16.4724C0.415345 25.3577 7.61827 32.5606 16.5035 32.5606Z" fill="white"/>
<path d="M32.9213 16.4725C32.9213 16.0882 33.0311 10.4875 29.7366 6.86356C29.5719 6.53411 28.913 5.21631 26.6617 3.62396C25.1792 2.47088 23.6418 1.64725 23.477 1.53744C23.3123 1.42762 20.5669 0 17.2724 0C16.9978 0 16.7782 -5.3183e-08 16.5037 0.0549084C13.9779 -5.3183e-08 11.6717 0.658902 9.96955 1.42762C8.21248 2.19634 7.0594 2.96506 6.94959 3.07487C5.0827 4.11814 1.51365 8.29118 1.23911 10.5424C0.0860274 11.97 -0.847417 18.5042 1.23911 22.4576C2.72163 27.9484 8.21248 30.6938 8.65175 30.9135C8.92629 31.0782 11.8913 32.9451 15.5702 32.9451H16.0644C16.3938 33 16.6684 33 16.9978 33C20.9512 33 26.8814 30.1997 28.0894 28.0033C31.4937 25.4775 33.2507 19.1081 32.9213 16.4725ZM8.70666 24.7637C7.11431 22.2379 6.23578 18.8885 6.01614 18.1198C6.51032 17.3511 8.9812 13.7271 10.3539 12.6289C11.1226 12.7937 14.472 13.3977 17.6018 13.9468C17.9862 14.99 19.7433 19.4376 20.2374 21.1947C19.6884 21.8536 17.5469 24.3245 15.4604 26.2463C13.2092 26.3012 9.42047 24.9834 8.70666 24.7637ZM28.4737 6.91847C28.4737 7.1381 28.4188 8.01664 27.9795 9.0599C27.1559 8.62063 25.0694 7.7421 22.1592 7.57737C21.72 6.91847 20.0727 4.66722 17.492 3.12978C17.8215 2.41597 18.3156 1.59235 18.6451 1.3178C18.7549 1.3178 18.8647 1.2629 19.0844 1.2629C20.4571 1.2629 22.873 2.19634 23.0927 2.25125C23.3123 2.36106 27.6501 4.66722 28.4737 6.91847ZM5.41215 17.5707C3.54526 17.2413 2.39218 16.6922 2.06273 16.4725C1.34892 13.9468 1.95292 11.2013 2.00782 10.817C2.72163 9.60898 4.64343 6.42429 5.96123 5.8203C7.27904 5.54576 8.9812 5.87521 9.6401 6.03993C9.58519 6.91847 9.47538 9.38935 9.80483 12.025C8.37721 13.2329 6.01614 16.6922 5.41215 17.5707ZM16.3389 0.823627C16.7782 0.878536 17.3822 0.933444 17.8215 1.09817C17.3822 1.64725 16.9429 2.47088 16.7782 2.91015C15.8997 3.07487 12.6601 3.67887 10.0794 5.32612C9.58519 5.21631 7.99285 4.83195 6.51032 4.94176C6.89468 4.22795 7.44376 3.73378 7.49867 3.67887C7.6634 3.51414 11.5619 0.768719 16.3389 0.823627ZM26.8265 21.7438C26.1676 21.7438 23.6967 21.579 21.0062 20.9201C20.512 19.1081 18.7549 14.6606 18.3706 13.6173C20.0727 11.2013 21.72 8.95008 22.1592 8.29118C25.289 8.51081 27.4854 9.66389 27.9246 9.88353C29.7366 12.7937 30.121 15.7587 30.1759 16.2529C29.1875 19.2729 27.3206 21.3045 26.8265 21.7438ZM0.964563 14.5507C1.01947 15.2646 1.12929 15.9784 1.34892 16.6922C1.1842 17.1864 1.01947 17.6805 0.964563 18.1747C0.799838 16.9118 0.799838 15.6489 0.964563 14.5507ZM9.09102 30.1997C7.71831 29.5408 6.67504 28.0033 6.23578 27.3993C7.0594 26.5757 8.10266 25.807 8.48702 25.5324C9.36556 25.8619 13.0444 27.0699 15.4055 27.0699C15.7899 27.619 17.1077 29.2662 18.7 30.584C17.7116 31.5724 16.284 32.0116 16.0095 32.1215C12.2757 32.2313 9.09102 30.1997 9.09102 30.1997ZM18.0411 32.0666C18.5353 31.792 19.0844 31.4076 19.5236 30.9135C20.2374 30.8037 23.3123 30.3095 26.0577 28.2779C26.2225 28.2779 26.5519 28.3328 26.8814 28.3328C25.1792 29.9251 21.116 31.7371 18.0411 32.0666ZM26.497 27.4542C27.4854 24.8735 27.4304 22.8968 27.3755 22.2928C27.9246 21.7438 29.7915 19.7671 30.8348 16.7471C31.3839 16.8569 31.7682 16.9667 31.9329 17.0765C31.9879 17.2962 32.0977 17.7903 32.0428 18.5591C31.6035 21.3045 30.1759 25.4775 27.5952 27.2895C27.3206 27.4542 26.8814 27.5091 26.497 27.4542Z" fill="#4A4E51"/>
</svg>
