<svg width="308" height="236" viewBox="0 0 308 236" fill="none" xmlns="http://www.w3.org/2000/svg">
<path d="M159.344 235.493C241.444 235.493 308 231.862 308 227.383C308 222.904 241.444 219.273 159.344 219.273C77.2428 219.273 10.6871 222.904 10.6871 227.383C10.6871 231.862 77.2428 235.493 159.344 235.493Z" fill="#92E3A9"/>
<path opacity="0.3" d="M159.344 235.493C241.444 235.493 308 231.862 308 227.383C308 222.904 241.444 219.273 159.344 219.273C77.2428 219.273 10.6871 222.904 10.6871 227.383C10.6871 231.862 77.2428 235.493 159.344 235.493Z" fill="white"/>
<path d="M247.196 105.145C247.151 105.145 247.712 102.352 247.772 102.149C248.416 100.158 250.842 96.6831 253.186 96.6906C253.576 96.7017 253.959 96.7947 254.31 96.9636C254.662 97.1325 254.974 97.3734 255.226 97.6708C255.478 97.9681 255.665 98.3152 255.774 98.6895C255.883 99.0638 255.912 99.4568 255.859 99.8431C255.687 101.498 254.205 102.898 252.864 103.715C251.292 104.695 247.196 105.145 247.196 105.145Z" fill="#92E3A9"/>
<path d="M242.65 86.3418C244.859 87.1355 245.96 91.2241 245.885 93.3208C245.885 93.5005 245.466 96.3161 245.428 96.3161H245.383C245.556 96.9601 245.743 97.6565 245.93 98.4128C246.26 99.8206 246.619 101.408 246.896 103.175C247.217 105.071 247.427 106.984 247.525 108.904C247.644 111.053 247.572 113.208 247.308 115.344C247.304 115.369 247.304 115.394 247.308 115.419C247.6 114.797 248.461 113.075 248.543 112.947C249.697 111.195 252.947 108.455 255.215 109.114C255.587 109.228 255.931 109.42 256.224 109.676C256.517 109.931 256.753 110.246 256.917 110.599C257.081 110.952 257.169 111.335 257.175 111.725C257.181 112.114 257.105 112.5 256.953 112.858C256.354 114.4 254.556 115.366 253.051 115.793C251.352 116.28 247.562 115.703 247.263 115.658C246.943 117.824 246.478 119.965 245.87 122.068C245.521 123.296 245.141 124.524 244.732 125.752C244.994 125.221 245.241 124.749 245.279 124.682C246.432 122.929 249.682 120.189 251.951 120.84C252.323 120.954 252.668 121.145 252.961 121.4C253.255 121.656 253.492 121.971 253.656 122.324C253.82 122.677 253.907 123.061 253.913 123.451C253.918 123.84 253.842 124.226 253.688 124.584C253.089 126.134 251.292 127.093 249.786 127.527C248.281 127.961 245.016 127.527 244.163 127.415C244.006 127.879 243.848 128.351 243.684 128.815C242.935 131.062 242.126 133.308 241.437 135.51C241.19 136.258 240.973 137.067 240.756 137.846C240.995 137.374 241.197 136.977 241.235 136.925C242.381 135.173 245.638 132.432 247.899 133.083C248.271 133.198 248.615 133.39 248.908 133.645C249.202 133.901 249.438 134.216 249.602 134.568C249.767 134.921 249.855 135.304 249.863 135.693C249.87 136.083 249.795 136.469 249.644 136.827C249.045 138.37 247.24 139.336 245.735 139.763C244.23 140.19 241.287 139.815 240.269 139.673C240.067 140.482 239.872 141.283 239.715 142.069C239.617 142.608 239.49 143.125 239.423 143.672C239.355 144.218 239.273 144.75 239.198 145.274C239.093 146.3 238.973 147.363 238.899 148.367C238.839 149.063 238.794 149.73 238.749 150.396C238.981 149.647 239.498 148.105 239.535 147.977C240.367 146.331 241.604 144.924 243.129 143.889C243.213 143.701 243.315 143.523 243.436 143.357C243.649 143.03 243.927 142.752 244.254 142.54C244.581 142.328 244.949 142.187 245.334 142.126C245.718 142.065 246.112 142.086 246.488 142.187C246.864 142.288 247.215 142.468 247.518 142.713C249.3 144.211 248.85 148.464 248.034 150.396C247.989 150.508 247.323 151.684 246.896 152.418C247.218 152.029 247.518 151.669 247.855 151.235C248.506 150.441 249.18 149.662 249.899 148.824L251 147.633C251.359 147.221 251.793 146.839 252.19 146.442C253.126 145.536 254.122 144.66 255.148 143.799C254.444 143.23 251.996 141.156 251.292 139.748C250.588 138.34 250.086 136.371 250.82 134.888C250.98 134.532 251.214 134.214 251.506 133.954C251.798 133.694 252.141 133.499 252.514 133.381C252.886 133.263 253.279 133.225 253.667 133.269C254.055 133.313 254.43 133.439 254.766 133.637C256.751 134.881 256.953 139.111 256.436 141.126C256.436 141.253 255.867 142.668 255.56 143.44C256.181 142.93 256.795 142.414 257.439 141.942C259.297 140.504 261.221 139.111 263.131 137.711L264.875 136.416C264.628 136.213 261.663 133.817 260.869 132.245C260.173 130.844 259.663 128.867 260.397 127.377C260.559 127.022 260.793 126.704 261.085 126.445C261.377 126.186 261.72 125.992 262.092 125.874C262.464 125.756 262.857 125.717 263.245 125.761C263.633 125.805 264.007 125.929 264.344 126.127C266.328 127.377 266.53 131.608 266.013 133.615C265.976 133.772 265.205 135.809 264.98 136.318C266.261 135.36 267.526 134.401 268.724 133.405C270.365 132.066 271.916 130.62 273.367 129.077C273.255 128.987 270.147 126.501 269.338 124.884C268.634 123.483 268.133 121.507 268.867 120.024C269.026 119.668 269.259 119.35 269.55 119.09C269.842 118.83 270.184 118.635 270.556 118.517C270.928 118.399 271.32 118.361 271.708 118.405C272.096 118.449 272.47 118.575 272.805 118.773C274.797 120.016 274.999 124.247 274.483 126.262C274.445 126.389 273.861 127.946 273.562 128.68L273.681 128.748C275.102 127.157 276.377 125.443 277.493 123.626C278.114 122.637 278.661 121.656 279.17 120.683C278.541 120.278 275.703 118.436 274.812 117.029C273.921 115.621 273.247 113.809 273.809 112.251C273.93 111.885 274.126 111.547 274.385 111.261C274.643 110.974 274.959 110.745 275.311 110.587C275.663 110.429 276.045 110.346 276.431 110.344C276.817 110.342 277.199 110.42 277.553 110.574C279.672 111.592 280.331 115.778 280.039 117.852C280.039 117.965 279.739 119.095 279.522 119.919C279.739 119.477 279.979 119.028 280.181 118.601C280.93 116.999 281.567 115.486 282.091 114.108C282.39 113.359 282.637 112.611 282.84 111.989C282.428 111.24 280.825 108.357 280.668 106.747C280.511 105.137 280.765 103.16 281.986 102.037C282.264 101.764 282.597 101.553 282.963 101.417C283.328 101.281 283.718 101.223 284.107 101.248C284.497 101.273 284.876 101.379 285.222 101.56C285.567 101.741 285.87 101.993 286.112 102.299C287.52 104.179 286.179 108.192 284.966 109.907C284.861 110.05 282.952 112.154 282.929 112.154V112.109C282.72 112.745 282.495 113.427 282.226 114.161C281.731 115.516 281.147 117.051 280.413 118.654C279.631 120.41 278.749 122.12 277.77 123.775C276.68 125.63 275.427 127.384 274.026 129.017L273.973 129.077C274.558 128.71 276.22 127.759 276.362 127.699C278.294 126.876 282.503 126.404 284.045 128.179C284.292 128.48 284.474 128.829 284.577 129.205C284.681 129.581 284.704 129.974 284.646 130.359C284.589 130.745 284.45 131.113 284.241 131.442C284.032 131.771 283.756 132.052 283.431 132.267C282.076 133.226 280.039 133.016 278.549 132.559C276.864 132.028 274.056 129.459 273.794 129.257C272.334 130.886 270.765 132.415 269.099 133.832C268.125 134.671 267.129 135.48 266.103 136.273C266.62 135.981 267.084 135.719 267.152 135.689C269.076 134.866 273.285 134.394 274.827 136.169C275.075 136.469 275.258 136.819 275.362 137.195C275.466 137.571 275.49 137.964 275.432 138.35C275.374 138.735 275.236 139.105 275.026 139.433C274.816 139.762 274.539 140.043 274.213 140.257C272.865 141.216 270.828 141.006 269.338 140.549C267.848 140.092 265.355 137.936 264.711 137.359L263.535 138.265C261.648 139.71 259.791 141.141 257.956 142.601C257.32 143.118 256.713 143.649 256.099 144.173C256.563 143.911 256.945 143.694 257.013 143.672C258.937 142.841 263.145 142.376 264.688 144.143C264.937 144.444 265.121 144.793 265.226 145.169C265.33 145.545 265.355 145.939 265.297 146.325C265.239 146.711 265.1 147.081 264.889 147.409C264.678 147.738 264.401 148.018 264.074 148.232C262.719 149.191 260.689 148.981 259.199 148.532C257.709 148.082 255.455 146.12 254.706 145.439C254.1 146.001 253.486 146.555 252.924 147.131C252.542 147.528 252.175 147.88 251.801 148.307C251.426 148.734 251.052 149.116 250.723 149.52C250.071 150.314 249.39 151.137 248.768 151.931C248.334 152.478 247.929 153.01 247.525 153.541C248.147 153.025 249.405 152.044 249.517 151.961C251.292 150.853 255.38 149.752 257.177 151.265C257.468 151.526 257.7 151.845 257.859 152.202C258.017 152.559 258.099 152.945 258.099 153.335C258.099 153.726 258.017 154.112 257.859 154.469C257.7 154.825 257.468 155.145 257.177 155.406C255.987 156.551 253.95 156.679 252.407 156.439C250.7 156.17 247.615 154.193 247.233 153.908C246.559 154.792 245.915 155.66 245.316 156.492C243.242 159.36 241.624 161.823 240.516 163.568L240.404 163.74L238.966 163.044C239.041 162.931 239.116 162.827 239.191 162.707C240.351 160.97 242.044 158.513 244.2 155.66C244.882 154.762 245.623 153.811 246.394 152.837C245.592 151.964 244.841 151.044 244.148 150.082C242.493 150.726 239.056 150.756 238.614 150.756C238.547 151.864 238.487 152.942 238.442 153.961C238.292 157.503 238.307 160.453 238.344 162.512V162.759L236.764 162.01C236.764 159.966 236.847 157.188 237.056 153.916C237.124 152.785 237.221 151.579 237.334 150.351C236.892 150.239 233.32 149.318 231.972 148.24C230.751 147.266 229.463 145.679 229.508 144.024C229.504 143.633 229.583 143.247 229.738 142.889C229.894 142.531 230.124 142.21 230.412 141.947C230.701 141.684 231.041 141.485 231.412 141.362C231.783 141.24 232.175 141.198 232.564 141.238C234.892 141.538 236.839 145.297 237.229 147.356C237.229 147.476 237.349 148.854 237.393 149.677C237.446 149.168 237.483 148.681 237.536 148.18C237.641 147.154 237.775 146.128 237.918 145.027C238 144.503 238.09 143.971 238.172 143.432C238.255 142.893 238.397 142.339 238.509 141.785C238.794 140.512 239.138 139.231 239.52 137.951C238.622 137.853 235.439 137.479 234.069 136.7C232.698 135.921 231.201 134.544 230.998 132.904C230.935 132.518 230.953 132.123 231.053 131.746C231.152 131.368 231.33 131.015 231.576 130.711C231.821 130.407 232.128 130.158 232.476 129.981C232.825 129.804 233.207 129.703 233.597 129.684C235.941 129.624 238.442 133.046 239.131 135.023C239.176 135.15 239.513 136.625 239.677 137.441C239.917 136.693 240.142 135.899 240.426 135.135C241.175 132.889 242.021 130.687 242.845 128.463C243.099 127.782 243.339 127.1 243.594 126.426C243.272 126.426 239.475 126.029 237.948 125.153C236.592 124.404 235.08 122.997 234.87 121.357C234.809 120.972 234.829 120.578 234.929 120.201C235.03 119.824 235.208 119.472 235.453 119.169C235.698 118.865 236.004 118.617 236.351 118.439C236.698 118.261 237.079 118.158 237.468 118.137C239.82 118.077 242.321 121.499 243.01 123.476C243.062 123.626 243.541 125.722 243.639 126.299C244.178 124.801 244.709 123.304 245.136 121.806C245.77 119.784 246.27 117.723 246.634 115.636C246.484 115.636 242.515 115.261 240.958 114.363C239.595 113.614 238.082 112.206 237.88 110.566C237.819 110.181 237.839 109.787 237.939 109.41C238.04 109.033 238.218 108.682 238.463 108.378C238.708 108.075 239.014 107.826 239.361 107.648C239.709 107.471 240.089 107.368 240.479 107.346C242.822 107.294 245.323 110.709 246.012 112.685C246.057 112.82 246.424 114.438 246.582 115.209H246.716C247.025 113.1 247.146 110.967 247.076 108.836C247.076 107.661 246.963 106.545 246.851 105.452C246.102 105.452 242.703 105.452 241.205 104.808C239.707 104.164 238.112 102.981 237.723 101.371C237.619 100.994 237.596 100.599 237.655 100.212C237.715 99.8254 237.855 99.4556 238.067 99.1269C238.279 98.7982 238.558 98.518 238.886 98.3046C239.214 98.0912 239.583 97.9495 239.969 97.8886C242.298 97.5741 245.159 100.697 246.065 102.591C246.11 102.696 246.499 103.797 246.761 104.598C246.709 104.111 246.656 103.602 246.589 103.138C246.357 101.378 246.027 99.7757 245.728 98.3679C245.548 97.5666 245.376 96.8702 245.204 96.1738C244.455 95.7994 241.519 94.2568 240.509 93.0063C239.498 91.7558 238.614 89.9661 239.011 88.3561C239.096 87.9723 239.262 87.6111 239.498 87.2963C239.733 86.9815 240.033 86.7202 240.377 86.5298C240.721 86.3394 241.102 86.2242 241.493 86.1918C241.885 86.1594 242.28 86.2105 242.65 86.3418Z" fill="#92E3A9"/>
<path d="M285.093 122.532C283.259 122.458 279.59 120.578 279.59 120.571C279.59 120.563 281.559 118.534 281.701 118.421C283.341 117.111 287.28 115.553 289.234 116.849C289.553 117.074 289.821 117.364 290.021 117.699C290.22 118.035 290.347 118.408 290.393 118.796C290.439 119.184 290.403 119.577 290.287 119.949C290.171 120.322 289.979 120.666 289.721 120.96C288.673 122.218 286.659 122.592 285.093 122.532Z" fill="#92E3A9"/>
<g opacity="0.5">
<path d="M247.196 105.145C247.151 105.145 247.712 102.352 247.772 102.149C248.416 100.158 250.842 96.6831 253.186 96.6906C253.576 96.7017 253.959 96.7947 254.31 96.9636C254.662 97.1325 254.974 97.3734 255.226 97.6708C255.478 97.9681 255.665 98.3152 255.774 98.6895C255.883 99.0638 255.912 99.4568 255.859 99.8431C255.687 101.498 254.205 102.898 252.864 103.715C251.292 104.695 247.196 105.145 247.196 105.145Z" fill="white"/>
<path d="M242.65 86.3418C244.859 87.1355 245.96 91.2241 245.885 93.3208C245.885 93.5005 245.466 96.3161 245.428 96.3161H245.383C245.556 96.9601 245.743 97.6565 245.93 98.4128C246.26 99.8206 246.619 101.408 246.896 103.175C247.217 105.071 247.427 106.984 247.525 108.904C247.644 111.053 247.572 113.208 247.308 115.344C247.304 115.369 247.304 115.394 247.308 115.419C247.6 114.797 248.461 113.075 248.543 112.947C249.697 111.195 252.947 108.455 255.215 109.114C255.587 109.228 255.931 109.42 256.224 109.676C256.517 109.931 256.753 110.246 256.917 110.599C257.081 110.952 257.169 111.335 257.175 111.725C257.181 112.114 257.105 112.5 256.953 112.858C256.354 114.4 254.556 115.366 253.051 115.793C251.352 116.28 247.562 115.703 247.263 115.658C246.943 117.824 246.478 119.965 245.87 122.068C245.521 123.296 245.141 124.524 244.732 125.752C244.994 125.221 245.241 124.749 245.279 124.682C246.432 122.929 249.682 120.189 251.951 120.84C252.323 120.954 252.668 121.145 252.961 121.4C253.255 121.656 253.492 121.971 253.656 122.324C253.82 122.677 253.907 123.061 253.913 123.451C253.918 123.84 253.842 124.226 253.688 124.584C253.089 126.134 251.292 127.093 249.786 127.527C248.281 127.961 245.016 127.527 244.163 127.415C244.006 127.879 243.848 128.351 243.684 128.815C242.935 131.062 242.126 133.308 241.437 135.51C241.19 136.258 240.973 137.067 240.756 137.846C240.995 137.374 241.197 136.977 241.235 136.925C242.381 135.173 245.638 132.432 247.899 133.083C248.271 133.198 248.615 133.39 248.908 133.645C249.202 133.901 249.438 134.216 249.602 134.568C249.767 134.921 249.855 135.304 249.863 135.693C249.87 136.083 249.795 136.469 249.644 136.827C249.045 138.37 247.24 139.336 245.735 139.763C244.23 140.19 241.287 139.815 240.269 139.673C240.067 140.482 239.872 141.283 239.715 142.069C239.617 142.608 239.49 143.125 239.423 143.672C239.355 144.218 239.273 144.75 239.198 145.274C239.093 146.3 238.973 147.363 238.899 148.367C238.839 149.063 238.794 149.73 238.749 150.396C238.981 149.647 239.498 148.105 239.535 147.977C240.367 146.331 241.604 144.924 243.129 143.889C243.213 143.701 243.315 143.523 243.436 143.357C243.649 143.03 243.927 142.752 244.254 142.54C244.581 142.328 244.949 142.187 245.334 142.126C245.718 142.065 246.112 142.086 246.488 142.187C246.864 142.288 247.215 142.468 247.518 142.713C249.3 144.211 248.85 148.464 248.034 150.396C247.989 150.508 247.323 151.684 246.896 152.418C247.218 152.029 247.518 151.669 247.855 151.235C248.506 150.441 249.18 149.662 249.899 148.824L251 147.633C251.359 147.221 251.793 146.839 252.19 146.442C253.126 145.536 254.122 144.66 255.148 143.799C254.444 143.23 251.996 141.156 251.292 139.748C250.588 138.34 250.086 136.371 250.82 134.888C250.98 134.532 251.214 134.214 251.506 133.954C251.798 133.694 252.141 133.499 252.514 133.381C252.886 133.263 253.279 133.225 253.667 133.269C254.055 133.313 254.43 133.439 254.766 133.637C256.751 134.881 256.953 139.111 256.436 141.126C256.436 141.253 255.867 142.668 255.56 143.44C256.181 142.93 256.795 142.414 257.439 141.942C259.297 140.504 261.221 139.111 263.131 137.711L264.875 136.416C264.628 136.213 261.663 133.817 260.869 132.245C260.173 130.844 259.663 128.867 260.397 127.377C260.559 127.022 260.793 126.704 261.085 126.445C261.377 126.186 261.72 125.992 262.092 125.874C262.464 125.756 262.857 125.717 263.245 125.761C263.633 125.805 264.007 125.929 264.344 126.127C266.328 127.377 266.53 131.608 266.013 133.615C265.976 133.772 265.205 135.809 264.98 136.318C266.261 135.36 267.526 134.401 268.724 133.405C270.365 132.066 271.916 130.62 273.367 129.077C273.255 128.987 270.147 126.501 269.338 124.884C268.634 123.483 268.133 121.507 268.867 120.024C269.026 119.668 269.259 119.35 269.55 119.09C269.842 118.83 270.184 118.635 270.556 118.517C270.928 118.399 271.32 118.361 271.708 118.405C272.096 118.449 272.47 118.575 272.805 118.773C274.797 120.016 274.999 124.247 274.483 126.262C274.445 126.389 273.861 127.946 273.562 128.68L273.681 128.748C275.102 127.157 276.377 125.443 277.493 123.626C278.114 122.637 278.661 121.656 279.17 120.683C278.541 120.278 275.703 118.436 274.812 117.029C273.921 115.621 273.247 113.809 273.809 112.251C273.93 111.885 274.126 111.547 274.385 111.261C274.643 110.974 274.959 110.745 275.311 110.587C275.663 110.429 276.045 110.346 276.431 110.344C276.817 110.342 277.199 110.42 277.553 110.574C279.672 111.592 280.331 115.778 280.039 117.852C280.039 117.965 279.739 119.095 279.522 119.919C279.739 119.477 279.979 119.028 280.181 118.601C280.93 116.999 281.567 115.486 282.091 114.108C282.39 113.359 282.637 112.611 282.84 111.989C282.428 111.24 280.825 108.357 280.668 106.747C280.511 105.137 280.765 103.16 281.986 102.037C282.264 101.764 282.597 101.553 282.963 101.417C283.328 101.281 283.718 101.223 284.107 101.248C284.497 101.273 284.876 101.379 285.222 101.56C285.567 101.741 285.87 101.993 286.112 102.299C287.52 104.179 286.179 108.192 284.966 109.907C284.861 110.05 282.952 112.154 282.929 112.154V112.109C282.72 112.745 282.495 113.427 282.226 114.161C281.731 115.516 281.147 117.051 280.413 118.654C279.631 120.41 278.749 122.12 277.77 123.775C276.68 125.63 275.427 127.384 274.026 129.017L273.973 129.077C274.558 128.71 276.22 127.759 276.362 127.699C278.294 126.876 282.503 126.404 284.045 128.179C284.292 128.48 284.474 128.829 284.577 129.205C284.681 129.581 284.704 129.974 284.646 130.359C284.589 130.745 284.45 131.113 284.241 131.442C284.032 131.771 283.756 132.052 283.431 132.267C282.076 133.226 280.039 133.016 278.549 132.559C276.864 132.028 274.056 129.459 273.794 129.257C272.334 130.886 270.765 132.415 269.099 133.832C268.125 134.671 267.129 135.48 266.103 136.273C266.62 135.981 267.084 135.719 267.152 135.689C269.076 134.866 273.285 134.394 274.827 136.169C275.075 136.469 275.258 136.819 275.362 137.195C275.466 137.571 275.49 137.964 275.432 138.35C275.374 138.735 275.236 139.105 275.026 139.433C274.816 139.762 274.539 140.043 274.213 140.257C272.865 141.216 270.828 141.006 269.338 140.549C267.848 140.092 265.355 137.936 264.711 137.359L263.535 138.265C261.648 139.71 259.791 141.141 257.956 142.601C257.32 143.118 256.713 143.649 256.099 144.173C256.563 143.911 256.945 143.694 257.013 143.672C258.937 142.841 263.145 142.376 264.688 144.143C264.937 144.444 265.121 144.793 265.226 145.169C265.33 145.545 265.355 145.939 265.297 146.325C265.239 146.711 265.1 147.081 264.889 147.409C264.678 147.738 264.401 148.018 264.074 148.232C262.719 149.191 260.689 148.981 259.199 148.532C257.709 148.082 255.455 146.12 254.706 145.439C254.1 146.001 253.486 146.555 252.924 147.131C252.542 147.528 252.175 147.88 251.801 148.307C251.426 148.734 251.052 149.116 250.723 149.52C250.071 150.314 249.39 151.137 248.768 151.931C248.334 152.478 247.929 153.01 247.525 153.541C248.147 153.025 249.405 152.044 249.517 151.961C251.292 150.853 255.38 149.752 257.177 151.265C257.468 151.526 257.7 151.845 257.859 152.202C258.017 152.559 258.099 152.945 258.099 153.335C258.099 153.726 258.017 154.112 257.859 154.469C257.7 154.825 257.468 155.145 257.177 155.406C255.987 156.551 253.95 156.679 252.407 156.439C250.7 156.17 247.615 154.193 247.233 153.908C246.559 154.792 245.915 155.66 245.316 156.492C243.242 159.36 241.624 161.823 240.516 163.568L240.404 163.74L238.966 163.044C239.041 162.931 239.116 162.827 239.191 162.707C240.351 160.97 242.044 158.513 244.2 155.66C244.882 154.762 245.623 153.811 246.394 152.837C245.592 151.964 244.841 151.044 244.148 150.082C242.493 150.726 239.056 150.756 238.614 150.756C238.547 151.864 238.487 152.942 238.442 153.961C238.292 157.503 238.307 160.453 238.344 162.512V162.759L236.764 162.01C236.764 159.966 236.847 157.188 237.056 153.916C237.124 152.785 237.221 151.579 237.334 150.351C236.892 150.239 233.32 149.318 231.972 148.24C230.751 147.266 229.463 145.679 229.508 144.024C229.504 143.633 229.583 143.247 229.738 142.889C229.894 142.531 230.124 142.21 230.412 141.947C230.701 141.684 231.041 141.485 231.412 141.362C231.783 141.24 232.175 141.198 232.564 141.238C234.892 141.538 236.839 145.297 237.229 147.356C237.229 147.476 237.349 148.854 237.393 149.677C237.446 149.168 237.483 148.681 237.536 148.18C237.641 147.154 237.775 146.128 237.918 145.027C238 144.503 238.09 143.971 238.172 143.432C238.255 142.893 238.397 142.339 238.509 141.785C238.794 140.512 239.138 139.231 239.52 137.951C238.622 137.853 235.439 137.479 234.069 136.7C232.698 135.921 231.201 134.544 230.998 132.904C230.935 132.518 230.953 132.123 231.053 131.746C231.152 131.368 231.33 131.015 231.576 130.711C231.821 130.407 232.128 130.158 232.476 129.981C232.825 129.804 233.207 129.703 233.597 129.684C235.941 129.624 238.442 133.046 239.131 135.023C239.176 135.15 239.513 136.625 239.677 137.441C239.917 136.693 240.142 135.899 240.426 135.135C241.175 132.889 242.021 130.687 242.845 128.463C243.099 127.782 243.339 127.1 243.594 126.426C243.272 126.426 239.475 126.029 237.948 125.153C236.592 124.404 235.08 122.997 234.87 121.357C234.809 120.972 234.829 120.578 234.929 120.201C235.03 119.824 235.208 119.472 235.453 119.169C235.698 118.865 236.004 118.617 236.351 118.439C236.698 118.261 237.079 118.158 237.468 118.137C239.82 118.077 242.321 121.499 243.01 123.476C243.062 123.626 243.541 125.722 243.639 126.299C244.178 124.801 244.709 123.304 245.136 121.806C245.77 119.784 246.27 117.723 246.634 115.636C246.484 115.636 242.515 115.261 240.958 114.363C239.595 113.614 238.082 112.206 237.88 110.566C237.819 110.181 237.839 109.787 237.939 109.41C238.04 109.033 238.218 108.682 238.463 108.378C238.708 108.075 239.014 107.826 239.361 107.648C239.709 107.471 240.089 107.368 240.479 107.346C242.822 107.294 245.323 110.709 246.012 112.685C246.057 112.82 246.424 114.438 246.582 115.209H246.716C247.025 113.1 247.146 110.967 247.076 108.836C247.076 107.661 246.963 106.545 246.851 105.452C246.102 105.452 242.703 105.452 241.205 104.808C239.707 104.164 238.112 102.981 237.723 101.371C237.619 100.994 237.596 100.599 237.655 100.212C237.715 99.8254 237.855 99.4556 238.067 99.1269C238.279 98.7982 238.558 98.518 238.886 98.3046C239.214 98.0912 239.583 97.9495 239.969 97.8886C242.298 97.5741 245.159 100.697 246.065 102.591C246.11 102.696 246.499 103.797 246.761 104.598C246.709 104.111 246.656 103.602 246.589 103.138C246.357 101.378 246.027 99.7757 245.728 98.3679C245.548 97.5666 245.376 96.8702 245.204 96.1738C244.455 95.7994 241.519 94.2568 240.509 93.0063C239.498 91.7558 238.614 89.9661 239.011 88.3561C239.096 87.9723 239.262 87.6111 239.498 87.2963C239.733 86.9815 240.033 86.7202 240.377 86.5298C240.721 86.3394 241.102 86.2242 241.493 86.1918C241.885 86.1594 242.28 86.2105 242.65 86.3418Z" fill="white"/>
<path d="M285.093 122.532C283.259 122.458 279.59 120.578 279.59 120.571C279.59 120.563 281.559 118.534 281.701 118.421C283.341 117.111 287.28 115.553 289.234 116.849C289.553 117.074 289.821 117.364 290.021 117.699C290.22 118.035 290.347 118.408 290.393 118.796C290.439 119.184 290.403 119.577 290.287 119.949C290.171 120.322 289.979 120.666 289.721 120.96C288.673 122.218 286.659 122.592 285.093 122.532Z" fill="white"/>
</g>
<path d="M263.67 168.48C263.67 168.48 252.535 141.635 246.304 142.803C240.074 143.971 256.975 185.591 256.975 185.591C256.975 185.591 237.386 148.636 224.027 148.636C210.668 148.636 228.924 189.485 245.84 203.098C245.84 203.098 219.13 174.314 203.547 180.536C187.964 186.759 234.713 215.933 234.713 215.933C234.713 215.933 207.553 207.374 210.668 213.986C213.783 220.598 222.245 221.767 222.245 221.767L191.543 223.324H298.4L274.355 220.988C274.355 220.988 299.291 208.542 292.612 203.488C285.932 198.433 271.24 209.321 271.24 209.321C271.24 209.321 296.618 181.315 291.721 170.809C286.823 160.303 265.003 189.874 265.003 189.874C265.003 189.874 282.817 152.141 279.23 145.529C275.643 138.917 263.67 168.48 263.67 168.48Z" fill="#92E3A9"/>
<path opacity="0.4" d="M263.67 168.48C263.67 168.48 252.535 141.635 246.304 142.803C240.074 143.971 256.975 185.591 256.975 185.591C256.975 185.591 237.386 148.636 224.027 148.636C210.668 148.636 228.924 189.485 245.84 203.098C245.84 203.098 219.13 174.314 203.547 180.536C187.964 186.759 234.713 215.933 234.713 215.933C234.713 215.933 207.553 207.374 210.668 213.986C213.783 220.598 222.245 221.767 222.245 221.767L191.543 223.324H298.4L274.355 220.988C274.355 220.988 299.291 208.542 292.612 203.488C285.932 198.433 271.24 209.321 271.24 209.321C271.24 209.321 296.618 181.315 291.721 170.809C286.823 160.303 265.003 189.874 265.003 189.874C265.003 189.874 282.817 152.141 279.23 145.529C275.643 138.917 263.67 168.48 263.67 168.48Z" fill="white"/>
<path d="M267.234 169.888C257.432 198.83 257.432 219.31 257.432 219.31C257.432 219.31 269.009 219.752 281.035 210.849" stroke="#263238" stroke-width="0.748824" stroke-linecap="round" stroke-linejoin="round"/>
<path d="M262.337 185.479C260.315 176.825 257.634 168.338 254.317 160.093" stroke="#263238" stroke-width="0.748824" stroke-linecap="round" stroke-linejoin="round"/>
<path d="M233.395 168.555L258.323 205.51C258.323 205.51 275.246 191.282 281.035 183.247" stroke="#263238" stroke-width="0.748824" stroke-linecap="round" stroke-linejoin="round"/>
<path d="M257.881 214.421C257.881 214.421 231.613 201.953 220.927 194.854" stroke="#263238" stroke-width="0.748824" stroke-linecap="round" stroke-linejoin="round"/>
<path d="M234.301 15.1362H154.296C151.021 15.1362 148.366 17.7915 148.366 21.0669V217.393C148.366 220.669 151.021 223.324 154.296 223.324H234.301C237.576 223.324 240.231 220.669 240.231 217.393V21.0669C240.231 17.7915 237.576 15.1362 234.301 15.1362Z" fill="white" stroke="#263238" stroke-width="0.748824" stroke-linecap="round" stroke-linejoin="round"/>
<path d="M237.161 51.5815C236.838 51.5815 236.527 51.4529 236.298 51.224C236.069 50.9951 235.941 50.6846 235.941 50.3609V33.9991C235.965 33.691 236.104 33.4032 236.331 33.1933C236.558 32.9835 236.856 32.8669 237.165 32.8669C237.474 32.8669 237.772 32.9835 237.999 33.1933C238.226 33.4032 238.365 33.691 238.389 33.9991V50.331C238.392 50.4941 238.363 50.6562 238.302 50.8078C238.242 50.9594 238.152 51.0975 238.038 51.2139C237.923 51.3303 237.787 51.4228 237.636 51.4859C237.486 51.549 237.324 51.5815 237.161 51.5815Z" fill="#263238"/>
<path d="M237.161 66.7377C236.838 66.7377 236.527 66.6091 236.298 66.3802C236.069 66.1513 235.941 65.8409 235.941 65.5171V56.374C235.965 56.0658 236.104 55.7781 236.331 55.5682C236.558 55.3583 236.856 55.2418 237.165 55.2418C237.474 55.2418 237.772 55.3583 237.999 55.5682C238.226 55.7781 238.365 56.0658 238.389 56.374V65.5171C238.387 65.8415 238.257 66.152 238.027 66.3807C237.797 66.6094 237.486 66.7377 237.161 66.7377Z" fill="#263238"/>
<path d="M227.374 15.1362H147.37C144.094 15.1362 141.439 17.7915 141.439 21.0669V217.393C141.439 220.669 144.094 223.324 147.37 223.324H227.374C230.65 223.324 233.305 220.669 233.305 217.393V21.0669C233.305 17.7915 230.65 15.1362 227.374 15.1362Z" fill="#263238" stroke="#263238" stroke-width="0.748824" stroke-linecap="round" stroke-linejoin="round"/>
<path d="M227.187 28.997H147.557V207.561H227.187V28.997Z" fill="#92E3A9"/>
<path d="M175.548 23.291H196.747" stroke="white" stroke-width="2.24647" stroke-linecap="round" stroke-linejoin="round"/>
<path d="M184.519 213.882C184.519 215.342 183.605 216.525 182.475 216.525C181.344 216.525 180.438 215.342 180.438 213.882C180.438 212.421 181.351 211.231 182.475 211.231C183.598 211.231 184.519 212.414 184.519 213.882Z" fill="white"/>
<path d="M187.372 73.4321C194.998 73.4321 201.18 66.2241 201.18 57.3324C201.18 48.4408 194.998 41.2327 187.372 41.2327C179.746 41.2327 173.564 48.4408 173.564 57.3324C173.564 66.2241 179.746 73.4321 187.372 73.4321Z" fill="white"/>
<path d="M187.372 57.1302C190.267 57.1302 192.614 54.3912 192.614 51.0124C192.614 47.6335 190.267 44.8945 187.372 44.8945C184.477 44.8945 182.13 47.6335 182.13 51.0124C182.13 54.3912 184.477 57.1302 187.372 57.1302Z" fill="#263238" stroke="#263238" stroke-width="0.748824" stroke-linecap="round" stroke-linejoin="round"/>
<path d="M187.372 58.7552C182.13 58.7552 177.839 62.7764 177.839 67.7411C177.844 68.2031 177.886 68.664 177.967 69.119C179.13 70.476 180.572 71.5653 182.196 72.3122C183.819 73.0591 185.585 73.4458 187.372 73.4458C189.159 73.4458 190.925 73.0591 192.548 72.3122C194.172 71.5653 195.614 70.476 196.777 69.119C196.852 68.6633 196.892 68.2028 196.897 67.7411C196.897 62.7764 192.629 58.7552 187.372 58.7552Z" fill="#263238" stroke="#263238" stroke-width="0.748824" stroke-linecap="round" stroke-linejoin="round"/>
<path d="M204.161 127.46H170.583C169.695 127.425 168.856 127.038 168.253 126.385C167.649 125.732 167.329 124.866 167.363 123.978V103.25C167.363 91.3066 176.349 81.5869 187.372 81.5869C198.395 81.5869 207.373 91.3216 207.373 103.25V123.963C207.392 124.403 207.324 124.844 207.173 125.258C207.022 125.672 206.79 126.053 206.492 126.377C206.194 126.702 205.834 126.965 205.434 127.151C205.034 127.336 204.601 127.441 204.161 127.46ZM173.796 120.496H200.941V103.273C200.941 95.1705 194.853 88.5734 187.372 88.5734C179.891 88.5734 173.796 95.1705 173.796 103.273V120.496Z" fill="#263238"/>
<path d="M210.683 113.315H164.061V157.42H210.683V113.315Z" fill="white"/>
<path d="M194.164 143.679L190.704 135.36C191.469 134.781 192.088 134.032 192.511 133.171C192.933 132.31 193.148 131.362 193.138 130.403C193.138 127.085 190.659 124.412 187.597 124.412C184.534 124.412 182.063 127.093 182.063 130.403C182.051 131.361 182.265 132.309 182.686 133.17C183.107 134.031 183.725 134.781 184.489 135.36L181.037 143.679H194.164Z" fill="#263238" stroke="#263238" stroke-width="0.748824" stroke-linecap="round" stroke-linejoin="round"/>
<path d="M173.167 197.056C173.239 197.108 173.325 197.137 173.414 197.138C173.478 197.138 173.54 197.122 173.596 197.092C173.652 197.062 173.7 197.018 173.736 196.966L227.187 124.262V122.885L173.107 196.486C173.073 196.528 173.048 196.575 173.033 196.626C173.018 196.677 173.013 196.731 173.019 196.783C173.024 196.836 173.04 196.887 173.066 196.934C173.091 196.981 173.125 197.022 173.167 197.056Z" fill="white"/>
<path d="M216.434 55.1908C216.402 55.234 216.379 55.283 216.366 55.3351C216.354 55.3871 216.351 55.4412 216.36 55.4942C216.368 55.5471 216.387 55.5979 216.415 55.6435C216.443 55.6892 216.48 55.7287 216.524 55.7599C216.611 55.8223 216.72 55.8479 216.827 55.8311C216.933 55.8143 217.028 55.7565 217.093 55.6701L227.187 41.9441V40.5963L216.434 55.1908Z" fill="white"/>
<path d="M147.557 150.269L213.543 60.5374C213.607 60.45 213.633 60.341 213.616 60.2342C213.599 60.1275 213.541 60.0319 213.454 59.9683C213.366 59.9047 213.257 59.8785 213.15 59.8954C213.044 59.9122 212.948 59.9708 212.884 60.0582L147.587 148.891L147.557 150.269Z" fill="white"/>
<path d="M166.967 205.907C167.03 205.905 167.093 205.89 167.15 205.862C167.207 205.833 167.257 205.792 167.296 205.742L171.04 200.68C171.072 200.637 171.095 200.588 171.108 200.535C171.12 200.483 171.123 200.429 171.114 200.376C171.106 200.323 171.087 200.273 171.059 200.227C171.031 200.181 170.994 200.142 170.95 200.111C170.863 200.048 170.754 200.023 170.647 200.039C170.541 200.056 170.445 200.114 170.381 200.2L166.637 205.255C166.605 205.298 166.581 205.346 166.568 205.398C166.555 205.45 166.552 205.504 166.559 205.557C166.567 205.61 166.585 205.661 166.613 205.706C166.64 205.752 166.676 205.792 166.719 205.824C166.79 205.88 166.877 205.909 166.967 205.907Z" fill="white"/>
<path d="M227.187 138.819L183.306 198.508C183.261 198.569 183.235 198.64 183.229 198.715C183.222 198.79 183.237 198.865 183.272 198.932C183.306 198.999 183.358 199.055 183.422 199.094C183.486 199.133 183.56 199.153 183.635 199.152C183.7 199.153 183.763 199.139 183.82 199.11C183.878 199.082 183.927 199.039 183.965 198.987L227.187 140.19V138.819Z" fill="white"/>
<path d="M73.0715 54.9287C73.814 53.2836 74.1725 51.4911 74.1199 49.687C74.1199 46.3397 70.0688 44.4003 65.3062 43.8686C60.5437 43.3369 58.432 45.2764 59.1359 46.5119C59.8674 47.531 60.7603 48.4238 61.7793 49.1553C61.7793 49.1553 57.0168 46.512 53.8418 48.6311C50.6667 50.7503 55.257 49.8667 54.3734 51.9784C53.4898 54.09 48.5551 53.2139 47.3195 58.8526C46.0839 64.4912 49.6109 70.1373 46.4359 72.6085C43.2609 75.0796 33.7059 71.7248 30.9203 77.8952C28.1346 84.0655 32.0884 86.8062 25.3939 90.6851C18.6995 94.564 13.8171 98.353 15.7566 107.871C17.696 117.388 24.0461 120.72 36.5664 117.358C49.0867 113.996 48.2031 106.425 52.2917 98.6376C56.3803 90.8498 62.7003 92.4673 64.6398 88.0567C66.5792 83.6461 64.1081 78.3594 64.2878 74.3008C64.4676 70.2422 68.5187 69.3661 70.1062 64.5661C71.6937 59.7661 73.0715 54.9287 73.0715 54.9287Z" fill="#263238" stroke="#263238" stroke-width="0.748824" stroke-linecap="round" stroke-linejoin="round"/>
<path d="M17.2168 107.691C16.8884 108.354 16.7216 109.085 16.73 109.825" stroke="white" stroke-width="0.374412" stroke-linecap="round" stroke-linejoin="round"/>
<path d="M66.3022 51.4317C66.3022 51.4317 64.1007 48.8857 68.339 50.0688C73.6781 51.5665 67.4105 57.7443 64.9993 58.9873C60.1619 61.4659 53.7669 60.6722 50.0228 65.1801C46.6231 69.2537 51.2134 73.4995 49.1766 76.727C47.1398 79.9544 38.9851 78.0823 36.2744 81.9687C33.5636 85.8551 41.1941 94.197 33.3839 98.7798C27.7378 102.097 21.5525 103.37 18.5647 105.998" stroke="white" stroke-width="0.374412" stroke-linecap="round" stroke-linejoin="round"/>
<path d="M53.6396 66.498C53.1768 67.5809 53.0364 68.7744 53.2352 69.9351C53.9092 72.8181 57.818 78.2546 54.2536 81.3098C50.6892 84.365 44.5713 84.1928 43.5604 87.7721C42.5495 91.3515 44.5788 101.184 41.1867 105.744C37.7945 110.304 31.1674 109.99 27.603 113.045C24.0386 116.1 24.5478 117.8 24.5478 117.8" stroke="white" stroke-width="0.374412" stroke-linecap="round" stroke-linejoin="round"/>
<path d="M55.4367 63.1433C55.1281 63.5795 54.8432 64.0319 54.5831 64.4987" stroke="white" stroke-width="0.374412" stroke-linecap="round" stroke-linejoin="round"/>
<path d="M75.3555 107.421L76.2166 114.161C76.2166 114.161 80.7096 118.654 84.0119 121.432C87.3142 124.21 95.7759 130.088 95.7759 130.088L91.4852 131.309C91.4852 131.309 77.4597 122.997 74.689 122.323C71.9184 121.649 69.8441 117.65 68.983 116.437C68.1219 115.224 73.1015 106.208 75.3555 107.421Z" fill="white" stroke="#263238" stroke-width="0.748824" stroke-linecap="round" stroke-linejoin="round"/>
<path d="M83.922 217.072C83.922 217.072 88.1603 220.651 89.9126 221.849C91.6648 223.047 93.7091 223.586 93.3871 224.238C93.0651 224.889 92.189 225.541 88.063 224.987C83.9369 224.432 82.7463 223.032 81.9825 222.815C81.2187 222.598 79.3766 223.144 77.9688 222.276C76.561 221.407 78.7925 216.233 78.7925 216.233C79.4109 216.956 80.2651 217.437 81.2039 217.59C82.1427 217.744 83.1056 217.56 83.922 217.072Z" fill="white" stroke="#263238" stroke-width="0.748824" stroke-linecap="round" stroke-linejoin="round"/>
<path d="M93.3721 224.238C93.3754 224.203 93.3754 224.168 93.3721 224.133C90.9899 224.352 88.5878 224.126 86.2883 223.466C83.6224 222.837 82.8362 221.422 80.2977 221.422C79.3015 221.431 78.3111 221.269 77.3698 220.943C77.3425 221.193 77.3767 221.445 77.4693 221.679C77.562 221.913 77.7103 222.12 77.9014 222.283C79.3092 223.152 81.1588 222.605 81.9151 222.822C82.6714 223.04 83.8696 224.455 87.9956 224.994C92.1216 225.533 93.0427 224.889 93.3721 224.238Z" fill="white" stroke="#263238" stroke-width="0.748824" stroke-linecap="round" stroke-linejoin="round"/>
<path d="M61.7344 72.3464C61.7344 72.3464 62.5506 77.8427 61.5022 80.0593C60.4539 82.2758 57.174 82.5154 54.3734 82.9872C51.5728 83.4589 45.1404 85.9076 45.8368 92.2202C46.5332 98.5327 54.6056 112.206 54.6056 116.063C54.6056 119.919 52.1494 121.904 49.4611 129.384C46.7729 136.865 47.1248 150.778 47.9635 159.779C48.5782 165.719 49.7516 171.589 51.468 177.309C51.468 177.309 44.7286 188.182 41.7333 192.855C38.738 197.527 28.2545 217.873 28.2545 217.873C28.2545 217.873 28.2545 218.569 29.8869 219.041C31.0354 219.32 32.2236 219.399 33.3989 219.273C33.3989 219.273 53.4973 195.079 57.2414 190.99C60.9855 186.901 64.49 179.758 64.9543 176.493C65.4186 173.228 64.842 153.234 64.842 153.234C64.842 153.234 69.0429 163.284 72.3302 168.428C74.3241 171.576 76.1536 174.825 77.8116 178.163C77.3513 182.393 77.3513 186.662 77.8116 190.893C78.6278 196.733 77.9389 215.499 78.7551 217.019C79.5713 218.539 82.7389 217.903 83.4428 217.206C84.1466 216.51 84.4761 211.965 84.4761 211.965C84.4761 211.965 85.8764 197.737 86.7226 191.042C87.5688 184.348 88.9691 178.649 88.4823 177.129C87.9956 175.609 85.0902 159.36 82.8662 151.669C80.6422 143.979 73.8803 129.579 72.3826 125.842C70.885 122.106 70.0388 118.706 70.2784 117.538C70.5181 116.37 75.0709 109.361 76.269 107.489C76.9521 106.22 77.3288 104.808 77.3691 103.368C77.4094 101.927 77.1122 100.497 76.5012 99.1917C75.1009 96.1515 76.5012 92.0554 76.269 89.6068C76.0369 87.1581 72.4126 86.0948 70.5405 85.1662C68.6685 84.2377 67.9646 82.126 67.9646 80.3738C68.0789 78.8977 68.4356 77.4506 69.0204 76.0905C69.0204 76.0905 63.2545 72.3464 61.7344 72.3464Z" fill="white" stroke="#263238" stroke-width="0.748824" stroke-linecap="round" stroke-linejoin="round"/>
<path d="M75.9021 97.3496C75.2863 95.7848 74.7735 94.1814 74.367 92.5496" stroke="#263238" stroke-width="0.748824" stroke-linecap="round" stroke-linejoin="round"/>
<path d="M60.7234 110.364C60.7234 110.364 62.8351 110.828 67.066 108.717" stroke="#263238" stroke-width="0.748824" stroke-linecap="round" stroke-linejoin="round"/>
<path d="M82.8886 151.594C80.7695 144.226 74.4868 130.77 72.6073 126.329C63.6214 129.699 55.2196 126.823 51.2733 124.966C50.7042 126.209 50.0902 127.647 49.4611 129.384C46.7729 136.872 47.1248 150.778 47.9635 159.779C48.5782 165.719 49.7516 171.589 51.468 177.309C51.468 177.309 44.7286 188.182 41.7333 192.855C38.738 197.527 28.2545 217.873 28.2545 217.873C28.2545 217.873 28.2545 218.569 29.8869 219.041C31.0354 219.32 32.2236 219.399 33.3989 219.273C33.3989 219.273 53.4973 195.079 57.2414 190.99C60.9855 186.901 64.49 179.758 64.9543 176.493C65.4186 173.228 64.842 153.234 64.842 153.234C64.842 153.234 69.0429 163.283 72.3302 168.428C74.3241 171.576 76.1536 174.825 77.8116 178.163C77.3513 182.393 77.3513 186.662 77.8116 190.893C78.6278 196.733 77.9389 215.499 78.7551 217.019C79.5713 218.539 82.7389 217.903 83.4428 217.206C84.1466 216.51 84.4761 211.965 84.4761 211.965C84.4761 211.965 85.8764 197.737 86.7226 191.042C87.5688 184.348 88.9691 178.649 88.4823 177.129C87.9956 175.609 85.1126 159.307 82.8886 151.594Z" fill="#263238" stroke="#263238" stroke-width="0.748824" stroke-linecap="round" stroke-linejoin="round"/>
<path d="M128.672 144.174V142.646H129.952V130.65H128.672H116.032H114.751V142.646H116.032V144.174H114.744V146.959H119.678V146.023H125.025V146.959H129.96V144.174H128.672Z" fill="#92E3A9" stroke="#263238" stroke-width="0.748824" stroke-linecap="round" stroke-linejoin="round"/>
<path d="M46.975 127.063H135.157C135.51 127.063 135.849 127.203 136.099 127.453C136.349 127.703 136.489 128.042 136.489 128.396V131.077C136.489 131.43 136.349 131.769 136.099 132.019C135.849 132.269 135.51 132.41 135.157 132.41H46.975V127.055V127.063Z" fill="#92E3A9" stroke="#263238" stroke-width="0.748824" stroke-linecap="round" stroke-linejoin="round"/>
<path d="M110.266 126.262H104.897C104.487 126.262 104.155 126.594 104.155 127.003V132.477C104.155 132.886 104.487 133.218 104.897 133.218H110.266C110.675 133.218 111.007 132.886 111.007 132.477V127.003C111.007 126.594 110.675 126.262 110.266 126.262Z" fill="#92E3A9" stroke="#263238" stroke-width="0.748824" stroke-linecap="round" stroke-linejoin="round"/>
<path d="M49.734 131.992C50.9764 124.405 45.833 117.247 38.246 116.004C30.6589 114.762 23.5011 119.905 22.2587 127.492C21.0162 135.079 26.1596 142.237 33.7467 143.48C41.3338 144.722 48.4915 139.579 49.734 131.992Z" fill="#92E3A9" stroke="#263238" stroke-width="0.748824" stroke-linecap="round" stroke-linejoin="round"/>
<path d="M38.8578 129.706C39.6648 129.32 40.3497 128.718 40.8371 127.968C41.3246 127.218 41.5958 126.347 41.6209 125.453C41.6209 122.72 39.1049 120.503 35.9973 120.503C32.8896 120.503 30.3736 122.75 30.3736 125.453C30.397 126.348 30.6676 127.219 31.1552 127.969C31.6429 128.72 32.3287 129.321 33.1368 129.706C32.3291 130.094 31.644 130.697 31.1565 131.448C30.6691 132.2 30.3982 133.072 30.3736 133.967C30.3736 136.7 32.8896 138.917 35.9973 138.917C39.1049 138.917 41.6209 136.67 41.6209 133.967C41.5947 133.072 41.3231 132.201 40.8358 131.45C40.3486 130.698 39.6643 130.095 38.8578 129.706Z" fill="white" stroke="#263238" stroke-width="0.748824" stroke-linecap="round" stroke-linejoin="round"/>
<path d="M93.0277 132.529C93.0277 132.529 97.3859 134.371 98.7337 134.371C100.082 134.371 101.639 133.016 102.41 131.376C103.182 129.736 103.159 128.957 102.703 129.347L101.737 130.096C101.737 130.096 102.485 128.456 101.639 128.65C101.053 128.846 100.567 129.262 100.284 129.811C100.284 129.811 100.186 128.358 99.4152 129.062C98.9047 129.525 98.4499 130.045 98.0598 130.612C98.0598 130.612 97.9625 128.778 97.4757 129.257C96.989 129.736 95.1619 132.35 95.1619 132.35L93.0277 132.529Z" fill="white" stroke="#263238" stroke-width="0.748824" stroke-linecap="round" stroke-linejoin="round"/>
<path d="M98.0598 130.597C98.0598 130.597 97.7677 132.919 96.3225 133.308L98.0598 130.597Z" fill="white"/>
<path d="M98.0598 130.597C98.0598 130.597 97.7677 132.919 96.3225 133.308" stroke="#263238" stroke-width="0.748824" stroke-linecap="round" stroke-linejoin="round"/>
<path d="M100.284 129.826C100.284 129.826 99.5349 133.495 98.3518 134.079L100.284 129.826Z" fill="white"/>
<path d="M100.284 129.826C100.284 129.826 99.5349 133.495 98.3518 134.079" stroke="#263238" stroke-width="0.748824" stroke-linecap="round" stroke-linejoin="round"/>
<path d="M101.737 130.111C101.35 131.45 100.831 132.747 100.186 133.982L101.737 130.111Z" fill="white"/>
<path d="M101.737 130.111C101.35 131.45 100.831 132.747 100.186 133.982" stroke="#263238" stroke-width="0.748824" stroke-linecap="round" stroke-linejoin="round"/>
<path d="M70.2634 84.9416C69.5092 84.4324 68.8984 83.7381 68.4893 82.9252C68.0802 82.1123 67.8866 81.208 67.9271 80.2989C68.0614 78.8462 68.4306 77.4249 69.0204 76.0905C69.0204 76.0905 63.2919 72.3464 61.7718 72.3464C61.7718 72.3464 62.588 77.8427 61.5396 80.0593C61.196 80.7487 60.6357 81.3064 59.9446 81.6468C61.3291 85.3741 63.2053 88.8998 65.5234 92.1303C67.6276 94.7737 68.6535 89.2024 70.2634 84.9416Z" fill="white" stroke="#263238" stroke-width="0.748824" stroke-linecap="round" stroke-linejoin="round"/>
<path d="M52.5837 83.7435C51.1548 83.9875 49.8021 84.5603 48.6325 85.4167C47.4629 86.2731 46.5084 87.3897 45.8443 88.6782C43.5379 93.1262 33.4588 113.315 34.3199 114.52C39.2172 121.409 57.0317 126.367 58.8439 128.179C60.6555 130.074 62.6439 131.791 64.7821 133.308C66.5942 134.461 70.211 133.967 70.87 133.638C71.529 133.308 72.0232 131.825 70.87 131.825C70.4294 131.831 70.0002 131.686 69.654 131.413C69.3078 131.141 69.0657 130.757 68.968 130.328C68.8032 129.669 70.7801 130.987 71.7686 130.493C72.757 129.998 69.5596 128.194 68.5711 127.37C67.5827 126.546 66.759 125.401 65.441 125.401C64.1231 125.401 61.6445 125.401 61.6445 125.401C61.6445 125.401 55.579 121.005 51.9098 117.733C49.0547 115.156 45.9405 112.883 42.6169 110.948L53.7369 92.6545" fill="white"/>
<path d="M52.5837 83.7435C51.1548 83.9875 49.8021 84.5603 48.6325 85.4167C47.4629 86.2731 46.5084 87.3897 45.8443 88.6782C43.5379 93.1262 33.4588 113.315 34.3199 114.52C39.2172 121.409 57.0317 126.367 58.8439 128.179C60.6555 130.074 62.6439 131.791 64.7821 133.308C66.5942 134.461 70.211 133.967 70.87 133.638C71.529 133.308 72.0232 131.825 70.87 131.825C70.4294 131.831 70.0002 131.686 69.654 131.413C69.3078 131.141 69.0657 130.757 68.968 130.328C68.8032 129.669 70.7801 130.987 71.7686 130.493C72.757 129.998 69.5596 128.194 68.5711 127.37C67.5827 126.546 66.759 125.401 65.441 125.401C64.1231 125.401 61.6445 125.401 61.6445 125.401C61.6445 125.401 55.579 121.005 51.9098 117.733C49.0547 115.156 45.9405 112.883 42.6169 110.948L53.7369 92.6545" stroke="#263238" stroke-width="0.748824" stroke-linecap="round" stroke-linejoin="round"/>
<path d="M68.5636 127.377C67.5752 126.554 66.7515 125.408 65.4336 125.408C64.1156 125.408 61.637 125.408 61.637 125.408C61.637 125.408 55.5716 121.012 51.9023 117.74C49.0472 115.164 45.933 112.89 42.6094 110.956L47.0574 103.632C44.7834 102.256 42.1822 101.514 39.5243 101.483C36.529 107.728 33.8407 113.899 34.2825 114.55C39.1798 121.439 56.9943 126.396 58.8065 128.209C60.6181 130.104 62.6065 131.821 64.7446 133.338C66.5568 134.491 70.1736 133.997 70.8326 133.668C71.4915 133.338 71.9858 131.855 70.8326 131.855C70.392 131.861 69.9628 131.716 69.6166 131.443C69.2704 131.17 69.0283 130.787 68.9306 130.358C68.7658 129.699 70.7427 131.017 71.7312 130.522C72.7196 130.028 69.5521 128.209 68.5636 127.377Z" fill="white" stroke="#263238" stroke-width="0.748824" stroke-linecap="round" stroke-linejoin="round"/>
<path d="M74.5917 64.2816C74.0076 63.1134 74.0076 62.1774 74.2397 60.5374C74.4719 58.8975 73.0716 54.9213 73.0716 54.9213C71.6413 57.3924 67.5078 58.8601 65.6807 59.4142C63.6663 60.0282 66.6092 61.4211 66.2947 63.2856C65.9802 65.1502 61.959 66.2285 61.959 66.2285C61.959 66.2285 60.7834 63.8098 59.1509 63.8098C57.5185 63.8098 56.3578 67.5539 57.2863 69.5383C57.5283 70.088 57.9498 70.5393 58.4817 70.8182C59.0136 71.0971 59.6245 71.187 60.2142 71.0734C60.2142 71.0734 60.1019 74.5854 62.3184 75.6337C64.6835 76.7622 67.1508 77.6624 69.6869 78.322C71.0872 78.5541 72.4875 77.8577 73.0716 75.7535C73.5283 73.633 73.841 71.4839 74.0076 69.3211C74.9881 68.6796 75.8903 67.9256 76.6959 67.0747C77.2575 66.2659 75.1757 65.4497 74.5917 64.2816Z" fill="white" stroke="#263238" stroke-width="0.748824" stroke-linecap="round" stroke-linejoin="round"/>
<path d="M72.3153 64.334C72.3153 64.9779 72.1056 65.4946 71.851 65.4946C71.5964 65.4946 71.3867 64.9779 71.3867 64.334C71.3867 63.69 71.5964 63.1733 71.851 63.1733C72.1056 63.1733 72.3153 63.69 72.3153 64.334Z" fill="#263238"/>
<path d="M70.3009 62.402C70.3009 62.402 71.5439 61.0017 72.4725 61.3162" stroke="#263238" stroke-width="0.748824" stroke-linecap="round" stroke-linejoin="round"/>
<path d="M72.4725 72.0019C71.9113 72.1712 71.3157 72.1912 70.7444 72.0598C70.1731 71.9285 69.646 71.6505 69.2151 71.2531" stroke="#263238" stroke-width="0.748824" stroke-linecap="round" stroke-linejoin="round"/>
<path d="M28.3069 217.873C28.3069 217.873 25.5138 223.474 25.6186 224.238C25.7234 225.002 31.2647 229.015 33.8557 230.423C36.4466 231.831 41.1342 232.055 40.8047 230.101C40.4753 228.147 36.0272 226.844 34.9415 223.908C34.3632 222.39 33.8633 220.843 33.4438 219.273C31.6337 219.3 29.8529 218.815 28.3069 217.873Z" fill="white" stroke="#263238" stroke-width="0.748824" stroke-linecap="round" stroke-linejoin="round"/>
<path d="M40.8197 230.131C38.826 230.398 36.7973 230.111 34.9564 229.3C30.9352 227.555 27.0413 223.991 25.9705 222.98C25.7803 223.384 25.6589 223.816 25.6111 224.26C25.7234 225.009 31.2572 229.038 33.8481 230.446C36.4391 231.853 41.0893 232.048 40.8197 230.131Z" fill="white" stroke="#263238" stroke-width="0.748824" stroke-linecap="round" stroke-linejoin="round"/>
</svg>
