<svg width="32" height="32" viewBox="0 0 32 32" fill="none" xmlns="http://www.w3.org/2000/svg">
<path d="M26.9976 25.7637C27.3379 26.1039 27.3379 26.6563 26.9976 26.9974C26.6564 27.3377 26.1041 27.3377 25.7638 26.9974L13.7378 14.9705C13.3975 14.6302 13.3975 14.0779 13.7378 13.7376C14.0781 13.3973 14.6295 13.3973 14.9707 13.7376L26.9976 25.7637Z" fill="#55ACEE"/>
<path d="M31.6085 29.7182C32.1305 30.2402 32.1305 31.0865 31.6085 31.6076C31.0874 32.1296 30.2411 32.1296 29.7191 31.6076L24.6806 26.5691C24.1586 26.0471 24.1586 25.2008 24.6806 24.6797C25.2017 24.1577 26.048 24.1577 26.57 24.6797L31.6085 29.7182Z" fill="#292F33"/>
<path d="M2.10986 4.56224L2.73967 3.93243L13.4509 14.6374L12.8211 15.2672L2.10986 4.56224ZM3.37216 2.04122L4.00197 1.41141L15.3403 12.7498L14.7096 13.3796L3.37216 2.04122Z" fill="#99AAB5"/>
<path d="M0.852051 8.34023L8.41066 0.781616L9.04047 1.41143L1.48186 8.97004L0.852051 8.34023ZM1.48186 11.4893L10.9317 2.04124L11.5615 2.67105L2.11167 12.12L1.48186 11.4893ZM3.37218 13.3796L13.45 3.30175L14.0798 3.93156L4.00199 14.0094L3.37218 13.3796ZM5.89142 14.6401L14.7097 5.82099L15.3395 6.4508L6.52034 15.2699L5.89142 14.6401ZM8.41066 15.8988L15.9693 8.34023L16.5991 8.97004L9.04047 16.5295L8.41066 15.8988Z" fill="#99AAB5"/>
<path d="M0.852051 7.08061L1.48186 6.4508L10.9317 15.8988L10.3019 16.5286L0.852051 7.08061ZM6.52212 1.41143L7.15104 0.781616L16.6 10.2297L15.9702 10.8604L6.52212 1.41143Z" fill="#99AAB5"/>
<path d="M2.12857 2.12848C-0.963472 5.22141 -0.649903 10.5485 2.82875 14.0272C6.30829 17.5067 11.6345 17.8194 14.7265 14.7274C17.8195 11.6344 17.5068 6.3091 14.0264 2.82955C10.5477 -0.64999 5.22149 -0.963559 2.12857 2.12848ZM13.572 13.572C11.1374 16.0066 6.85971 15.6779 4.018 12.837C1.17717 9.9962 0.849348 5.71938 3.28396 3.28387C5.71946 0.84837 9.99629 1.17797 12.8371 4.0188C15.6779 6.85962 16.0075 11.1373 13.572 13.572Z" fill="#55ACEE"/>
<path d="M15.3393 12.7496C15.6877 13.0979 15.6868 13.6618 15.3393 14.0092L14.0788 15.2697C13.7314 15.6172 13.1675 15.618 12.8192 15.2697C12.4709 14.9214 12.4709 14.3575 12.8192 14.0092L14.0788 12.7496C14.4271 12.4013 14.991 12.4013 15.3393 12.7496Z" fill="#226699"/>
<path d="M15.9692 14.6392C16.3175 14.9876 16.3175 15.5514 15.9692 15.8998C15.6209 16.2481 15.057 16.2481 14.7096 15.8998L14.0797 15.2699C13.7314 14.9216 13.7323 14.3577 14.0797 14.0094C14.4281 13.6611 14.9911 13.6611 15.3403 14.0094L15.9692 14.6392Z" fill="#226699"/>
<path d="M26.2626 24.3741C26.7847 24.8952 26.154 25.1117 25.6328 25.6337C25.1108 26.1548 24.8943 26.7846 24.3732 26.2635C23.8512 25.7415 23.8512 24.8952 24.3732 24.3741C24.8943 23.852 25.7415 23.852 26.2626 24.3741Z" fill="#226699"/>
<path d="M19.3588 2.7645C18.6631 3.46024 18.6631 4.58801 19.3588 5.28374L19.9886 5.91355L20.6185 5.28374L21.8781 4.02412L22.5097 3.39431L21.8781 2.7645C21.1841 2.06877 20.0555 2.06877 19.3588 2.7645Z" fill="#BE1931"/>
<path d="M19.9913 5.91267L22.5124 3.39343L23.1422 4.02324L20.6211 6.54337L19.9913 5.91267Z" fill="#99AAB5"/>
<path d="M20.6193 6.54335L23.1403 4.02411C24.4525 4.45883 31.269 8.53968 31.0338 8.77575C30.3586 9.45188 29.3306 8.9548 29.3306 8.9548C29.3306 8.9548 30.0824 9.6728 29.4348 10.3195C28.7872 10.9663 28.071 10.2144 28.071 10.2144C28.071 10.2144 28.9342 10.8745 28.2037 11.6077C27.4679 12.3435 26.8122 11.4749 26.8122 11.4749C26.8122 11.4749 27.4617 12.3488 26.8995 12.9118C26.3357 13.4739 25.5508 12.7346 25.5508 12.7346C25.5508 12.7346 25.9232 13.6236 25.2462 14.2988C24.9237 14.6231 21.1404 7.76912 20.6193 6.54335Z" fill="#E1E8ED"/>
<path d="M23.4601 6.89874C23.975 6.29031 28.2991 10.2188 27.5401 10.9778C26.7802 11.7359 22.841 7.62921 23.4601 6.89874ZM24.979 13.5336C25.5847 13.1389 22.2424 8.35256 21.8299 8.69909C21.8023 8.72225 21.7898 8.76322 21.7827 8.81133C22.5693 10.2598 23.5697 12.0129 24.2984 13.147C24.5977 13.4516 24.8471 13.6191 24.979 13.5336ZM25.2213 5.30862C24.873 5.72018 29.6611 9.06254 30.0558 8.45767C30.1582 8.29911 29.9043 7.97574 29.4714 7.59358C28.389 6.89696 26.9272 6.0195 25.6542 5.30328C25.4404 5.24538 25.2819 5.23736 25.2213 5.30862ZM22.5586 7.85548C22.9381 7.47332 26.6929 11.9435 26.1237 12.3924C25.5553 12.8378 22.1016 8.31603 22.5586 7.85548ZM24.3768 6.03731C23.9955 6.4168 28.4656 10.1707 28.9128 9.60238C29.36 9.03314 24.8382 5.57943 24.3768 6.03731Z" fill="#CCD6DD"/>
</svg>
