<svg width="33" height="26" viewBox="0 0 33 26" fill="none" xmlns="http://www.w3.org/2000/svg">
<path d="M3.66668 0.916668C3.66668 0.916668 3.66668 0 4.58335 0H10.0834C10.0834 0 11 0 11 0.916668V2.75H3.66668V0.916668Z" fill="#66757F"/>
<path d="M0 5.5002C0 5.5002 0 1.83353 3.66667 1.83353H29.3334C29.3334 1.83353 33.0001 1.83353 33.0001 5.5002V22.0002C33.0001 22.0002 33.0001 25.6669 29.3334 25.6669H3.66667C3.66667 25.6669 0 25.6669 0 22.0002V5.5002Z" fill="#31373D"/>
<path d="M19.25 22.9169C24.3126 22.9169 28.4166 18.8129 28.4166 13.7503C28.4166 8.68763 24.3126 4.58357 19.25 4.58357C14.1873 4.58357 10.0833 8.68763 10.0833 13.7503C10.0833 18.8129 14.1873 22.9169 19.25 22.9169Z" fill="#CCD6DD"/>
<path d="M19.25 21.0835C23.3001 21.0835 26.5834 17.8003 26.5834 13.7502C26.5834 9.7001 23.3001 6.41685 19.25 6.41685C15.1999 6.41685 11.9167 9.7001 11.9167 13.7502C11.9167 17.8003 15.1999 21.0835 19.25 21.0835Z" fill="#31373D"/>
<path d="M19.2499 18.3338C21.7812 18.3338 23.8333 16.2818 23.8333 13.7505C23.8333 11.2192 21.7812 9.16714 19.2499 9.16714C16.7186 9.16714 14.6666 11.2192 14.6666 13.7505C14.6666 16.2818 16.7186 18.3338 19.2499 18.3338Z" fill="#3B88C3"/>
<path d="M29.7917 6.41706C30.5511 6.41706 31.1667 5.80145 31.1667 5.04206C31.1667 4.28267 30.5511 3.66706 29.7917 3.66706C29.0323 3.66706 28.4167 4.28267 28.4167 5.04206C28.4167 5.80145 29.0323 6.41706 29.7917 6.41706Z" fill="white"/>
<path d="M11 5.04206C11 5.80198 10.3849 6.41706 9.62502 6.41706H5.04168C4.28176 6.41706 3.66668 5.80198 3.66668 5.04206C3.66668 4.28214 4.28176 3.66706 5.04168 3.66706H9.62502C10.3849 3.66706 11 4.28214 11 5.04206Z" fill="#F5F8FA"/>
</svg>
