<svg width="27" height="33" viewBox="0 0 27 33" fill="none" xmlns="http://www.w3.org/2000/svg">
<path d="M5.69207 29.8842C5.39112 30.9702 6.1238 32.0694 7.32898 32.3402C7.5125 32.382 7.69602 32.4004 7.87743 32.4004C8.88504 32.4004 9.80194 31.7865 10.0586 30.867L11.8333 24.4773L8.12213 21.1372L5.69207 29.8842ZM6.73905 17.4731L9.63318 7.40413C9.78717 6.87129 9.4124 6.33148 8.79504 6.19796C5.70964 5.53222 2.58277 7.15163 1.81142 9.81586L0.0345741 16.0258C-0.119414 16.5587 0.255361 17.0985 0.872721 17.232L5.3419 18.1971C5.95996 18.33 6.58506 18.006 6.73905 17.4731ZM25.8758 10.1253H24.7508C24.1292 10.1253 23.6257 10.5784 23.6257 11.1378V12.1504H21.1823L17.893 9.18999C17.1132 8.48691 16.0747 8.10025 14.9707 8.10025C13.0709 8.10025 11.422 9.25833 10.9607 10.9176L9.06786 17.7345C8.97371 18.0738 8.97876 18.4292 9.08251 18.7662C9.18625 19.1032 9.38517 19.4103 9.6599 19.6577L15.7505 25.1392V30.3759C15.7505 31.4941 16.7581 32.401 18.0006 32.401C19.243 32.401 20.2506 31.4941 20.2506 30.3759V25.1392C20.2506 24.0577 19.7824 23.0408 18.9323 22.2757L15.6401 19.3128C15.6507 19.2811 15.6746 19.2564 15.6837 19.2235L17.0823 14.1881L18.6594 15.6075C19.0813 15.9872 19.6537 16.2011 20.2499 16.2011H23.625V31.3891C23.625 31.9485 24.1285 32.4016 24.7501 32.4016H25.8751C26.4967 32.4016 27.0001 31.9485 27.0001 31.3891V11.1378C27.0008 10.5784 26.4974 10.1253 25.8758 10.1253ZM16.8756 6.07519C18.7396 6.07519 20.2506 4.71523 20.2506 3.03759C20.2506 1.35996 18.7396 0 16.8756 0C15.0115 0 13.5005 1.35996 13.5005 3.03759C13.5005 4.71523 15.0115 6.07519 16.8756 6.07519Z" fill="black"/>
</svg>
