<svg width="28" height="28" viewBox="0 0 28 28" fill="none" xmlns="http://www.w3.org/2000/svg">
<path d="M27.7587 24.8889C27.7587 26.6 26.3587 28 24.6476 28H4.42548C2.71437 28 1.31438 26.6 1.31438 24.8889V14.7778C1.31438 13.0667 2.71437 11.6667 4.42548 11.6667H24.6476C26.3587 11.6667 27.7587 13.0667 27.7587 14.7778V24.8889Z" fill="#3F7123"/>
<path d="M1.31438 11.6667H27.7587V16.3334H1.31438V11.6667Z" fill="#3F7123"/>
<path d="M1.31438 11.6667H27.7587V17.1112H1.31438V11.6667Z" fill="#CCD6DD"/>
<path d="M1.31438 11.6667H4.42548L1.31438 17.1112V11.6667ZM9.8699 11.6667L6.7588 17.1112H12.2032L15.3143 11.6667H9.8699ZM20.7587 11.6667L17.6476 17.1112H23.0921L26.2032 11.6667H20.7587Z" fill="#292F33"/>
<path d="M0 6.38319L25.6611 0L26.9755 5.28264L1.31444 11.6666L0 6.38319Z" fill="#CCD6DD"/>
<path d="M0 6.38317L4.33376 10.9153L1.31444 11.6666L0 6.38317ZM14.9006 8.28716L10.5668 3.7543L5.28342 5.06873L9.61718 9.6016L14.9006 8.28716ZM25.4674 5.65829L21.1337 1.12542L15.8503 2.43986L20.184 6.97195L25.4674 5.65829Z" fill="#292F33"/>
</svg>
