<svg width="33" height="33" viewBox="0 0 33 33" fill="none" xmlns="http://www.w3.org/2000/svg">
<path d="M8.60495 15.6931V6.40559C8.60495 6.40559 13.0906 8.5714 10.6723 13.3524C10.592 13.5119 11.2883 13.6834 11.3785 13.5295C16.3123 5.06915 9.7874 5.64607 8.60495 0H6.1988V12.9129C5.74012 12.7666 4.9278 12.6852 4.40037 12.6852C-1.46679 12.6852 -1.46679 18.6998 4.40037 18.6998C6.55079 18.6998 8.60495 17.3534 8.60495 15.6931Z" fill="black"/>
<path d="M28.4042 0.000813134H25.9964V12.9137C25.5377 12.7674 24.7254 12.6861 24.198 12.6861C18.3319 12.6861 18.3319 18.7006 24.198 18.7006C26.3495 18.7006 28.4037 17.3537 28.4037 15.6933V6.40585C28.4037 6.40585 32.8882 8.57222 30.4705 13.3526C30.3907 13.5121 31.0859 13.6837 31.1761 13.5297C36.1116 5.07051 29.5872 5.64744 28.4042 0.000813134Z" fill="black"/>
<path d="M13.3484 14.3002V27.2131C12.8886 27.0669 12.0763 26.9855 11.55 26.9855C5.68279 26.9855 5.68279 33 11.55 33C13.7004 33 15.7545 31.6537 15.7545 29.9927V20.7053C15.7545 20.7053 20.2391 22.8711 17.8213 27.6526C17.7416 27.811 18.4368 27.9831 18.527 27.8286C23.4614 19.3699 16.937 19.9468 15.7545 14.3002H13.3484Z" fill="black"/>
</svg>
