<svg width="33" height="33" viewBox="0 0 33 33" fill="none" xmlns="http://www.w3.org/2000/svg">
<path d="M32.8026 24.3959C32.8026 24.3959 34.037 26.4396 30.3318 30.1199C26.6255 33.7993 24.5675 32.5734 24.5675 32.5734L6.44632 14.5807C6.44632 14.5807 7.35451 12.0441 9.74073 9.67359C12.1279 7.30404 14.6824 6.40219 14.6824 6.40219L32.8026 24.3959Z" fill="#D99E82"/>
<path d="M12.2123 8.8556C13.1223 9.7593 16.4158 14.4947 15.5067 15.3984C14.5967 16.3012 9.82793 13.0307 8.91788 12.127L0.681843 3.94849C-0.227281 3.04479 -0.227281 1.58078 0.681843 0.677082C1.5919 -0.225694 3.0662 -0.225694 3.97626 0.677082L12.2123 8.8556Z" fill="#C1694F"/>
<path d="M0.681062 3.94822L3.97641 0.676808L8.91803 5.58392L5.62361 8.85533L0.681062 3.94822Z" fill="#292F33"/>
<path d="M17.4289 33C19.9959 33 22.0768 30.9336 22.0768 28.3846C22.0768 25.8356 19.9959 23.7692 17.4289 23.7692C14.862 23.7692 12.781 25.8356 12.781 28.3846C12.781 30.9336 14.862 33 17.4289 33Z" fill="#BE1931"/>
<path d="M17.4292 33C16.9161 33 16.4996 32.5874 16.4996 32.0769V24.6923C16.4996 24.1818 16.9161 23.7692 17.4292 23.7692C17.9432 23.7692 18.3588 24.1818 18.3588 24.6923V32.0769C18.3588 32.5874 17.9432 33 17.4292 33Z" fill="#662113"/>
</svg>
