<svg width="22" height="34" viewBox="0 0 22 34" fill="none" xmlns="http://www.w3.org/2000/svg">
<path d="M15.1109 1.88886H7.55546C7.03603 1.88886 6.61104 1.46386 6.61104 0.944428C6.61104 0.424993 7.03603 0 7.55546 0H15.1109C15.6303 0 16.0553 0.424993 16.0553 0.944428C16.0553 1.46386 15.6303 1.88886 15.1109 1.88886Z" fill="#292F33"/>
<path d="M6.61104 0.944945H8.49989V2.8338H6.61104V0.944945ZM14.1665 0.944945H16.0553V2.8338H14.1665V0.944945Z" fill="#292F33"/>
<path d="M6.61104 2.83372H8.49989V8.50029H6.61104V2.83372ZM14.1665 2.83372H16.0553V8.50029H14.1665V2.83372Z" fill="#CCD6DD"/>
<path d="M0.944551 23.6111C0.425116 23.6111 0.000123522 23.1861 0.000123522 22.6667V17.0001C0.000123522 16.4807 0.425116 16.0557 0.944551 16.0557C1.46399 16.0557 1.88898 16.4807 1.88898 17.0001V22.6667C1.88898 23.1861 1.46399 23.6111 0.944551 23.6111ZM3.77783 32.2998H2.83341C2.31397 32.2998 1.88898 31.8748 1.88898 31.3554V30.411C1.88898 29.8915 2.31397 29.4665 2.83341 29.4665H3.77783C4.29727 29.4665 4.72226 29.8915 4.72226 30.411V31.3554C4.72226 31.8748 4.29727 32.2998 3.77783 32.2998ZM19.8331 32.2998H18.8887C18.3692 32.2998 17.9443 31.8748 17.9443 31.3554V30.411C17.9443 29.8915 18.3692 29.4665 18.8887 29.4665H19.8331C20.3525 29.4665 20.7775 29.8915 20.7775 30.411V31.3554C20.7775 31.8748 20.3525 32.2998 19.8331 32.2998Z" fill="#292F33"/>
<path d="M19.8331 31.1666H2.83337C1.7945 31.1666 0.944513 30.3166 0.944513 29.2777V9.44471C0.944513 8.40584 1.7945 7.55586 2.83337 7.55586H19.8331C20.8719 7.55586 21.7219 8.40584 21.7219 9.44471V29.2777C21.7219 30.3166 20.8719 31.1666 19.8331 31.1666Z" fill="#4289C1"/>
<path d="M18.8887 17.0002H3.77784C3.25841 17.0002 2.83342 16.5752 2.83342 16.0558V10.3892C2.83342 9.86975 3.25841 9.44476 3.77784 9.44476H18.8887C19.4081 9.44476 19.8331 9.86975 19.8331 10.3892V16.0558C19.8331 16.5752 19.4081 17.0002 18.8887 17.0002ZM18.8887 29.2777H3.77784C3.25841 29.2777 2.83342 28.8528 2.83342 28.3333V18.889C2.83342 18.3696 3.25841 17.9446 3.77784 17.9446H18.8887C19.4081 17.9446 19.8331 18.3696 19.8331 18.889V28.3333C19.8331 28.8528 19.4081 29.2777 18.8887 29.2777Z" fill="#5DADEC"/>
<path d="M2.83339 34C3.35499 34 3.77782 33.5771 3.77782 33.0555C3.77782 32.5339 3.35499 32.1111 2.83339 32.1111C2.3118 32.1111 1.88896 32.5339 1.88896 33.0555C1.88896 33.5771 2.3118 34 2.83339 34Z" fill="#292F33"/>
<path d="M19.8331 34C20.3547 34 20.7775 33.5771 20.7775 33.0555C20.7775 32.5339 20.3547 32.1111 19.8331 32.1111C19.3115 32.1111 18.8887 32.5339 18.8887 33.0555C18.8887 33.5771 19.3115 34 19.8331 34Z" fill="#292F33"/>
<path d="M18.4164 11.3339H4.25002C3.9903 11.3339 3.77781 11.1214 3.77781 10.8617C3.77781 10.602 3.9903 10.3895 4.25002 10.3895H18.4164C18.6762 10.3895 18.8887 10.602 18.8887 10.8617C18.8887 11.1214 18.6762 11.3339 18.4164 11.3339ZM18.4164 19.8337H4.25002C3.9903 19.8337 3.77781 19.6212 3.77781 19.3615C3.77781 19.1018 3.9903 18.8893 4.25002 18.8893H18.4164C18.6762 18.8893 18.8887 19.1018 18.8887 19.3615C18.8887 19.6212 18.6762 19.8337 18.4164 19.8337Z" fill="#2A6797"/>
<path d="M5.19445 11.3339H4.25002C3.9903 11.3339 3.77781 11.1214 3.77781 10.8617C3.77781 10.602 3.9903 10.3895 4.25002 10.3895H5.19445C5.45416 10.3895 5.66666 10.602 5.66666 10.8617C5.66666 11.1214 5.45416 11.3339 5.19445 11.3339ZM5.19445 19.8337H4.25002C3.9903 19.8337 3.77781 19.6212 3.77781 19.3615C3.77781 19.1018 3.9903 18.8893 4.25002 18.8893H5.19445C5.45416 18.8893 5.66666 19.1018 5.66666 19.3615C5.66666 19.6212 5.45416 19.8337 5.19445 19.8337Z" fill="#F5F8FA"/>
</svg>
