<svg width="34" height="33" viewBox="0 0 34 33" fill="none" xmlns="http://www.w3.org/2000/svg">
<path d="M12.1427 20.2377C12.1427 22.474 10.3314 24.2854 8.09508 24.2854C5.85878 24.2854 4.04747 22.474 4.04747 20.2377C4.04747 18.0014 5.85878 16.1901 8.09508 16.1901C10.3314 16.1901 12.1427 18.0014 12.1427 20.2377Z" fill="#333333"/>
<path d="M0 30.2219C0 27.3508 5.39344 25.9044 8.09523 25.9044C10.797 25.9044 16.1905 27.3508 16.1905 30.2219V32.3806H0V30.2219Z" fill="#333333"/>
<path d="M29.9522 20.2377C29.9522 22.474 28.1409 24.2854 25.9046 24.2854C23.6683 24.2854 21.857 22.474 21.857 20.2377C21.857 18.0014 23.6683 16.1901 25.9046 16.1901C28.1409 16.1901 29.9522 18.0014 29.9522 20.2377Z" fill="#333333"/>
<path d="M20.238 19.4282C20.238 21.2173 18.7889 22.6663 16.9999 22.6663C15.2108 22.6663 13.7618 21.2173 13.7618 19.4282C13.7618 17.6392 15.2108 16.1901 16.9999 16.1901C18.7889 16.1901 20.238 17.6392 20.238 19.4282Z" fill="#333333"/>
<path d="M17.8094 30.2219C17.8094 27.3508 23.2028 25.9044 25.9046 25.9044C28.6064 25.9044 33.9998 27.3508 33.9998 30.2219V32.3806H17.8094V30.2219Z" fill="#333333"/>
<path fill-rule="evenodd" clip-rule="evenodd" d="M20.8458 25.2446C20.6298 25.324 20.4166 25.4084 20.2077 25.4976C19.2597 25.9027 18.3023 26.4501 17.5585 27.1822C17.3594 27.3783 17.1704 27.5933 17 27.827C16.8296 27.5933 16.6405 27.3783 16.4413 27.1822C15.6976 26.4501 14.7402 25.9027 13.7922 25.4976C13.5833 25.4084 13.3701 25.324 13.154 25.2446C14.3866 24.606 15.9717 24.2853 17 24.2853C18.0281 24.2853 19.6133 24.606 20.8458 25.2446Z" fill="#333333"/>
<path fill-rule="evenodd" clip-rule="evenodd" d="M13.0282 12.1428C17.2755 12.1428 20.7187 9.42454 20.7187 6.07142C20.7187 2.71826 17.2755 0 13.0282 0C8.78088 0 5.33774 2.71826 5.33774 6.07142C5.33774 6.88596 5.54091 7.66302 5.90942 8.37273C5.09548 9.37039 4.89613 10.8809 4.85739 11.8303C4.84328 12.1758 5.26046 12.3525 5.53747 12.1455C6.09302 11.7303 6.97532 11.1672 8.12144 10.7467C9.45294 11.6187 11.1631 12.1428 13.0282 12.1428Z" fill="#333333"/>
<path fill-rule="evenodd" clip-rule="evenodd" d="M18.9161 12.0338C21.009 10.6236 22.3455 8.47637 22.3455 6.07128C22.3455 5.42423 22.2488 4.79585 22.0666 4.19546C22.5443 4.09882 23.0445 4.04747 23.5598 4.04747C26.9129 4.04747 29.6312 6.22209 29.6312 8.90461C29.6312 9.67236 29.4086 10.3984 29.0121 11.0439C29.3865 11.6781 29.5196 12.4733 29.5628 13.0716C29.5877 13.4165 29.1703 13.5973 28.8868 13.3992C28.5361 13.1539 28.0584 12.8655 27.472 12.6191C26.4154 13.332 25.0503 13.7617 23.5598 13.7617C21.6968 13.7617 20.0298 13.0905 18.9161 12.0338Z" fill="#333333"/>
</svg>
