<svg width="28" height="33" viewBox="0 0 28 33" fill="none" xmlns="http://www.w3.org/2000/svg">
<path d="M26.6571 6.77184C25.5354 4.46243 23.7868 2.77987 21.5104 1.69115C18.0793 0.0415756 14.4833 -0.453296 10.8212 0.437473C6.36735 1.55918 3.72804 4.56141 2.57333 8.91628C2.24342 10.071 2.14445 11.2257 2.11145 12.4134C2.11145 12.5783 2.14445 12.7763 2.21043 12.9412C2.40838 13.5021 2.40838 14.063 2.21043 14.6568C1.88051 15.5806 1.48462 16.4713 1.08872 17.3621C0.725812 18.2529 0.263932 19.0777 0 20.0014V20.2653C0.0659829 20.3313 0.0329915 20.4303 0.0659829 20.5293C0.197949 21.0242 0.494872 21.2551 0.956753 21.2551C1.22068 21.2881 1.45162 21.2881 1.68256 21.3871C2.04547 21.585 2.14445 21.9149 1.84752 22.2448C1.38564 22.7727 1.51761 23.3995 2.17744 23.6965L2.96923 23.9934C3.13419 24.0594 3.20017 24.1583 3.03522 24.2573C2.50735 24.5872 2.54034 25.0491 2.73829 25.511C2.80428 25.6759 2.87026 25.8079 3.03522 25.8739C3.23316 26.0059 3.39812 26.1378 3.59607 26.2368C4.02496 26.5007 4.12393 26.8636 4.09094 27.2925C4.05795 27.5895 4.02496 27.8864 3.92599 28.1833C3.4971 29.305 4.68479 30.7566 5.93846 30.6907C6.92821 30.6907 7.81898 30.4267 8.74274 30.1628C9.10565 30.0638 9.43556 29.9318 9.76548 29.7999C9.99642 29.7009 10.0954 29.7669 10.1284 29.9978L10.7222 32.8681C10.7222 32.9011 10.7552 32.9671 10.7882 33.0001H10.8872C11.415 32.7031 12.0089 32.6042 12.5368 32.4062C15.8689 31.3835 19.168 30.3607 22.4672 29.338C22.6981 29.272 22.7641 29.173 22.7311 28.9751C22.5332 27.7214 22.4012 26.4677 22.2363 25.2471C22.1703 24.9501 22.2363 24.6862 22.4012 24.4223C23.358 22.9706 24.4467 21.585 25.4034 20.1004C26.2942 18.6488 27.185 17.1641 27.5149 15.4486C28.0757 12.4794 28.0098 9.54312 26.6571 6.77184ZM13.9554 15.0527C13.5595 14.7228 13.1966 14.4259 12.8337 14.0959C12.7677 14.03 12.7017 14.03 12.6027 14.063L12.0089 14.2609C11.9099 14.2609 11.8769 14.3269 11.8439 14.4259C11.745 14.9207 11.613 15.4156 11.514 15.9105H10.2274C10.0954 15.4156 9.96342 14.9207 9.86445 14.4259C9.83146 14.2939 9.79847 14.2609 9.69949 14.2609L9.10565 14.063C9.00667 14.03 8.97368 14.03 8.87471 14.0959C8.5118 14.4259 8.14889 14.7228 7.78599 15.0527C7.753 15.0857 7.65402 15.0857 7.62103 15.0857L6.63129 14.3929C6.86223 13.931 7.06017 13.4691 7.29111 13.0072C7.32411 12.8753 7.32411 12.8093 7.25812 12.7103C7.12616 12.5783 6.99419 12.4134 6.89522 12.2484C6.82923 12.1824 6.79624 12.1494 6.69727 12.1494L5.27864 12.2814C5.14667 12.3144 5.08069 12.3144 5.0477 12.1824C4.91573 11.8195 4.81675 11.4896 4.68479 11.1267C4.75077 11.0937 4.78376 11.0607 4.84975 11.0277C5.24564 10.7968 5.64154 10.5659 6.07043 10.3349C6.13641 10.2689 6.1694 10.2359 6.1694 10.137V9.51013C6.1694 9.41115 6.13641 9.37816 6.07043 9.31218C5.64154 9.11423 5.24564 8.8503 4.81675 8.61936C4.78376 8.58637 4.75077 8.55337 4.68479 8.52038C4.78376 8.15748 4.91573 7.79457 5.08069 7.43167C5.08069 7.39867 5.14667 7.36568 5.21265 7.36568C5.67453 7.39867 6.13641 7.43167 6.59829 7.49765C6.73026 7.49765 6.86223 7.49765 6.92821 7.33269C6.99419 7.16773 7.12616 7.03577 7.25812 6.9038C7.32411 6.83782 7.32411 6.77184 7.29111 6.67286C7.06017 6.21098 6.86223 5.7491 6.63129 5.25423L7.62103 4.5944C7.65402 4.56141 7.72 4.5944 7.78599 4.62739C8.14889 4.92431 8.5118 5.25423 8.87471 5.55115C8.94069 5.61713 9.00667 5.65013 9.10565 5.58414C9.30359 5.51816 9.50154 5.48517 9.69949 5.41919C9.79847 5.38619 9.83146 5.3532 9.86445 5.25423C9.96342 4.75936 10.0954 4.26448 10.2274 3.73662H11.514C11.613 4.26448 11.745 4.75936 11.8439 5.25423C11.8769 5.3532 11.9099 5.38619 12.0089 5.41919C12.2068 5.48517 12.4048 5.51816 12.6027 5.58414C12.7017 5.65013 12.7347 5.65013 12.8337 5.58414C13.1966 5.25423 13.5595 4.92431 13.9224 4.62739C13.9884 4.56141 14.0214 4.52842 14.1203 4.5944C14.4173 4.79235 14.7472 5.02329 15.0771 5.25423C14.9121 5.61713 14.7802 5.91406 14.6152 6.27696C14.5492 6.40893 14.4833 6.57389 14.4173 6.70585C14.3843 6.77184 14.4173 6.83782 14.4503 6.9038L14.8462 7.39867C14.8792 7.49765 14.9451 7.49765 15.0441 7.49765C15.506 7.46466 15.9679 7.43167 16.4298 7.36568C16.5617 7.33269 16.6277 7.36568 16.6937 7.49765C16.7927 7.82756 16.9246 8.19047 17.0236 8.52038C16.6937 8.71833 16.3968 8.88329 16.0998 9.08124C15.9349 9.18021 15.7699 9.2462 15.638 9.34517C15.605 9.37816 15.539 9.44414 15.539 9.47714C15.539 9.70808 15.572 9.93902 15.539 10.17C15.539 10.2359 15.572 10.2689 15.638 10.3349C16.0668 10.5659 16.4627 10.7968 16.8916 11.0277C16.9246 11.0607 16.9576 11.0937 17.0566 11.1267L16.6607 12.2154C16.6277 12.2484 16.5617 12.3144 16.5287 12.2814L15.1431 12.1824C14.9781 12.1494 14.8792 12.1494 14.7802 12.3144C14.7142 12.4794 14.5822 12.6113 14.4503 12.7433C14.4173 12.8093 14.3843 12.8753 14.4503 12.9742C14.6482 13.4361 14.8792 13.898 15.0771 14.3929L14.0874 15.0857C14.0544 15.0857 13.9554 15.0857 13.9554 15.0527ZM22.5002 17.5271C22.7641 17.692 23.061 17.857 23.325 18.0219C23.358 18.0219 23.391 18.0549 23.4239 18.0879C23.358 18.3188 23.259 18.5828 23.16 18.8137C23.16 18.8467 23.127 18.8797 23.094 18.8797C22.7641 18.8467 22.4672 18.8137 22.1373 18.7807C22.0383 18.7807 21.9393 18.7807 21.9063 18.8797C21.8733 18.9787 21.7414 19.0777 21.6754 19.2096C21.6424 19.2426 21.6094 19.2756 21.6424 19.3416C21.8074 19.6715 21.9393 19.9684 22.1043 20.3313C21.8733 20.4633 21.6424 20.6283 21.4115 20.7932C21.4115 20.7932 21.3455 20.7932 21.3125 20.7602C21.0816 20.5293 20.8176 20.3313 20.5537 20.1004C20.5207 20.0674 20.4877 20.0674 20.4217 20.1004C20.2898 20.1334 20.1248 20.1664 19.9928 20.1994C19.9268 20.2324 19.8939 20.2653 19.8939 20.3313C19.7949 20.6612 19.7289 20.9912 19.6629 21.3541H18.7721C18.7062 20.9912 18.6072 20.6612 18.5412 20.3313C18.5412 20.2653 18.5082 20.2324 18.4422 20.1994C18.2773 20.1664 18.1453 20.1334 18.0133 20.1004C17.9474 20.0674 17.9144 20.0674 17.8814 20.1004C17.6174 20.3313 17.3865 20.5623 17.1226 20.7602C17.0896 20.7932 17.0236 20.7932 17.0236 20.7932L16.3308 20.3313C16.4957 20.0014 16.6277 19.6715 16.7597 19.3746C16.7927 19.2756 16.7927 19.2426 16.7597 19.1766C16.6607 19.0777 16.5947 18.9457 16.4957 18.8467C16.4627 18.7807 16.4298 18.7807 16.3638 18.7807C16.0339 18.8137 15.7039 18.8467 15.407 18.8797C15.308 18.8797 15.2751 18.8797 15.2421 18.7807C15.1761 18.5498 15.0771 18.3188 15.0111 18.0879C15.0441 18.0549 15.0771 18.0219 15.1101 18.0219L15.9349 17.5271C16.0009 17.4941 16.0339 17.4611 16.0009 17.3951V16.9662C16.0339 16.9002 16.0009 16.9002 15.9349 16.8672L15.0771 16.3724C15.0771 16.3394 15.0441 16.3394 15.0111 16.3064C15.0771 16.0424 15.1761 15.8115 15.2751 15.5476C15.2751 15.5146 15.341 15.5146 15.341 15.5146C15.6709 15.5476 16.0009 15.5476 16.2978 15.6135C16.3968 15.6135 16.4627 15.6135 16.5287 15.4816C16.5947 15.3826 16.6937 15.2836 16.7597 15.2177C16.7927 15.1517 16.7927 15.1187 16.7927 15.0527C16.6277 14.7228 16.4957 14.3929 16.3308 14.063C16.5617 13.931 16.7927 13.766 17.0236 13.6011C17.0236 13.6011 17.0896 13.6011 17.1226 13.6341C17.3865 13.832 17.6174 14.063 17.8814 14.2939C17.9144 14.3269 17.9474 14.3269 18.0133 14.2939C18.1453 14.2609 18.3103 14.2279 18.4422 14.1949C18.5082 14.1619 18.5412 14.1289 18.5412 14.063C18.6072 13.733 18.7062 13.4031 18.7721 13.0402H19.6629C19.7619 13.4031 19.8279 13.733 19.8939 14.063C19.9268 14.1289 19.9268 14.1619 19.9928 14.1949C20.1578 14.2279 20.2898 14.2609 20.4217 14.2939C20.4877 14.3269 20.5207 14.3269 20.5537 14.2939C20.8176 14.063 21.0486 13.832 21.3125 13.6341C21.3455 13.6011 21.4115 13.5681 21.4445 13.6011C21.6424 13.766 21.8733 13.931 22.1043 14.063C22.0053 14.3269 21.9063 14.5248 21.8074 14.7558L21.6424 15.0527C21.6424 15.1187 21.6424 15.1517 21.6754 15.1847L21.9393 15.5476C21.9723 15.6135 22.0053 15.6135 22.0713 15.6135C22.4012 15.5806 22.7311 15.5476 23.028 15.5146C23.127 15.5146 23.16 15.5146 23.193 15.6135C23.292 15.8445 23.358 16.0754 23.4569 16.3064C23.226 16.4383 22.9951 16.5703 22.7971 16.7023C22.6981 16.7353 22.5662 16.8012 22.5002 16.8672C22.4342 16.9002 22.4342 16.9332 22.4342 16.9662V17.4281C22.4342 17.4611 22.4342 17.4941 22.5002 17.5271ZM25.4034 9.87303C25.4034 9.87303 25.3704 9.90603 25.3045 9.90603C25.0075 9.87303 24.6776 9.84004 24.3807 9.80705C24.2817 9.80705 24.2157 9.80705 24.1498 9.90603C24.0838 10.005 23.9848 10.104 23.9188 10.2029C23.8858 10.2689 23.8528 10.3019 23.8858 10.3679C24.0508 10.6648 24.1827 10.9947 24.3477 11.3577C24.1168 11.4896 23.8858 11.6546 23.6549 11.8195C23.6219 11.8195 23.5889 11.8195 23.5559 11.7865C23.292 11.5556 23.061 11.3577 22.7971 11.1267C22.7641 11.0937 22.7311 11.0937 22.6651 11.1267C22.5332 11.1597 22.3682 11.1927 22.2363 11.2257C22.1703 11.2587 22.1373 11.2917 22.1373 11.3577C22.0713 11.6876 21.9723 12.0175 21.9063 12.3804H21.0156L20.7846 11.3577C20.7846 11.2587 20.7516 11.2587 20.6527 11.2257C20.5207 11.1927 20.3887 11.1597 20.2568 11.0937C20.1908 11.0937 20.1578 11.0937 20.1248 11.1267C19.8609 11.3577 19.5969 11.5556 19.366 11.7865C19.333 11.8195 19.267 11.8195 19.267 11.8195L18.5742 11.3577C18.7392 11.0277 18.8711 10.6978 19.0031 10.3679C19.0361 10.3019 19.0361 10.2689 18.9701 10.2029C18.9041 10.104 18.8051 9.97201 18.7392 9.87303C18.7062 9.80705 18.6732 9.80705 18.6072 9.80705C18.2773 9.84004 17.9474 9.87303 17.6504 9.90603C17.5515 9.90603 17.5185 9.90603 17.4855 9.80705C17.3865 9.57611 17.3205 9.34517 17.2215 9.11423C17.2875 9.08124 17.3205 9.04825 17.3535 9.04825C17.6174 8.88329 17.9144 8.71833 18.1783 8.55337C18.2443 8.52038 18.2773 8.48739 18.2773 8.42141C18.2443 8.28944 18.2443 8.15748 18.2773 7.99252C18.2773 7.92654 18.2443 7.89355 18.1783 7.86055C17.8814 7.6956 17.6174 7.53064 17.3535 7.39867L17.2215 7.33269L17.5185 6.57389C17.5185 6.5409 17.5515 6.5409 17.5845 6.5409C17.9144 6.5409 18.2443 6.57389 18.5412 6.60688C18.6402 6.63987 18.7062 6.60688 18.7721 6.5079C18.8381 6.40893 18.9041 6.30996 19.0031 6.21098C19.0361 6.17799 19.0361 6.145 19.0361 6.07901C18.8711 5.7491 18.7392 5.41919 18.5742 5.08927C18.8051 4.92431 19.0361 4.75936 19.267 4.62739C19.267 4.5944 19.333 4.62739 19.366 4.66038C19.6299 4.85833 19.8609 5.08927 20.1248 5.28722C20.1578 5.3532 20.1908 5.3532 20.2568 5.32021C20.3887 5.28722 20.5537 5.22124 20.6857 5.18824C20.7516 5.18824 20.7516 5.15525 20.7846 5.08927C20.8506 4.75936 20.9496 4.39645 21.0156 4.06654H21.9063C21.9723 4.39645 22.0713 4.72636 22.1373 5.08927C22.1373 5.15525 22.1703 5.18824 22.2363 5.18824C22.4012 5.22124 22.5332 5.25423 22.6651 5.32021C22.7311 5.3532 22.7641 5.3532 22.7971 5.28722C23.061 5.08927 23.325 4.85833 23.5559 4.62739C23.5889 4.5944 23.6219 4.5944 23.6879 4.62739C23.9188 4.79235 24.1168 4.92431 24.3477 5.08927L24.0508 5.78209C23.9848 5.88107 23.9518 5.98004 23.8858 6.07901C23.8858 6.11201 23.8858 6.17799 23.9188 6.21098C24.0178 6.30996 24.0838 6.44192 24.1827 6.5409C24.2157 6.60688 24.2487 6.63987 24.3147 6.60688C24.6446 6.57389 24.9416 6.5409 25.2715 6.5079C25.3704 6.5079 25.4034 6.5079 25.4364 6.60688C25.5024 6.83782 25.6014 7.06876 25.6674 7.33269C25.4694 7.46466 25.2385 7.56363 25.0405 7.6956C24.9086 7.76158 24.8426 7.79457 24.7106 7.89355C24.7106 7.89355 24.6776 7.92654 24.6776 7.95953V8.42141C24.6776 8.48739 24.6776 8.52038 24.7436 8.55337L25.5684 9.01526C25.6014 9.04825 25.6344 9.04825 25.7004 9.11423C25.6014 9.34517 25.5024 9.6091 25.4034 9.87303ZM10.8542 6.63987C9.10565 6.63987 7.65402 8.0585 7.68701 9.84004C7.68701 11.5886 9.10565 13.0402 10.8872 13.0402C12.6357 13.0072 14.0544 11.5886 14.0544 9.80705C14.0544 8.0585 12.6357 6.63987 10.8542 6.63987ZM19.3 14.6568C18.1123 14.6568 17.1556 15.6135 17.1556 16.8012C17.1556 18.0219 18.1123 18.9457 19.3 18.9457C20.4877 18.9457 21.4445 17.9889 21.4445 16.8012C21.4445 15.6135 20.4877 14.6568 19.3 14.6568ZM21.3785 6.07901C20.1578 6.07901 19.201 7.03577 19.234 8.22346C19.234 9.41115 20.1908 10.3679 21.3785 10.3679C22.5662 10.3679 23.5229 9.41115 23.5229 8.22346C23.5229 7.00278 22.5992 6.07901 21.3785 6.07901Z" fill="black"/>
</svg>
