<svg width="36" height="33" viewBox="0 0 36 33" fill="none" xmlns="http://www.w3.org/2000/svg">
<path d="M13.0909 21.2727C12.7673 21.2727 12.4509 21.3687 12.1818 21.5485C11.9127 21.7283 11.703 21.9839 11.5791 22.2829C11.4553 22.5819 11.4228 22.9109 11.486 23.2283C11.5491 23.5458 11.705 23.8373 11.9338 24.0662C12.1627 24.295 12.4542 24.4509 12.7717 24.514C13.0891 24.5771 13.4181 24.5447 13.7171 24.4209C14.0161 24.297 14.2717 24.0873 14.4515 23.8182C14.6313 23.5491 14.7273 23.2327 14.7273 22.9091C14.7273 22.4751 14.5549 22.0589 14.248 21.752C13.9411 21.4451 13.5249 21.2727 13.0909 21.2727ZM1.63636 19.6364C1.20237 19.6364 0.786157 19.8088 0.47928 20.1156C0.172402 20.4225 0 20.8387 0 21.2727V24.5455C0 24.9794 0.172402 25.3957 0.47928 25.7025C0.786157 26.0094 1.20237 26.1818 1.63636 26.1818C2.07035 26.1818 2.48657 26.0094 2.79345 25.7025C3.10032 25.3957 3.27273 24.9794 3.27273 24.5455V21.2727C3.27273 20.8387 3.10032 20.4225 2.79345 20.1156C2.48657 19.8088 2.07035 19.6364 1.63636 19.6364ZM34.3636 19.6364C33.9296 19.6364 33.5134 19.8088 33.2065 20.1156C32.8997 20.4225 32.7273 20.8387 32.7273 21.2727V24.5455C32.7273 24.9794 32.8997 25.3957 33.2065 25.7025C33.5134 26.0094 33.9296 26.1818 34.3636 26.1818C34.7976 26.1818 35.2138 26.0094 35.5207 25.7025C35.8276 25.3957 36 24.9794 36 24.5455V21.2727C36 20.8387 35.8276 20.4225 35.5207 20.1156C35.2138 19.8088 34.7976 19.6364 34.3636 19.6364ZM26.1818 8.18182H19.6364V6.08727C20.131 5.80171 20.5423 5.39167 20.8294 4.89791C21.1164 4.40415 21.2693 3.84386 21.2727 3.27273C21.2727 2.40475 20.9279 1.57231 20.3142 0.958559C19.7004 0.344804 18.868 0 18 0C17.132 0 16.2996 0.344804 15.6858 0.958559C15.0721 1.57231 14.7273 2.40475 14.7273 3.27273C14.7307 3.84386 14.8836 4.40415 15.1706 4.89791C15.4577 5.39167 15.869 5.80171 16.3636 6.08727V8.18182H9.81818C8.51621 8.18182 7.26756 8.69902 6.34693 9.61966C5.4263 10.5403 4.90909 11.7889 4.90909 13.0909V27.8182C4.90909 29.1202 5.4263 30.3688 6.34693 31.2894C7.26756 32.2101 8.51621 32.7273 9.81818 32.7273H26.1818C27.4838 32.7273 28.7324 32.2101 29.6531 31.2894C30.5737 30.3688 31.0909 29.1202 31.0909 27.8182V13.0909C31.0909 11.7889 30.5737 10.5403 29.6531 9.61966C28.7324 8.69902 27.4838 8.18182 26.1818 8.18182ZM20.8145 11.4545L19.9964 14.7273H16.0036L15.1855 11.4545H20.8145ZM27.8182 27.8182C27.8182 28.2522 27.6458 28.6684 27.3389 28.9753C27.032 29.2821 26.6158 29.4545 26.1818 29.4545H9.81818C9.38419 29.4545 8.96798 29.2821 8.6611 28.9753C8.35422 28.6684 8.18182 28.2522 8.18182 27.8182V13.0909C8.18182 12.6569 8.35422 12.2407 8.6611 11.9338C8.96798 11.6269 9.38419 11.4545 9.81818 11.4545H11.8145L13.0909 16.7564C13.1805 17.1194 13.3917 17.4409 13.6895 17.6671C13.9872 17.8934 14.3535 18.0109 14.7273 18H21.2727C21.6465 18.0109 22.0128 17.8934 22.3105 17.6671C22.6082 17.4409 22.8195 17.1194 22.9091 16.7564L24.1855 11.4545H26.1818C26.6158 11.4545 27.032 11.6269 27.3389 11.9338C27.6458 12.2407 27.8182 12.6569 27.8182 13.0909V27.8182ZM22.9091 21.2727C22.5854 21.2727 22.2691 21.3687 22 21.5485C21.7309 21.7283 21.5211 21.9839 21.3973 22.2829C21.2734 22.5819 21.241 22.9109 21.3042 23.2283C21.3673 23.5458 21.5232 23.8373 21.752 24.0662C21.9809 24.295 22.2724 24.4509 22.5899 24.514C22.9073 24.5771 23.2363 24.5447 23.5353 24.4209C23.8343 24.297 24.0899 24.0873 24.2697 23.8182C24.4495 23.5491 24.5455 23.2327 24.5455 22.9091C24.5455 22.4751 24.373 22.0589 24.0662 21.752C23.7593 21.4451 23.3431 21.2727 22.9091 21.2727Z" fill="black"/>
</svg>
