<svg width="33" height="33" viewBox="0 0 33 33" fill="none" xmlns="http://www.w3.org/2000/svg">
<path d="M33.0001 22.9167V3.66667C33.0001 3.66667 33.0001 0 29.3334 0H3.66667C3.66667 0 0 0 0 3.66667V22.8452L33.0001 22.9167Z" fill="#88C9F9"/>
<path d="M24.7499 9.16666H20.1666L15.5832 22H32.9999V4.58332C32.0833 4.58332 28.0325 4.9674 26.5833 6.41666C25.6666 7.33332 25.6666 8.24999 24.7499 9.16666Z" fill="#292F33"/>
<path d="M21.9999 10.0833C22.9166 9.16666 24.2888 9.62683 24.7499 9.16666C25.2174 8.69916 25.4466 8.23258 25.6803 7.76508C22.2547 7.65416 19.4195 7.81549 18.3332 8.24999C13.7499 10.0833 14.6666 18.3333 8.24987 22.9167C8.24987 22.9167 12.8332 24.7491 16.4999 21.0833C18.9025 18.6798 19.4424 12.6408 21.9999 10.0833Z" fill="#66757F"/>
<path d="M3.66667 33H29.3334C33.0001 33 33.0001 29.3333 33.0001 29.3333V21.0833H0V29.3333C0 33 3.66667 33 3.66667 33Z" fill="#5C913B"/>
<path d="M25.6667 21.0833C25.6667 22 16.5 22 16.5 23.8333C16.5 25.6667 20.1667 25.6667 20.1667 26.5833C20.1667 27.5 7.40944 29.3333 7.33336 33H22.9167C22.9167 31.1667 27.5001 30.25 27.5001 27.5C27.5001 24.75 21.0834 24.75 21.0834 23.8333C21.0834 22.9167 27.5001 22 27.5001 21.0833H25.6667Z" fill="#55ACEE"/>
<path d="M25.6666 21.0833V16.5C25.6666 10.0833 27.5 9.16664 27.5 9.16664H28.4166C28.4166 9.16664 27.5 10.0833 27.5 15.5833V21.0833H25.6666Z" fill="#226699"/>
<path d="M10.5692 26.1283C10.5692 27.1393 9.75064 27.5005 8.73955 27.5005C7.72938 27.5005 6.90988 27.1384 6.90988 26.1283L7.3673 22.0133C7.3673 21.0032 7.72938 21.0994 8.73955 21.0994C9.75064 21.0994 10.1118 21.0041 10.1118 22.0133L10.5692 26.1283Z" fill="#662113"/>
<path d="M14.8701 23.52C14.6391 23.322 14.4209 23.1166 14.2092 22.9086C14.134 22.7637 14.0231 22.6106 13.837 22.4392C13.6729 22.2889 13.5144 22.133 13.3594 21.9754C14.2944 21.8415 14.6978 21.3594 13.837 20.6224C13.5556 20.3813 13.2898 20.1274 13.0349 19.868C13.1468 19.6855 13.0753 19.439 12.7196 19.1337C12.6023 19.0338 12.4886 18.9302 12.3777 18.8257C13.0863 18.7157 13.3824 18.3399 12.7196 17.7725C12.517 17.5983 12.3254 17.4159 12.1403 17.2298C12.3117 17.0795 12.2915 16.853 11.9514 16.5625C11.8799 16.501 11.8176 16.4341 11.7489 16.3709C12.264 16.2673 12.4611 15.974 11.9514 15.5367C11.6288 15.2599 11.3409 14.9574 11.0714 14.653C11.4189 14.5696 11.5435 14.3615 11.2144 14.059C11.4555 13.9518 11.5023 13.7538 11.1842 13.4815C10.0109 12.4769 9.35177 11.0377 8.74036 11.0377C8.12894 11.0377 7.46985 12.4769 6.29744 13.4815C5.97935 13.7547 6.0261 13.9527 6.26719 14.059C5.9381 14.3615 6.06277 14.5696 6.41019 14.653C6.14069 14.9574 5.85285 15.2599 5.53018 15.5367C5.02052 15.974 5.2176 16.2664 5.73277 16.3709C5.66402 16.4341 5.60168 16.501 5.53018 16.5625C5.1901 16.854 5.16993 17.0795 5.34135 17.2298C5.15618 17.4159 4.96552 17.5983 4.76202 17.7725C4.09927 18.3399 4.39535 18.7157 5.10393 18.8257C4.99302 18.9311 4.87935 19.0338 4.76202 19.1337C4.40635 19.439 4.33393 19.6855 4.44668 19.868C4.19185 20.1274 3.92602 20.3813 3.6446 20.6224C2.78385 21.3594 3.18718 21.8425 4.12218 21.9754C3.96727 22.133 3.80868 22.2889 3.6446 22.4392C3.45851 22.6097 3.3476 22.7637 3.27243 22.9076C3.06068 23.1166 2.8416 23.322 2.6106 23.52C1.27318 24.6667 1.90935 25.3304 3.7436 25.1975C5.37893 25.0792 6.90794 24.708 8.74036 24.708C10.5728 24.708 12.1018 25.0792 13.7371 25.1975C15.5705 25.3304 16.2085 24.6667 14.8701 23.52Z" fill="#3E721D"/>
<path d="M10.3711 3.37134C10.12 3.37134 9.87704 3.40984 9.64971 3.48042C9.37837 2.70767 8.64504 2.15217 7.7797 2.15217C6.85112 2.15217 6.0747 2.79109 5.85837 3.65275C5.6292 3.4795 5.34595 3.37225 5.0352 3.37225C4.27712 3.37225 3.66295 3.98642 3.66295 4.74451C3.66295 4.92876 3.70053 5.10384 3.76745 5.26426C3.63545 5.22759 3.49978 5.20192 3.35861 5.20192C2.51528 5.20101 1.83328 5.88301 1.83328 6.72543C1.83328 7.56784 2.51528 8.24984 3.3577 8.24984H10.3702C11.7168 8.24984 12.8095 7.15809 12.8095 5.81059C12.8104 4.46401 11.7168 3.37134 10.3711 3.37134Z" fill="#F5F8FA"/>
</svg>
