<svg width="24" height="35" viewBox="0 0 24 35" fill="none" xmlns="http://www.w3.org/2000/svg">
<path d="M11.4441 1.73936C10.6904 0.524451 9.32598 -0.132891 7.88456 0.0226411C6.44314 0.178173 5.23004 1.11723 4.71839 2.47007C4.40755 3.29468 4.30302 4.28069 4.40479 5.48973C4.49832 6.62834 4.45156 6.92767 3.73085 7.49697C2.66629 8.34506 2.23441 9.51008 2.60302 10.5401C2.95237 11.5203 3.93441 12.116 5.15301 12.116C5.2713 12.116 5.39233 12.1101 5.51612 12.0984C8.09087 11.8577 9.97792 10.6076 11.1278 8.38321C11.158 8.32745 11.18 8.28343 11.1965 8.25115C12.2006 6.52563 12.6324 3.65563 11.4441 1.73936Z" fill="#543930"/>
<path d="M12.0878 5.5689C11.997 6.64295 11.4441 7.83145 11.1938 8.25403C11.1773 8.28631 11.1553 8.33033 11.125 8.38608C9.97519 10.6105 8.08814 11.8606 5.51339 12.1012C5.39235 12.113 5.27132 12.1188 5.15303 12.1188C3.93168 12.1188 2.91388 11.5378 2.60304 10.543C2.17942 9.18722 2.9854 8.10437 3.47779 7.71994C4.23426 7.13009 4.53685 6.84544 4.42957 5.69803C5.04575 10.0529 11.9118 6.6723 12.0603 5.76552C12.0713 5.70096 12.0823 5.63347 12.0878 5.5689Z" fill="url(#paint0_radial_164_5130)"/>
<path d="M12.4869 8.51245C11.989 8.83525 11.3536 8.95557 10.8557 8.95557C10.6879 8.95557 10.5338 8.94089 10.41 8.91742C9.90663 8.81764 9.4445 8.77656 9.02088 8.77656C6.63318 8.77656 5.46409 10.1 5.46409 10.1L7.08981 12.7998C7.87654 13.0581 8.69628 13.2019 9.40874 13.2019C9.76634 13.2019 10.0964 13.1667 10.3853 13.0904C12.0193 12.659 12.7977 11.3472 12.7977 11.3472L12.4869 8.51245Z" fill="url(#paint1_linear_164_5130)"/>
<path d="M17.0198 6.79614H17.0226C16.4422 4.9327 15.5427 3.8968 14.9732 2.43539C14.965 2.40897 14.9567 2.39137 14.9485 2.36496C15.064 2.25344 15.1878 2.13019 15.3391 1.97759C15.3391 1.97759 16.1286 1.06788 16.7173 0.595415C16.8383 0.49564 16.7805 0.246202 16.6072 0.246202H16.5907C16.1809 0.331305 15.2098 1.21754 15.2098 1.21754C15.1658 1.08255 15.075 1.03266 14.976 1.03266C14.8247 1.03266 14.6459 1.14418 14.5359 1.24689L13.6969 2.03628C13.4658 2.25344 13.4576 2.54103 13.5676 2.74938C13.5758 2.79047 13.5868 2.83449 13.6033 2.88437L14.5331 5.8835C14.6266 6.19749 14.7119 6.51736 14.7889 6.83723C13.7849 7.59434 11.466 9.04108 11.466 9.04108C11.466 9.04108 12.1152 11.2303 12.3435 11.2303H12.3572C12.6543 11.2303 13.177 11.0483 13.408 10.8546C14.7009 9.78353 16.0571 8.60383 16.6897 8.04627L16.687 8.0492C16.8493 7.91715 16.9758 7.74107 17.0419 7.51805C17.1161 7.27154 17.0996 7.0221 17.0198 6.79614Z" fill="url(#paint2_linear_164_5130)"/>
<path d="M6.79511 17.5217C6.79236 17.5129 6.78686 17.507 6.78136 17.4982L6.66858 17.5863C6.66583 17.5833 6.66583 17.5833 6.66583 17.5804L6.78136 17.4982C6.77311 17.4835 6.76486 17.4718 6.75385 17.4571C6.74285 17.4395 6.7291 17.4249 6.71534 17.4102C6.69884 17.3867 6.68508 17.3691 6.66308 17.3427L4.65774 15.0185C4.5257 14.863 4.40192 14.7016 4.27538 14.5402C5.25191 13.6158 7.12521 12.0928 7.12521 12.0928C7.12521 12.0928 6.2367 10.0562 6.00288 10.0562H5.99738C5.70305 10.0562 5.19965 10.3291 4.99059 10.555C3.83525 11.7934 2.63315 13.1375 2.07199 13.7772L2.07474 13.7684C1.9317 13.921 1.82717 14.1117 1.7859 14.3406C1.72539 14.6928 1.83267 15.0303 2.04173 15.2738H2.03898L2.06924 15.3061C2.07199 15.309 2.07474 15.3149 2.08024 15.3178C3.3126 16.7264 4.46794 17.2517 5.54075 18.3258C5.57926 18.3669 5.61777 18.3991 5.65903 18.4255C5.62602 18.5957 5.59026 18.7865 5.55175 19.0183C5.55175 19.0183 5.41971 20.2479 5.2079 21.0021C5.17214 21.1253 5.27667 21.2515 5.38945 21.2515C5.42797 21.2515 5.46648 21.2369 5.49949 21.2046C5.78282 20.8788 6.0744 19.5495 6.0744 19.5495C6.12667 19.5876 6.17894 19.6052 6.2257 19.6052C6.42376 19.6052 6.5613 19.3059 6.60256 19.1005L6.84188 17.9355C6.85563 17.8621 6.85838 17.7946 6.85288 17.733C6.85838 17.6684 6.83913 17.598 6.79511 17.5217Z" fill="url(#paint3_linear_164_5130)"/>
<path d="M19.5315 18.2874L19.5372 18.4061C19.6057 18.3422 19.6057 18.2935 19.5315 18.2874Z" fill="url(#paint4_linear_164_5130)"/>
<path d="M19.5369 18.4019C19.1876 18.7393 16.9759 19.5904 14.1316 17.903C13.0313 17.2515 12.3491 16.3242 12.2033 15.2589C12.0575 14.1937 12.7122 13.507 12.781 12.5445C12.803 12.2275 12.7755 11.9634 12.7122 11.7404C13.1358 11.5233 13.6227 11.0948 13.6255 10.9892C13.6447 10.5578 13.4384 10.1528 13.2211 9.79186C12.9873 9.40156 12.7232 9.02594 12.3738 8.75303C12.2831 8.6826 12.0795 8.55348 11.9695 8.58869C11.0507 8.88215 10.8774 8.86161 10.0742 8.86161L9.8266 8.82933C10.2612 9.36635 11.2928 11.7257 10.2942 12.2217C9.2957 12.7176 7.11431 9.09344 7.11431 9.09344C6.43762 9.29299 5.02645 10.1587 4.35526 10.9921C4.314 11.042 4.38002 11.1242 4.41027 11.1828C4.75412 11.8783 5.3593 12.565 5.93697 13.0551C5.99749 13.1079 6.06351 13.1607 6.13778 13.1754C6.2038 13.1901 6.43762 13.0287 6.60266 12.9025C6.97952 13.3662 7.32062 13.8063 7.52418 14.1086C7.75525 14.4138 8.36593 15.5788 8.14311 16.5384C6.52564 20.1655 8.07159 20.8698 8.24489 22.1346C8.59975 24.7317 5.75817 31.1144 0.944263 31.1144L3.21367 32.5083L7.52418 32.206L9.90638 30.0198L13.1798 29.4974L14.3352 26.9708L15.4823 23.555L19.6552 20.6204L19.5369 18.4019Z" fill="url(#paint5_linear_164_5130)"/>
<mask id="mask0_164_5130" style="mask-type:luminance" maskUnits="userSpaceOnUse" x="0" y="8" width="20" height="25">
<path d="M19.5314 18.2879C19.9908 18.3349 17.5096 19.9078 14.1316 17.9035C13.0313 17.252 12.3491 16.3247 12.2033 15.2595C12.0575 14.1942 12.7122 13.5075 12.781 12.545C12.8938 10.9955 11.8044 10.7138 11.2598 10.0389C10.7151 9.36686 10.0604 8.69485 10.0604 8.69485H9.73308C10.1677 9.23187 11.2928 11.7204 10.2942 12.2193C9.2957 12.7181 7.06755 9.01765 7.06755 9.01765L6.67143 9.1409C5.68665 9.49598 4.69911 10.4732 4.71286 10.5788C4.72937 10.6992 6.85849 13.1231 7.52418 14.1091C7.75525 14.4143 8.36593 15.5793 8.14311 16.5389C6.52564 20.166 8.07159 20.8703 8.24489 22.1351C8.59975 24.7322 5.75817 31.1149 0.944263 31.1149L3.21367 32.5088L7.52418 32.2066L9.90638 30.0203L13.1798 29.498L14.3352 26.9713L15.4823 23.5555L19.6552 20.6209L19.5314 18.2879Z" fill="white"/>
</mask>
<g mask="url(#mask0_164_5130)">
<path d="M8.29977 26.9504C7.91466 27.191 7.51029 27.64 7.09492 28.3883C6.73457 29.0369 5.87632 30.6831 5.21337 30.8181C4.59444 30.9443 3.73069 30.6391 3.41985 30.0346L3.28781 29.7793L2.80642 30.061L2.93846 30.3193C3.30982 31.0441 4.12681 31.3728 4.86127 31.3728C5.01807 31.3728 5.16936 31.3581 5.3124 31.3288C6.25868 31.1351 6.98214 29.5621 7.33974 28.9019C7.60382 28.4147 7.87065 28.0743 8.14298 27.8425C8.11822 27.5578 8.17599 27.2497 8.29977 26.9504Z" fill="#FF8F00"/>
<path d="M14.0134 19.2529C14.6103 19.2177 15.1495 19.4085 15.1495 19.4085L14.9432 19.2617C14.6213 19.0974 13.9281 18.7247 13.3147 18.7717C13.5183 19.0358 13.7878 19.1355 14.0134 19.2529Z" fill="#FF8F00"/>
<path d="M11.7465 23.5549C12.2994 24.9312 13.309 27.3229 12.3875 28.0067C12.2032 28.1446 11.7988 28.0742 11.2651 27.7748C10.8553 27.5459 10.4041 27.1703 9.91725 26.9326C9.98326 27.1644 10.0438 27.3992 10.0658 27.6281C10.4537 27.7924 10.8223 28.0243 11.1606 28.215C11.7713 28.5584 12.2609 28.7374 12.7286 28.3089C13.9114 27.2261 12.7781 25.3861 12.2279 23.9129C11.697 22.4956 11.7438 21.4597 12.1647 20.6497C11.9391 20.5822 11.7273 20.5001 11.5237 20.4238C11.1826 21.3716 11.3257 22.5073 11.7465 23.5549Z" fill="#FF8F00"/>
<path d="M13.0534 19.5937C13.3339 19.3619 13.6833 19.2739 14.0134 19.2533C13.7851 19.136 13.5183 19.0362 13.3174 18.7721C13.1662 18.7838 13.0176 18.819 12.8828 18.8924C12.1814 19.2709 11.7522 19.808 11.5267 20.4242C11.7275 20.5005 11.942 20.5827 12.1676 20.6502C12.3767 20.2482 12.6793 19.9019 13.0534 19.5937Z" fill="#FFB600"/>
<path d="M8.29996 26.9503C8.17343 27.2496 8.11841 27.5606 8.14042 27.8424C8.7896 27.2877 9.4498 27.367 10.066 27.6281C10.0412 27.3992 9.98345 27.1645 9.91743 26.9327C9.41679 26.6861 8.87763 26.5893 8.29996 26.9503Z" fill="#FFB600"/>
</g>
<mask id="mask1_164_5130" style="mask-type:luminance" maskUnits="userSpaceOnUse" x="0" y="8" width="20" height="25">
<path d="M19.5314 18.2879C19.9908 18.3349 17.5096 19.9078 14.1316 17.9035C13.0313 17.252 12.3491 16.3247 12.2033 15.2595C12.0575 14.1942 12.7122 13.5075 12.781 12.545C12.8938 10.9955 11.8044 10.7138 11.2598 10.0389C10.7151 9.36686 10.0604 8.69485 10.0604 8.69485H9.73308C10.1677 9.23187 11.2928 11.7204 10.2942 12.2193C9.2957 12.7181 7.06755 9.01765 7.06755 9.01765L6.67143 9.1409C5.68665 9.49598 4.69911 10.4732 4.71286 10.5788C4.72937 10.6992 6.85849 13.1231 7.52418 14.1091C7.75525 14.4143 8.36593 15.5793 8.14311 16.5389C6.52564 20.166 8.07159 20.8703 8.24489 22.1351C8.59975 24.7322 5.75817 31.1149 0.944263 31.1149L3.21367 32.5088L7.52418 32.2066L9.90638 30.0203L13.1798 29.498L14.3352 26.9713L15.4823 23.5555L19.6552 20.6209L19.5314 18.2879Z" fill="white"/>
</mask>
<g mask="url(#mask1_164_5130)">
<path d="M17.042 20.4184V20.2746C17.8865 20.1074 17.6252 18.9218 17.5949 18.7252L18.1203 18.6254C18.1368 18.734 18.3019 19.6877 17.8425 20.2071C17.7104 20.3568 17.042 20.4272 17.042 20.4184Z" fill="#FF8F00"/>
</g>
<path d="M20.5932 17.5098C22.1199 17.3103 23.3028 19.0446 22.7471 20.5852C22.5628 21.0929 22.2244 21.3981 21.8558 21.5507C21.8531 21.5537 21.8476 21.5537 21.8448 21.5566C21.5615 21.6798 21.5945 22.1318 21.8888 22.2227C22.1117 22.2932 22.4775 22.0525 22.8544 22.2756C23.2835 22.5279 23.6246 22.9212 23.6136 23.6372C23.5998 24.4471 23.2808 25.2336 22.5793 25.4331C21.5312 25.7266 21.3084 26.739 21.2727 27.9979C21.2589 28.5027 21.1379 29.295 20.5437 29.7323C18.5109 31.2318 17.196 29.16 15.6418 30.0492C12.9542 31.584 14.6157 34.7738 7.846 32.6346C6.23403 32.1269 3.563 35.7158 1.24682 34.2163C-0.596219 33.0219 -0.0433074 31.5576 0.671901 31.0411C2.10782 30.0111 2.34439 32.1122 5.55458 31.9215C7.22156 31.8217 6.81995 28.8255 9.06185 28.1065C10.8306 27.5402 11.5596 30.2429 12.913 28.9869C15.0448 27.0061 11.9502 23.9248 12.7754 21.7239C13.2871 20.3563 14.3571 19.5963 15.4575 19.8898C16.5578 20.1832 16.467 21.0871 17.1767 21.3071C17.9552 21.5507 18.4311 20.7349 18.5989 20.1333C18.8795 19.1268 19.0803 17.7094 20.5932 17.5098Z" fill="url(#paint6_radial_164_5130)"/>
<path d="M21.2316 32.5321C21.6772 32.8314 22.5492 33.7587 22.7885 34.2576C22.8573 34.4014 22.9206 34.7506 22.8298 34.8768C22.7528 34.9824 21.028 35.091 19.7902 34.3427C19.6829 34.2781 19.5453 34.0375 19.5013 33.9436C19.4188 33.7675 19.295 33.747 19.2758 33.9318C19.1135 33.923 18.9979 33.9377 18.8356 33.9289C18.7201 32.7287 18.5275 32.8607 18.5468 32.0185C18.5633 31.3347 19.0034 31.188 19.1767 31.1176C19.2042 31.1059 20.5741 32.0156 21.2316 32.5321Z" fill="#DD2C00"/>
<path d="M21.2427 31.9596C21.0006 31.3434 20.7558 30.7242 20.5137 30.1079C19.551 27.6605 19.1081 26.5982 18.0325 24.2036C17.9307 23.9659 17.7409 23.8749 17.5181 23.8749C17.2045 23.8749 16.8222 24.0539 16.5086 24.2593C15.9502 24.6262 15.4468 24.9695 15.8346 25.6268C16.6131 26.9386 18.3599 29.0691 18.9623 30.4835C19.2924 31.2583 19.2924 32.077 19.8233 32.7079C20.0599 32.9897 20.2304 33.1804 20.5798 33.245C20.6981 33.2684 20.8191 33.2831 20.9319 33.2831C21.1849 33.2831 21.3968 33.2039 21.4408 32.9456C21.482 32.7079 21.3307 32.1827 21.2427 31.9596Z" fill="url(#paint7_linear_164_5130)"/>
<path d="M10.1897 34.2253C10.0742 33.4799 9.48554 32.2562 8.85011 32.2562C8.21467 32.2562 7.57373 33.4799 7.4582 34.2253C7.44169 34.325 7.43619 34.6478 7.43619 34.7271C7.43619 34.73 7.43894 34.7329 7.43894 34.7329C7.44444 34.8445 7.55723 34.9971 7.71677 34.9971C8.10189 34.9971 8.46224 34.9971 8.81985 35C9.17745 35 9.53781 34.9971 9.92292 34.9971C10.0907 34.9971 10.2063 34.8298 10.2007 34.7183V34.7153C10.2007 34.639 10.2035 34.3221 10.1897 34.2253Z" fill="#B41301"/>
<path d="M9.49123 30.1931C9.15838 30.1931 8.86129 30.2753 8.81728 30.4513C8.7155 30.8651 8.41291 31.948 8.31113 32.5437C8.15434 33.1306 8.34689 33.3507 8.90806 33.4622C8.96857 33.4739 9.02359 33.4798 9.07585 33.4798C9.44171 33.4798 9.59576 33.1834 9.71954 32.7344L10.4843 30.7272C10.5833 30.3838 9.99737 30.1931 9.49123 30.1931Z" fill="#EDA600"/>
<path d="M9.50748 8.33372L7.8735 8.48632L7.95327 9.44299C7.98628 9.85089 8.31088 10.159 8.69324 10.159C8.71525 10.159 8.73725 10.159 8.75926 10.1561L8.9078 10.1414C9.31767 10.1033 9.62026 9.72177 9.5845 9.28745L9.50748 8.33372Z" fill="#E59600"/>
<path d="M11.4028 4.85924C11.1993 2.40888 9.82938 1.29668 8.37696 1.29668C8.28893 1.29668 8.19815 1.29962 8.10738 1.30842C6.56143 1.45221 5.23004 2.81385 5.4446 5.41387C5.61515 7.50622 6.93278 8.62722 8.0221 8.92654C8.22291 8.9823 8.41547 9.00871 8.59152 9.00871C8.64103 9.00871 8.69055 9.00578 8.74006 9.00284C8.95462 8.9823 9.19394 8.91187 9.43877 8.79449C10.4621 8.29855 11.5734 6.94865 11.4028 4.85924Z" fill="#FFCA28"/>
<path d="M8.17614 6.3295C8.18439 6.32363 8.1954 6.32069 8.20365 6.31776L8.83083 6.25907C8.84184 6.25907 8.85009 6.262 8.86109 6.26494C8.91886 6.28548 8.95737 6.34417 8.93536 6.4146C8.91336 6.48503 8.80332 6.68458 8.553 6.70806C8.29993 6.73153 8.15964 6.55546 8.12938 6.4909C8.09362 6.42634 8.12113 6.35884 8.17614 6.3295Z" fill="#E59600"/>
<path d="M9.94631 5.76412C10.1885 5.74151 10.367 5.50722 10.3452 5.24082C10.3233 4.97442 10.1093 4.77679 9.86715 4.7994C9.625 4.82201 9.44642 5.0563 9.46828 5.3227C9.49013 5.58911 9.70416 5.78674 9.94631 5.76412Z" fill="#404040"/>
<path d="M7.02497 6.03682C7.26712 6.01421 7.4457 5.77991 7.42384 5.51351C7.40198 5.24711 7.18796 5.04948 6.94581 5.07209C6.70366 5.0947 6.52507 5.329 6.54693 5.5954C6.56879 5.8618 6.78281 6.05943 7.02497 6.03682Z" fill="#404040"/>
<path d="M9.18562 4.47458C9.25989 4.34839 9.43869 4.16058 9.8128 4.12536C10.1869 4.09015 10.3932 4.24275 10.4867 4.35426C10.528 4.40415 10.5225 4.46284 10.5005 4.50392C10.4785 4.53914 10.4125 4.57729 10.3327 4.55674C10.2529 4.5362 10.0961 4.46577 9.84306 4.48925C9.58999 4.51566 9.44694 4.6125 9.36992 4.64772C9.29565 4.68293 9.22138 4.65945 9.19662 4.62717C9.16636 4.58902 9.15261 4.53033 9.18562 4.47458Z" fill="#6D4C41"/>
<path d="M6.26448 4.74724C6.33875 4.62105 6.51755 4.43324 6.89166 4.39803C7.26577 4.36281 7.47208 4.51541 7.56561 4.62692C7.60687 4.67681 7.60137 4.7355 7.57936 4.77658C7.55735 4.8118 7.49134 4.84995 7.41156 4.82941C7.33179 4.80887 7.17499 4.73844 6.92192 4.76191C6.66884 4.78832 6.5258 4.88516 6.44878 4.92038C6.37451 4.95559 6.30024 4.93212 6.27548 4.89984C6.24797 4.86169 6.23147 4.80006 6.26448 4.74724Z" fill="#6D4C41"/>
<path d="M7.83499 7.14229C8.13207 7.29488 9.05909 7.20978 9.32867 7.00436C9.48272 6.88698 9.66152 7.02784 9.6065 7.19217C9.55424 7.35358 9.0756 7.75854 8.63822 7.79963C8.20084 7.84071 7.67269 7.52671 7.59292 7.37999C7.51314 7.22739 7.66444 7.05425 7.83499 7.14229Z" fill="#795548"/>
<path d="M4.81996 6.69315C4.94925 5.22293 4.77045 4.71818 4.80896 4.18116C4.84197 3.7263 4.97951 0.733051 8.0329 0.448398C11.5237 0.122662 11.7245 3.54143 11.7245 3.54143L11.8098 4.75927C11.8098 4.75927 11.785 5.48704 11.4824 6.36741C11.1771 7.25071 10.9378 7.57938 11.0203 7.13626C11.1111 6.64619 11.1908 5.97711 11.1386 5.34031C11.1166 5.06153 11.1138 4.01683 10.5554 3.93759C8.50604 3.64414 7.27643 2.61117 7.27643 2.61117C7.03711 3.3272 6.16786 4.08725 5.85702 4.37191C5.60119 4.60667 5.71122 5.4665 5.74699 5.83332L6.00831 7.50308C5.66171 7.3094 5.02627 7.0629 4.81996 6.69315Z" fill="#543930"/>
<path d="M12.0908 5.55429C12.0908 5.56016 12.0908 5.56309 12.088 5.56896C12.0825 5.63352 12.0715 5.70102 12.0605 5.76558C11.9119 6.67236 5.04594 10.053 4.42976 5.69808C4.41876 5.63059 4.41051 5.56016 4.40501 5.48973C4.40226 5.46332 4.39951 5.43691 4.39951 5.41343C4.394 5.36354 4.39125 5.31659 4.39125 5.26964C4.30873 4.16331 4.42701 3.24479 4.72135 2.47007C5.23025 1.11723 6.44335 0.178173 7.88477 0.0226411C9.32619 -0.132891 10.6878 0.524451 11.4443 1.73936C12.121 2.83102 12.2723 4.2308 12.0908 5.55429Z" fill="url(#paint8_radial_164_5130)"/>
<defs>
<radialGradient id="paint0_radial_164_5130" cx="0" cy="0" r="1" gradientUnits="userSpaceOnUse" gradientTransform="translate(7.50687 7.78933) rotate(145.471) scale(5.6872 3.73448)">
<stop offset="0.7816" stop-color="#6D4C41" stop-opacity="0"/>
<stop offset="1" stop-color="#6D4C41"/>
</radialGradient>
<linearGradient id="paint1_linear_164_5130" x1="9.35031" y1="13.2737" x2="8.9358" y2="9.04054" gradientUnits="userSpaceOnUse">
<stop offset="0.0739" stop-color="#FFCA28"/>
<stop offset="1" stop-color="#FFB300"/>
</linearGradient>
<linearGradient id="paint2_linear_164_5130" x1="14.5114" y1="5.66355" x2="12.1989" y2="7.10873" gradientUnits="userSpaceOnUse">
<stop offset="0.2315" stop-color="#FFCA28"/>
<stop offset="1" stop-color="#FFB300"/>
</linearGradient>
<linearGradient id="paint3_linear_164_5130" x1="3.91194" y1="17.2782" x2="7.17735" y2="14.2683" gradientUnits="userSpaceOnUse">
<stop offset="0.2315" stop-color="#FFCA28"/>
<stop offset="1" stop-color="#FFB300"/>
</linearGradient>
<linearGradient id="paint4_linear_164_5130" x1="19.6134" y1="18.2914" x2="19.4149" y2="18.4153" gradientUnits="userSpaceOnUse">
<stop stop-color="#BC1B00"/>
<stop offset="0.2898" stop-color="#E31C00"/>
<stop offset="0.6929" stop-color="#BC1B00"/>
<stop offset="0.914" stop-color="#DD1C00"/>
</linearGradient>
<linearGradient id="paint5_linear_164_5130" x1="7.57282" y1="10.3309" x2="10.0842" y2="22.264" gradientUnits="userSpaceOnUse">
<stop stop-color="#BC1B00"/>
<stop offset="0.2126" stop-color="#E31C00"/>
<stop offset="0.5068" stop-color="#BC1B00"/>
<stop offset="0.8748" stop-color="#DD1C00"/>
</linearGradient>
<radialGradient id="paint6_radial_164_5130" cx="0" cy="0" r="1" gradientUnits="userSpaceOnUse" gradientTransform="translate(12.1579 27.7203) scale(13.0264 13.8966)">
<stop stop-color="#892002"/>
<stop offset="0.5369" stop-color="#B42002"/>
<stop offset="1" stop-color="#892002"/>
</radialGradient>
<linearGradient id="paint7_linear_164_5130" x1="16.6133" y1="24.2744" x2="20.231" y2="30.6593" gradientUnits="userSpaceOnUse">
<stop stop-color="#FFB300"/>
<stop offset="0.4007" stop-color="#FFCA28"/>
</linearGradient>
<radialGradient id="paint8_radial_164_5130" cx="0" cy="0" r="1" gradientUnits="userSpaceOnUse" gradientTransform="translate(8.15106 5.1183) rotate(90) scale(5.20612 4.47604)">
<stop offset="0.8687" stop-color="#6D4C41" stop-opacity="0"/>
<stop offset="1" stop-color="#6D4C41"/>
</radialGradient>
</defs>
</svg>
